<?xml version="1.0" standalone="no"?>
<!DOCTYPE svg PUBLIC "-//W3C//DTD SVG 1.1//EN" "http://www.w3.org/Graphics/SVG/1.1/DTD/svg11.dtd" >
<svg xmlns="http://www.w3.org/2000/svg">
<metadata>
Copyright (c) 2015 by Fontsmith Ltd. All rights reserved.
</metadata>
<defs>
<font id="CoopBankNarrowWeb-Light" horiz-adv-x="471" >
  <font-face 
    font-family="Coop Bank Narrow Web Light"
    font-weight="300"
    font-stretch="normal"
    units-per-em="1000"
    panose-1="2 0 5 6 5 0 0 2 0 4"
    ascent="770"
    descent="-230"
    x-height="483"
    cap-height="689"
    bbox="-147.636 -223.5 1008 1019.26"
    underline-thickness="42"
    underline-position="-58"
    unicode-range="U+000D-FB04"
  />
<missing-glyph horiz-adv-x="550" 
d="M28 693h495v-693h-495v693zM444 644h-337l169 -253zM474 94v505l-169 -252zM444 50l-168 252l-169 -252h337zM78 94l168 253l-168 252v-505z" />
    <glyph glyph-name="fi" unicode="fi" horiz-adv-x="453" 
d="M156 14q0 -14 -14 -14h-34q-14 0 -14 14v425h-44q-13 0 -13 11v21q0 8 3.5 10t9.5 2h44v42q0 38 7 73.5t24.5 63t46 44t71.5 16.5q28 0 56 -6t43 -14q7 -3 8 -7t-1 -10l-6 -20q-4 -12 -15 -8q-15 6 -34 11t-44 5q-52 0 -73 -36t-21 -98v-56h210q13 0 13 -13v-456
q0 -14 -14 -14h-34q-14 0 -14 14v425h-161v-425z" />
    <glyph glyph-name="fl" unicode="fl" horiz-adv-x="469" 
d="M156 14q0 -14 -14 -14h-34q-14 0 -14 14v425h-44q-13 0 -13 11v21q0 8 3.5 10t9.5 2h44v41q0 40 8 76t27 63t49 43t75 16q28 0 49 -5.5t41 -12.5l36 6q16 3 16 -11v-685q0 -14 -14 -14h-34q-14 0 -14 14v643q-13 5 -34 10.5t-44 5.5q-56 0 -77.5 -36t-21.5 -95v-59h86
q6 0 9.5 -2t3.5 -10v-21q0 -11 -13 -11h-86v-425z" />
    <glyph glyph-name="f_f" unicode="ff" horiz-adv-x="521" 
d="M156 14q0 -14 -14 -14h-34q-14 0 -14 14v425h-45q-8 0 -10 2.5t-2 10.5v19q0 12 11 12h46v24q0 37 4 74t17 65.5t38 46.5t66 18q16 0 35 -3.5t30 -8.5q10 -5 8 -13l-5 -24q-3 -11 -14 -8t-22 5t-22 2q-22 0 -36 -9.5t-22.5 -27.5t-11.5 -43t-3 -55v-43h179v35
q0 37 4.5 73.5t18 65.5t39 47t67.5 18q17 0 37 -3.5t31 -8.5q10 -5 8 -13l-5 -24q-3 -11 -15 -8q-11 3 -23 5t-23 2q-23 0 -38 -9.5t-23.5 -27.5t-12 -43t-3.5 -55v-54h95q11 0 11 -11v-22q0 -11 -10 -11h-96v-425q0 -14 -14 -14h-34q-14 0 -14 14v425h-179v-425z" />
    <glyph glyph-name="f_f_i" unicode="ffi" horiz-adv-x="694" 
d="M397 14q0 -14 -14 -14h-34q-14 0 -14 14v425h-179v-425q0 -14 -14 -14h-34q-14 0 -14 14v425h-45q-8 0 -10 2.5t-2 10.5v19q0 12 11 12h46v24q0 37 4 74t17 65.5t38 46.5t66 18q16 0 35 -3.5t30 -8.5q10 -5 8 -13l-5 -24q-3 -11 -14 -8t-22 5t-22 2q-22 0 -36 -9.5
t-22.5 -27.5t-11.5 -43t-3 -55v-43h179v42q0 38 7 73.5t24.5 63t46 44t71.5 16.5q28 0 56 -6t43 -14q7 -3 8 -7t-1 -10l-6 -20q-4 -12 -15 -8q-15 6 -34 11t-44 5q-52 0 -73 -36t-21 -98v-56h210q13 0 13 -13v-456q0 -14 -14 -14h-34q-14 0 -14 14v425h-161v-425z" />
    <glyph glyph-name="f_f_l" unicode="ffl" horiz-adv-x="710" 
d="M397 14q0 -14 -14 -14h-34q-14 0 -14 14v425h-179v-425q0 -14 -14 -14h-34q-14 0 -14 14v425h-45q-8 0 -10 2.5t-2 10.5v19q0 12 11 12h46v24q0 37 4 74t17 65.5t38 46.5t66 18q16 0 35 -3.5t30 -8.5q10 -5 8 -13l-5 -24q-3 -11 -14 -8t-22 5t-22 2q-22 0 -36 -9.5
t-22.5 -27.5t-11.5 -43t-3 -55v-43h179v41q0 40 8 76t27 63t49 43t75 16q28 0 49 -5.5t41 -12.5l36 6q16 3 16 -11v-685q0 -14 -14 -14h-34q-14 0 -14 14v643q-13 5 -34 10.5t-44 5.5q-56 0 -77.5 -36t-21.5 -95v-59h86q6 0 9.5 -2t3.5 -10v-21q0 -11 -13 -11h-86v-425z" />
    <glyph glyph-name=".notdef" horiz-adv-x="550" 
d="M28 693h495v-693h-495v693zM444 644h-337l169 -253zM474 94v505l-169 -252zM444 50l-168 252l-169 -252h337zM78 94l168 253l-168 252v-505z" />
    <glyph glyph-name=".null" horiz-adv-x="0" 
 />
    <glyph glyph-name=".null" horiz-adv-x="0" 
 />
    <glyph glyph-name="nonmarkingreturn" unicode="&#xd;" horiz-adv-x="181" 
 />
    <glyph glyph-name="space" unicode=" " horiz-adv-x="181" 
 />
    <glyph glyph-name="nonbreakingspace" unicode="&#xa0;" horiz-adv-x="181" 
 />
    <glyph glyph-name="A" unicode="A" horiz-adv-x="508" 
d="M95 11q-4 -11 -17 -11h-38q-6 0 -9.5 3t-1.5 11l189 662q3 13 20 13h38q9 0 12.5 -3.5t5.5 -8.5l185 -662q5 -15 -11 -15h-40q-10 0 -13.5 3.5t-5.5 9.5l-53 197h-206zM342 261l-46 182q-11 42 -21.5 87.5t-19.5 87.5q-10 -44 -21.5 -90l-22.5 -90l-46 -177h177z" />
    <glyph glyph-name="B" unicode="B" horiz-adv-x="480" 
d="M435 192q0 -60 -17.5 -97.5t-47.5 -58.5t-70 -28.5t-85 -7.5h-112q-11 0 -15 4.5t-4 12.5v655q0 17 20 17h103q88 0 137 -37.5t49 -125.5q0 -53 -23.5 -97t-68.5 -62q60 -6 97 -53t37 -122zM150 387h56q20 0 41.5 4.5t39 18.5t28.5 40t11 70q0 38 -10.5 61t-28 35t-40 16
t-46.5 4h-51v-249zM150 53h72q31 0 57.5 6t45.5 21.5t30 43t11 70.5t-12 71t-33 44t-48 22t-57 6h-66v-284z" />
    <glyph glyph-name="C" unicode="C" horiz-adv-x="480" 
d="M49 338q0 77 15.5 143.5t47.5 115t80 76.5t113 28q34 0 68 -8t63 -24q6 -4 7 -8.5t-1 -9.5l-11 -30q-4 -11 -16 -6q-23 13 -50 20.5t-53 7.5q-52 0 -88 -23.5t-59 -64.5t-33.5 -95.5t-10.5 -117.5t10.5 -116.5t33.5 -93t59.5 -62t88.5 -22.5q26 0 54.5 7t49.5 19
q14 7 18 -5l10 -28q5 -12 -8 -19q-29 -16 -64 -24t-70 -8q-66 0 -114 25.5t-79 71.5t-46 110t-15 141z" />
    <glyph glyph-name="D" unicode="D" horiz-adv-x="550" 
d="M216 57q67 0 109 22t65.5 60.5t32 90t8.5 110.5q0 143 -50 217t-163 74h-68v-574h66zM201 689q83 0 140.5 -21t93 -63.5t51.5 -108t16 -154.5q0 -80 -15 -143.5t-48 -107.5t-85 -67.5t-127 -23.5h-124q-19 0 -19 19v652q0 10 2.5 14t15.5 4h99z" />
    <glyph glyph-name="E" unicode="E" horiz-adv-x="431" 
d="M364 55q16 0 16 -13v-28q0 -14 -16 -14h-262q-11 0 -14.5 4t-3.5 13v654q0 10 4 14t15 4h263q15 0 13 -10l-4 -33q0 -12 -17 -12h-208v-248h182q15 0 15 -14v-27q0 -14 -15 -14h-182v-276h214z" />
    <glyph glyph-name="F" unicode="F" horiz-adv-x="408" 
d="M329 386q15 0 15 -14v-27q0 -14 -15 -14h-179v-317q0 -14 -15 -14h-37q-14 0 -14 14v658q0 8 3.5 12.5t14.5 4.5h259q16 0 15 -12l-4 -32q-1 -11 -18 -11h-204v-248h179z" />
    <glyph glyph-name="G" unicode="G" horiz-adv-x="533" 
d="M317 332q-14 0 -14 12v30q0 13 13 13h135q16 0 16 -14v-320q0 -10 -2.5 -14.5t-9.5 -9.5q-29 -17 -71 -28t-85 -11q-64 0 -111.5 26.5t-78.5 73t-46 111t-15 139.5q0 73 16 138.5t48.5 115t82 78.5t116.5 29q69 0 130 -32q11 -6 7 -17l-11 -31q-3 -10 -16 -5
q-27 14 -53.5 20.5t-52.5 6.5q-53 0 -90.5 -25.5t-61 -67.5t-34 -96t-10.5 -111q0 -54 9 -107.5t30.5 -96t57 -68.5t89.5 -26q23 0 49 5.5t47 16.5v265h-84z" />
    <glyph glyph-name="H" unicode="H" horiz-adv-x="560" 
d="M150 14q0 -14 -15 -14h-37q-14 0 -14 14v661q0 14 15 14h36q15 0 15 -15v-287h261v288q0 14 15 14h36q15 0 15 -15v-660q0 -14 -15 -14h-36q-15 0 -15 15v317h-261v-318z" />
    <glyph glyph-name="I" unicode="I" horiz-adv-x="320" 
d="M127 645h-47q-13 0 -13 11v22q0 11 12 11h164q13 0 13 -11v-22q0 -11 -13 -11h-50v-600h49q13 0 13 -10v-25q0 -10 -13 -10h-160q-12 0 -12 10v25q0 10 12 10h45v600z" />
    <glyph glyph-name="J" unicode="J" horiz-adv-x="314" 
d="M237 229q0 -69 -8.5 -120t-34.5 -81q-16 -18 -41.5 -28t-63.5 -10q-13 0 -25.5 2.5t-20.5 5.5q-7 2 -9 4.5t0 9.5l6 27q1 5 4.5 7.5t10.5 0.5q10 -3 18 -4.5t19 -1.5q18 0 35.5 9t27.5 30q9 20 12.5 52.5t3.5 72.5v435h-87q-13 0 -13 12v26q0 11 14 11h136q10 0 13 -3.5
t3 -11.5v-445z" />
    <glyph glyph-name="K" unicode="K" horiz-adv-x="464" 
d="M437 20q13 -20 -9 -20h-40q-11 0 -18 2.5t-14 12.5l-205 314h-1v-314q0 -15 -16 -15h-34q-16 0 -16 15v659q0 15 14 15h38q14 0 14 -15v-299h1l197 302q7 12 24 12h36q9 0 10.5 -4.5t-2.5 -10.5l-209 -316z" />
    <glyph glyph-name="L" unicode="L" horiz-adv-x="378" 
d="M339 57q15 0 15 -14v-30q0 -13 -14 -13h-239q-8 0 -12.5 3t-4.5 12v659q0 8 3 11.5t13 3.5h34q10 0 13 -3.5t3 -11.5v-617h189z" />
    <glyph glyph-name="M" unicode="M" horiz-adv-x="692" 
d="M137 14q0 -9 -3.5 -11.5t-11.5 -2.5h-35q-9 0 -11 3t-2 9l20 662q0 15 17 15h31q15 0 19 -13l190 -580l179 580q4 13 19 13h29q16 0 17 -15l24 -660q0 -14 -14 -14h-36q-15 0 -15 16l-12 525l-159 -529q-4 -12 -17 -12h-32q-10 0 -13.5 2.5t-5.5 9.5l-171 530z" />
    <glyph glyph-name="N" unicode="N" horiz-adv-x="582" 
d="M499 15q0 -9 -4 -12t-12 -3h-34q-18 0 -25 13l-200 399q-20 42 -41 84t-40 87q2 -48 2.5 -98.5t0.5 -95.5v-375q0 -14 -14 -14h-34q-14 0 -14 14v661q0 14 17 14h38q15 0 20 -11l198 -394q20 -40 42 -85t42 -90q-3 45 -4 93.5t-1 93.5v378q0 15 14 15h34q15 0 15 -15
v-659z" />
    <glyph glyph-name="O" unicode="O" horiz-adv-x="551" 
d="M502 349q0 -90 -17 -157t-47.5 -112t-72.5 -67.5t-92 -22.5q-108 0 -165.5 88.5t-57.5 263.5q0 87 16.5 153.5t46.5 112.5t72.5 69.5t94.5 23.5q56 0 97.5 -24.5t69.5 -70t41.5 -110.5t13.5 -147zM429 346q0 146 -36.5 222t-115.5 76q-37 0 -66 -21t-48.5 -59.5
t-29.5 -94t-10 -124.5q0 -147 37 -223t115 -76q73 0 113.5 77t40.5 223z" />
    <glyph glyph-name="P" unicode="P" horiz-adv-x="444" 
d="M150 320h53q61 0 97 38t36 125q0 47 -11 76.5t-29.5 46.5t-44 23.5t-54.5 6.5h-47v-316zM150 14q0 -14 -15 -14h-37q-14 0 -14 14v661q0 14 16 14h98q55 0 97 -14t68 -48q40 -52 40 -141q0 -56 -14.5 -97t-41 -68t-62.5 -40.5t-79 -13.5h-56v-253z" />
    <glyph glyph-name="Q" unicode="Q" horiz-adv-x="559" 
d="M502 350q0 -50 -7.5 -100t-23.5 -94t-40 -79t-58 -56q20 -8 34 -21t31 -29q15 -14 31 -23.5t35 -17.5q13 -5 10 -16l-8 -26q-3 -11 -16 -8q-27 6 -50.5 19t-46.5 36q-21 21 -35 32.5t-26.5 17t-27 6.5t-36.5 1q-59 0 -100 27.5t-67.5 75t-38.5 111.5t-12 137t14 138
t42.5 114t71.5 77.5t102 28.5q60 0 102 -27.5t69 -75.5t39 -112t12 -136zM429 347q0 55 -6.5 108t-23.5 95t-46 68t-75 26q-44 0 -73.5 -26.5t-47.5 -69t-25.5 -95.5t-7.5 -107q0 -56 6.5 -109.5t24 -95.5t47 -67.5t75.5 -25.5q43 0 72 26t47 68t25.5 95.5t7.5 109.5z" />
    <glyph glyph-name="R" unicode="R" horiz-adv-x="464" 
d="M150 14q0 -14 -14 -14h-38q-14 0 -14 14v660q0 8 2.5 11.5t13.5 3.5h112q95 0 146 -46t51 -153q0 -36 -9.5 -67.5t-26 -56.5t-39 -43t-49.5 -26l139 -281q3 -6 1.5 -11t-9.5 -5h-42q-10 0 -13.5 2.5t-7.5 9.5l-129 276h-74v-274zM216 340q56 0 90 36.5t34 113.5
q0 42 -9.5 70t-27 45t-42.5 24t-56 7h-55v-296h66z" />
    <glyph glyph-name="S" unicode="S" horiz-adv-x="427" 
d="M66 13q-8 3 -9.5 6.5t0.5 11.5l10 32q4 13 19 7q26 -9 53 -15t53 -6q22 0 44 6.5t39 21t27.5 38t10.5 58.5q0 49 -22 78.5t-54 52.5l-96 68q-42 29 -64.5 68.5t-22.5 94.5q0 41 14 72t38 52t57 31.5t71 10.5q32 0 59.5 -6.5t52.5 -17.5q12 -6 8 -17l-9 -28q-4 -13 -20 -6
q-23 9 -46.5 14t-41.5 5q-47 0 -79.5 -25t-32.5 -82q0 -45 20 -72.5t44 -44.5l86 -60q23 -16 42.5 -33.5t34 -39t23 -48t8.5 -61.5q0 -48 -14.5 -84t-40 -59t-60.5 -34.5t-76 -11.5q-30 0 -63 6t-63 17z" />
    <glyph glyph-name="T" unicode="T" horiz-adv-x="445" 
d="M254 14q0 -14 -15 -14h-36q-15 0 -15 14v620h-153q-13 0 -13 12v32q0 11 14 11h376q16 0 14 -11l-4 -32q-1 -12 -15 -12h-153v-620z" />
    <glyph glyph-name="U" unicode="U" horiz-adv-x="576" 
d="M497 294q0 -71 -10.5 -127.5t-35 -95.5t-66 -60t-102.5 -21q-63 0 -102.5 21.5t-62 61.5t-30.5 97.5t-8 130.5v374q0 14 15 14h36q15 0 15 -15v-364q0 -59 4.5 -107.5t19 -83.5t42.5 -54t76 -19q46 0 74.5 19t43.5 54t20 83.5t5 107.5v365q0 14 16 14h35q15 0 15 -15
v-380z" />
    <glyph glyph-name="V" unicode="V" horiz-adv-x="494" 
d="M255 72q15 69 31.5 140.5t33.5 138.5l81 324q3 14 16 14h37q17 0 12 -15l-172 -660q-3 -14 -19 -14h-42q-9 0 -13.5 3.5t-6.5 10.5l-183 658q-5 17 13 17h40q14 0 17 -13l85 -324q18 -68 36 -139.5t34 -140.5z" />
    <glyph glyph-name="W" unicode="W" horiz-adv-x="737" 
d="M374 616q-8 -54 -17.5 -110.5t-20.5 -110.5l-74 -381q-3 -14 -17 -14h-47q-14 0 -17 15l-143 659q-2 5 1 10t11 5h38q17 0 19 -13l78 -391q11 -56 20.5 -111t17.5 -107q8 53 18 109t20 110l73 391q3 12 19 12h45q6 0 11 -2t7 -9l74 -391q11 -54 20.5 -110t17.5 -107
q8 53 17.5 108t20.5 110l78 388q2 13 16 13h36q8 0 10.5 -4.5t1.5 -9.5l-141 -662q-3 -13 -17 -13h-50q-14 0 -17 14l-71 382q-11 56 -20.5 111t-17.5 109z" />
    <glyph glyph-name="X" unicode="X" horiz-adv-x="464" 
d="M105 12q-6 -12 -20 -12h-40q-16 0 -8 15l160 343l-147 318q-3 6 0.5 9.5t10.5 3.5h42q14 0 19 -11l113 -256l112 256q2 5 6 8t13 3h39q6 0 10 -3.5t0 -11.5l-148 -310l162 -347q5 -8 1.5 -12.5t-11.5 -4.5h-43q-15 0 -21 13l-125 284z" />
    <glyph glyph-name="Y" unicode="Y" horiz-adv-x="439" 
d="M258 15q0 -15 -16 -15h-34q-10 0 -13 4t-3 12v248l-163 410q-2 5 0.5 10t10.5 5h39q14 0 19 -12l48 -127q21 -55 41.5 -112t39.5 -113q18 55 38.5 114t40.5 114l45 123q4 13 18 13h35q8 0 9.5 -4.5t-0.5 -10.5l-155 -410v-249z" />
    <glyph glyph-name="Z" unicode="Z" horiz-adv-x="436" 
d="M70 634q-14 0 -14 13v30q0 5 2.5 8.5t10.5 3.5h312q16 0 16 -11v-16q0 -6 -2 -12t-5 -13l-270 -582h263q16 0 16 -13v-29q0 -6 -3 -9.5t-12 -3.5h-327q-15 0 -15 12v12q0 8 1 13.5t5 13.5l270 583h-248z" />
    <glyph glyph-name="a" unicode="a" horiz-adv-x="458" 
d="M319 373q-18 34 -44 51t-52 17q-51 0 -79.5 -52.5t-28.5 -150.5q0 -88 25.5 -142t76.5 -54q19 0 37 9t32 25q11 12 18.5 26t14.5 31v240zM386 0q-17 0 -27 2.5t-20 11.5q-8 8 -12 21t-4 25v5q-5 -9 -11 -18t-15 -18q-16 -16 -40 -27.5t-54 -11.5q-39 0 -68 18.5t-47.5 51
t-28 77t-9.5 95.5q0 39 7 85t25.5 85t51 65t83.5 26q28 0 56.5 -14t50.5 -45l2 38q1 8 4.5 9.5t13.5 1.5h24q13 0 13 -13v-393q0 -20 5 -27.5t16 -7.5h4q10 0 10 -10v-21q0 -11 -13 -11h-17z" />
    <glyph glyph-name="b" unicode="b" horiz-adv-x="457" 
d="M137 438q24 28 55 41.5t62 13.5q42 0 71.5 -18.5t48.5 -51.5t28 -78t9 -98q0 -52 -9.5 -98.5t-29.5 -82t-51.5 -56t-75.5 -20.5q-38 0 -65.5 16.5t-47.5 42.5v-35q0 -14 -15 -14h-27q-15 0 -15 14v676q0 13 11 15l36 7q15 3 15 -11v-263zM137 108q17 -29 44 -49t54 -20
q31 0 52.5 16.5t35 44.5t19 64t5.5 75q0 42 -5 79t-17.5 64.5t-33.5 43.5t-52 16q-24 0 -53.5 -16.5t-48.5 -45.5v-272z" />
    <glyph glyph-name="c" unicode="c" horiz-adv-x="366" 
d="M110 243q0 -40 5.5 -76.5t20 -64.5t39.5 -44.5t63 -16.5q22 0 42.5 5t34.5 12q12 6 15 -5l7 -25q3 -10 -8 -15q-23 -12 -49 -17.5t-52 -5.5q-91 0 -137 65.5t-46 180.5q0 59 12 106.5t36 81t59 51.5t81 18q53 0 94 -19q9 -4 7 -15l-6 -26q-2 -10 -15 -5q-15 6 -34.5 10
t-38.5 4q-65 0 -97.5 -51t-32.5 -148z" />
    <glyph glyph-name="d" unicode="d" horiz-adv-x="458" 
d="M322 690q0 13 11 15l36 7q15 3 15 -11v-687q0 -14 -15 -14h-26q-15 0 -15 14v39q-45 -63 -124 -63q-41 0 -71 19t-49 52.5t-28 78.5t-9 97q0 41 7.5 86.5t27 83t53.5 62t86 24.5q32 0 56.5 -13t44.5 -39v249zM322 378q-17 29 -41 46.5t-55 17.5q-57 0 -85.5 -53.5
t-28.5 -147.5q0 -42 5.5 -78.5t18.5 -63.5t32.5 -43t48.5 -16q33 0 60.5 18.5t44.5 47.5v272z" />
    <glyph glyph-name="e" unicode="e" horiz-adv-x="418" 
d="M111 235q0 -41 7.5 -76.5t23.5 -62t41.5 -41.5t61.5 -15q23 0 46 5.5t41 14.5q12 6 16 -5l7 -23q3 -10 -7 -16q-23 -13 -54.5 -19.5t-60.5 -6.5q-94 0 -140 66t-46 187q0 56 12 102t35 79t56 51t76 18q38 0 66 -15.5t46 -43.5t26.5 -67.5t8.5 -86.5v-28q0 -17 -20 -17
h-242zM315 279v22q0 30 -5 56.5t-16.5 45.5t-29 30t-41.5 11q-30 0 -50.5 -14.5t-33.5 -37.5t-19.5 -53t-7.5 -60h203z" />
    <glyph glyph-name="f" unicode="f" horiz-adv-x="280" 
d="M252 483q8 0 10.5 -3t2.5 -8v-22q0 -11 -13 -11h-96v-425q0 -14 -20 -14h-27q-9 0 -12 3.5t-3 10.5v425h-44q-13 0 -13 11v21q0 8 3.5 10t9.5 2h44v35q0 37 4 73.5t18 65.5t39.5 47t69.5 18q17 0 36 -3.5t30 -8.5q10 -5 8 -13l-5 -24q-3 -11 -15 -8q-11 3 -23 5t-23 2
q-23 0 -38 -9.5t-23.5 -27.5t-12 -43t-3.5 -55v-54h96z" />
    <glyph glyph-name="g" unicode="g" horiz-adv-x="456" 
d="M322 53q-20 -22 -50 -39t-67 -17q-41 0 -71 18.5t-49.5 51.5t-29 77.5t-9.5 96.5q0 51 10.5 97t31.5 80.5t52.5 54.5t72.5 20q38 0 65 -16t49 -41v37q1 10 12 10h33q12 0 12 -11v-451q0 -51 -6.5 -95t-25.5 -76.5t-53 -51.5t-89 -19q-28 0 -60 7t-59 19q-12 6 -8 16
l10 26q4 11 17 5q49 -22 98 -22q38 0 60.5 14.5t34.5 38.5t15.5 56t3.5 68v46zM322 378q-19 29 -44 46.5t-54 17.5t-50 -15t-35 -41.5t-20.5 -62.5t-6.5 -77q0 -33 4.5 -68t16 -64t32.5 -47.5t54 -18.5q28 0 56 17.5t47 45.5v267z" />
    <glyph glyph-name="h" unicode="h" horiz-adv-x="460" 
d="M137 14q0 -14 -14 -14h-34q-14 0 -14 14v676q0 13 11 15l36 7q15 3 15 -11v-266q29 26 61 42t71 16q37 0 61 -14t37.5 -37.5t18.5 -54.5t5 -66v-307q0 -14 -14 -14h-34q-13 0 -13 14v293q0 22 -2 45t-10 42.5t-23.5 32t-43.5 12.5q-29 0 -58.5 -15t-55.5 -41v-369z" />
    <glyph glyph-name="i" unicode="i" horiz-adv-x="210" 
d="M144 612q0 -18 -11.5 -28.5t-27.5 -10.5t-27.5 10t-11.5 29t11.5 29t27.5 10q17 0 28 -10.5t11 -28.5zM75 469q0 14 14 14h33q9 0 11.5 -3.5t2.5 -10.5v-455q0 -6 -2.5 -10t-10.5 -4h-34q-9 0 -11.5 4t-2.5 10v455z" />
    <glyph glyph-name="j" unicode="j" horiz-adv-x="220" 
d="M151 612q0 -18 -11.5 -28.5t-27.5 -10.5q-15 0 -27 9.5t-12 29.5q0 19 11.5 29t27.5 10t27.5 -10.5t11.5 -28.5zM81 469q0 14 13 14h34q14 0 14 -14v-455q0 -46 -4 -88.5t-19 -75t-43 -52t-76 -19.5q-9 0 -23 2t-22 5q-9 4 -8 13l5 26q2 12 13 9q16 -4 36 -4
q29 0 45 16.5t24 42t9.5 56.5t1.5 60v464z" />
    <glyph glyph-name="k" unicode="k" horiz-adv-x="388" 
d="M75 689q0 13 11 15l36 7q15 3 15 -11v-427l144 202q4 5 7 6.5t11 1.5h34q16 0 8 -13l-134 -184l156 -271q5 -9 1 -12t-18 -3h-30q-11 0 -16.5 4.5t-8.5 10.5l-123 224l-31 -43v-182q0 -14 -14 -14h-34q-14 0 -14 14v675z" />
    <glyph glyph-name="l" unicode="l" horiz-adv-x="211" 
d="M75 690q0 13 11 15l36 7q15 3 15 -11v-687q0 -6 -2.5 -10t-10.5 -4h-35q-9 0 -11.5 4t-2.5 10v676z" />
    <glyph glyph-name="m" unicode="m" horiz-adv-x="689" 
d="M137 14q0 -14 -14 -14h-34q-14 0 -14 14v456q0 13 14 13h30q13 0 13 -11l2 -39q29 32 61.5 46t64.5 14q33 0 60.5 -13.5t45.5 -47.5q32 33 65.5 47t69.5 14q65 0 92 -45.5t27 -124.5v-309q0 -14 -14 -14h-34q-14 0 -14 14v294q0 28 -3 52t-11.5 42t-23.5 28.5t-39 10.5
q-56 0 -104 -51q3 -19 4 -37.5t1 -38.5v-300q0 -14 -13 -14h-34q-15 0 -15 14v293q0 27 -3 51.5t-11 43t-23.5 29t-39.5 10.5q-29 0 -56 -16.5t-50 -42.5v-368z" />
    <glyph glyph-name="n" unicode="n" horiz-adv-x="460" 
d="M137 15q0 -15 -14 -15h-34q-14 0 -14 14v456q0 13 14 13h29q14 0 14 -14l2 -36q30 29 62.5 44.5t72.5 15.5q37 0 61 -13t37.5 -36t18.5 -54t5 -67v-309q0 -14 -14 -14h-34q-13 0 -13 14v294q0 22 -2 45.5t-9.5 42.5t-23 31t-43.5 12q-29 0 -59.5 -16t-55.5 -42v-366z" />
    <glyph glyph-name="o" unicode="o" horiz-adv-x="448" 
d="M112 245q0 -39 4.5 -76.5t17 -66t34 -46t55.5 -17.5q33 0 55 16.5t35.5 44.5t19 64.5t5.5 76.5q0 39 -5 76t-17.5 65t-34 45t-54.5 17q-34 0 -56.5 -16.5t-35.5 -44t-18 -63.5t-5 -75zM47 244q0 52 10.5 97.5t33 79.5t56 53t80.5 19q49 0 82.5 -19t54 -52.5t29.5 -79.5
t9 -100q0 -53 -10.5 -99t-32.5 -80t-56 -53.5t-81 -19.5q-49 0 -82.5 19.5t-54 54t-29.5 81t-9 99.5z" />
    <glyph glyph-name="p" unicode="p" horiz-adv-x="460" 
d="M137 -195q0 -15 -15 -15h-32q-15 0 -15 15v666q0 12 15 12h25q15 0 15 -13l2 -37q25 28 55.5 44t68.5 16q41 0 70.5 -19t49 -52t28.5 -77t9 -95q0 -59 -11 -106.5t-32.5 -82t-52.5 -53t-71 -18.5q-35 0 -62 13.5t-47 36.5v-235zM137 104q17 -28 42.5 -46t57.5 -18
q27 0 48 15t35 42t21 64.5t7 83.5q0 40 -6 76t-18.5 63t-32.5 42.5t-48 15.5q-30 0 -57 -17.5t-49 -46.5v-274z" />
    <glyph glyph-name="q" unicode="q" horiz-adv-x="459" 
d="M328 471q1 5 4 8.5t11 3.5h26q16 0 16 -13v-663q0 -17 -15 -17h-33q-14 0 -14 15v239q-52 -54 -120 -54q-40 0 -69.5 19t-48.5 52t-28.5 78t-9.5 98q0 51 10 97.5t30.5 82t52 56t75.5 20.5q38 0 65.5 -16t47.5 -41v35zM323 378q-20 30 -46.5 47t-55.5 17
q-30 0 -50.5 -16.5t-33.5 -44t-19 -63t-6 -73.5q0 -41 5.5 -78t17.5 -65t32 -44.5t50 -16.5t58 17.5t48 43.5v276z" />
    <glyph glyph-name="r" unicode="r" horiz-adv-x="286" 
d="M137 14q0 -14 -14 -14h-34q-14 0 -14 14v456q0 13 15 13h28q14 0 14 -12l2 -36q19 29 44 43.5t54 14.5h12.5t12.5 -2q9 -3 7 -13l-4 -34q-2 -7 -11 -7q-5 0 -9.5 1t-15.5 1q-26 0 -48.5 -18.5t-38.5 -46.5v-360z" />
    <glyph glyph-name="s" unicode="s" horiz-adv-x="336" 
d="M125 246q-32 19 -54 48.5t-22 74.5q0 31 11 54.5t29.5 39t43.5 23t53 7.5q23 0 47 -5t43 -14q8 -4 5 -13l-8 -24q-3 -10 -13 -6q-17 8 -33.5 12t-34.5 4q-40 0 -61 -19t-21 -53q0 -32 15.5 -50.5t37.5 -31.5l49 -30q36 -21 60.5 -53t24.5 -78q0 -67 -41 -104.5
t-108 -37.5q-26 0 -54 6.5t-45 16.5q-11 6 -7 15l9 25q2 6 7 6.5t10 -1.5q20 -10 40.5 -15t37.5 -5q42 0 66.5 22.5t24.5 64.5q0 36 -18.5 57t-44.5 36z" />
    <glyph glyph-name="t" unicode="t" horiz-adv-x="298" 
d="M148 150q0 -26 1.5 -46.5t8 -35t19.5 -22t35 -7.5q11 0 22 2t22 5q10 3 13 -6l5 -23q3 -9 -7 -14q-14 -6 -32.5 -9.5t-38.5 -3.5q-34 0 -55.5 10t-32.5 28q-14 22 -18 51.5t-4 73.5v287h-41q-14 0 -14 11v22q0 10 13 10h42v121q0 11 12 13l36 7q14 3 14 -12v-129h93
q12 0 12 -10v-22q0 -11 -12 -11h-93v-290z" />
    <glyph glyph-name="u" unicode="u" horiz-adv-x="454" 
d="M318 469q0 14 14 14h35q13 0 13 -14v-456q0 -13 -14 -13h-32q-10 0 -12 11v40q-26 -26 -58 -43.5t-74 -17.5q-37 0 -60 14t-36.5 37.5t-18.5 54.5t-5 65v309q0 13 13 13h34q14 0 14 -13v-295q0 -22 2 -45.5t9.5 -43t23.5 -32t43 -12.5q29 0 58 17t51 43v367z" />
    <glyph glyph-name="v" unicode="v" horiz-adv-x="372" 
d="M189 71q14 65 30.5 132.5t32.5 129.5l35 138q2 7 5.5 9.5t12.5 2.5h33q13 0 10 -14l-128 -458q-3 -11 -16 -11h-33q-8 0 -11 2.5t-5 7.5l-132 460q-4 13 10 13h40q13 0 16 -11l36 -137q16 -60 33 -129t31 -135z" />
    <glyph glyph-name="w" unicode="w" horiz-adv-x="575" 
d="M404 58q8 46 18 96t21 99l46 218q2 5 4.5 8.5t10.5 3.5h33q7 0 8.5 -3.5t0.5 -8.5l-107 -459q-2 -12 -16 -12h-40q-9 0 -12 3t-5 9l-51 245q-9 42 -17 83t-13 77q-5 -36 -13 -77t-16 -83l-50 -246q-1 -11 -16 -11h-41q-8 0 -11 3t-5 9l-106 458q-4 13 11 13h36
q11 0 14 -12l46 -219q11 -49 19.5 -99.5t16.5 -96.5q14 90 35 196l45 220q2 11 15 11h42q13 0 15 -10l46 -221q10 -48 19 -98.5t17 -95.5z" />
    <glyph glyph-name="x" unicode="x" horiz-adv-x="387" 
d="M100 11q-6 -11 -21 -11h-36q-14 0 -7 14l128 238l-111 217q-7 14 8 14h39q14 0 20 -12l79 -168l82 169q5 11 19 11h33q8 0 9.5 -4.5t-1.5 -9.5l-114 -210l125 -243q3 -6 2 -11t-10 -5h-41q-14 0 -19 12l-91 195z" />
    <glyph glyph-name="y" unicode="y" horiz-adv-x="393" 
d="M33 468q-2 6 0 10.5t10 4.5h37q9 0 12 -3.5t5 -9.5l53 -196q14 -53 28 -109.5t26 -112.5q12 56 25.5 112t27.5 109l50 197q2 7 5.5 10t12.5 3h32q8 0 10.5 -4t0.5 -9l-147 -529q-12 -44 -27 -75t-34 -50.5t-43.5 -28t-56.5 -8.5q-9 0 -18.5 1.5t-15.5 3.5q-9 4 -8 14
l4 24q2 8 5 9.5t8 0.5q6 -1 13 -2t14 -1q31 0 56 19.5t38 64.5l19 66z" />
    <glyph glyph-name="z" unicode="z" horiz-adv-x="335" 
d="M292 43q11 0 11 -10v-23q0 -10 -11 -10h-245q-13 0 -13 11v11q0 14 7 28l189 390h-166q-8 0 -10 2.5t-2 8.5v21q0 11 12 11h225q8 0 10 -3t2 -7v-11q0 -11 -6 -23l-192 -396h189z" />
    <glyph glyph-name="ampersand" unicode="&#x26;" horiz-adv-x="567" 
d="M513 409q-4 -74 -22.5 -145t-58.5 -137q29 -36 55 -56.5t49 -29.5q10 -4 7 -13l-9 -30q-3 -11 -16 -7q-68 21 -122 89q-33 -39 -78 -64t-99 -25q-36 0 -67.5 13t-54.5 36.5t-36 57t-13 74.5q0 61 27.5 111t83.5 98l23 20l-26 38q-26 38 -38.5 68.5t-12.5 62.5q0 27 9 51
t26 42t40.5 28.5t52.5 10.5q58 0 92 -36t34 -92q0 -29 -8.5 -53t-23 -45t-33.5 -40.5t-40 -37.5l144 -224q29 51 43.5 109.5t19.5 124.5q1 7 3.5 9t10.5 2h25q13 0 13 -10zM210 357q-98 -74 -98 -177q0 -69 33.5 -103t81.5 -34q38 0 73.5 19.5t62.5 59.5zM227 441
q29 26 52 57t23 73q0 39 -17.5 62t-50.5 23q-29 0 -49 -22.5t-20 -57.5q0 -30 16 -61.5t46 -73.5z" />
    <glyph glyph-name="at" unicode="@" horiz-adv-x="679" 
d="M434 498q1 9 11 9h25q10 0 9 -9l-31 -177q-3 -16 -6.5 -38.5t-3.5 -37.5q0 -21 8 -35.5t28 -14.5q22 0 41 15.5t33 42.5t22 63.5t8 77.5q0 62 -14.5 111.5t-41.5 83.5t-65 52t-85 18q-57 0 -103.5 -27.5t-79 -74.5t-50.5 -109t-18 -130q0 -70 16.5 -123.5t47 -89.5
t73 -54.5t94.5 -18.5q39 0 71 8.5t58 22.5q11 5 15 -4l6 -16q2 -5 1 -7.5t-6 -6.5q-22 -14 -62.5 -26t-87.5 -12q-70 0 -123 23.5t-89 66.5t-54.5 102.5t-18.5 130.5q0 84 23.5 155t65 122.5t98 81t121.5 29.5q56 0 103 -20.5t80.5 -59t52.5 -94t19 -126.5
q0 -49 -11.5 -92.5t-32.5 -76.5t-50 -52t-63 -19q-31 0 -48 19.5t-17 49.5q-17 -33 -39 -49t-46 -16q-43 0 -68 36t-25 99q0 41 9.5 80.5t27.5 71t44 50.5t59 19q16 0 35.5 -9.5t28.5 -37.5zM418 419q-4 31 -17 47t-33 16q-21 0 -37.5 -15t-27.5 -39.5t-17 -56t-6 -64.5
q0 -43 12 -70t34 -27t41.5 25t30.5 67z" />
    <glyph glyph-name="exclam" unicode="!" horiz-adv-x="223" 
d="M154 32q0 -20 -12 -31t-29 -11q-18 0 -30.5 11t-12.5 31t12 31t31 11q17 0 29 -11t12 -31zM79 675q0 14 14 14h38q9 0 12 -3.5t3 -10.5l-8 -511q0 -14 -15 -14h-20q-9 0 -12 3t-3 11z" />
    <glyph glyph-name="exclamdown" unicode="&#xa1;" horiz-adv-x="222" 
d="M70 452q0 20 12 31t29 11q18 0 30 -11t12 -31t-11.5 -31t-30.5 -11q-17 0 -29 11t-12 31zM144 -192q0 -14 -13 -14h-39q-14 0 -14 14l8 512q0 14 14 14h21q15 0 15 -14z" />
    <glyph glyph-name="question" unicode="?" horiz-adv-x="370" 
d="M90 626q-12 -7 -16 3l-10 27q-3 9 7 15q20 13 49 21.5t58 8.5q64 0 104.5 -37.5t40.5 -112.5q0 -29 -5.5 -52.5t-15.5 -44.5t-24.5 -40.5t-32.5 -40.5q-14 -16 -27.5 -32.5t-23.5 -34.5t-16 -39t-6 -46q0 -9 1 -16l2 -14q0 -6 -3 -7.5t-9 -1.5h-29q-7 0 -9 2.5t-3 6.5
q-2 8 -2.5 17t-0.5 17q0 28 6 51.5t16.5 43.5t24 37.5t28.5 34.5q15 18 28 34.5t22.5 34.5t15 38.5t5.5 46.5q0 56 -27 80t-63 24q-26 0 -47.5 -7t-37.5 -17zM188 32q0 -20 -12 -31t-29 -11q-18 0 -30 11t-12 31t12 31t30 11q17 0 29 -11t12 -31z" />
    <glyph glyph-name="questiondown" unicode="&#xbf;" horiz-adv-x="370" 
d="M281 -141q12 7 16 -3l10 -27q3 -9 -7 -15q-20 -13 -49 -21.5t-58 -8.5q-64 0 -104.5 37.5t-40.5 112.5q0 29 5.5 52.5t15.5 44.5t24.5 40.5t32.5 40.5q14 16 27.5 32.5t23.5 34.5t16 38.5t6 46.5q0 9 -1 16l-2 14q0 6 3 7.5t9 1.5h29q7 0 9 -2.5t3 -6.5q2 -8 2.5 -17
t0.5 -17q0 -29 -6 -52t-16.5 -43t-24 -37.5t-28.5 -34.5q-15 -18 -28 -34.5t-22.5 -34.5t-15 -38.5t-5.5 -46.5q0 -56 27 -80t63 -24q26 0 47.5 7t37.5 17zM183 453q0 20 12 31t29 11q18 0 30 -11t12 -31t-12 -31t-30 -11q-17 0 -29 11t-12 31z" />
    <glyph glyph-name="asterisk" unicode="*" horiz-adv-x="289" 
d="M255 602q6 -13 -10 -16l-82 -18l65 -66q11 -11 -1 -21l-19 -15q-12 -11 -19 3l-44 84l-40 -84q-6 -16 -18 -6l-22 17q-10 11 -1 21l63 67l-84 16q-14 1 -9 15l10 27q5 13 17 6l73 -43l-13 98q-2 14 12 14h24q7 0 11 -2.5t2 -10.5l-14 -99l71 44q6 4 11 3.5t9 -8.5l8 -26
v0z" />
    <glyph glyph-name="period" unicode="." horiz-adv-x="197" 
d="M146 33q0 -20 -11.5 -31.5t-30.5 -11.5q-20 0 -31.5 11t-11.5 32t11.5 32t31.5 11q18 0 30 -11.5t12 -31.5z" />
    <glyph glyph-name="comma" unicode="," horiz-adv-x="196" 
d="M150 29q0 -42 -18.5 -81t-50.5 -67q-4 -3 -7.5 -4t-8.5 4l-6 7q-6 5 2 13q30 32 30 70q0 13 -4.5 23t-10 19t-10 18t-4.5 20q0 19 11.5 30t28.5 11q20 0 34 -18t14 -45z" />
    <glyph glyph-name="colon" unicode=":" horiz-adv-x="197" 
d="M146 36q0 -20 -11.5 -31.5t-30.5 -11.5q-20 0 -31.5 11t-11.5 32t11.5 32t31.5 11q18 0 30 -11.5t12 -31.5zM146 447q0 -20 -11.5 -31.5t-30.5 -11.5q-20 0 -31.5 11t-11.5 32t11.5 32.5t31.5 11.5q18 0 30 -11.5t12 -32.5z" />
    <glyph glyph-name="semicolon" unicode=";" horiz-adv-x="198" 
d="M150 29q0 -42 -18.5 -81t-50.5 -67q-9 -7 -15 -1l-7 8q-5 6 2 13q30 32 30 70q0 13 -4.5 23t-10 19t-10 18t-4.5 20q0 19 11.5 30t28.5 11q20 0 34 -18t14 -45zM150 447q0 -20 -12 -31.5t-30 -11.5q-20 0 -32 11t-12 32t12 32.5t32 11.5q18 0 30 -11.5t12 -32.5z" />
    <glyph glyph-name="ellipsis" unicode="&#x2026;" horiz-adv-x="561" 
d="M146 33q0 -20 -11.5 -31.5t-30.5 -11.5q-20 0 -31.5 11t-11.5 32t11.5 32t31.5 11q18 0 30 -11.5t12 -31.5zM328 33q0 -20 -11.5 -31.5t-30.5 -11.5q-20 0 -31.5 11t-11.5 32t11.5 32t31.5 11q18 0 30 -11.5t12 -31.5zM510 33q0 -20 -11.5 -31.5t-30.5 -11.5
q-20 0 -31.5 11t-11.5 32t11.5 32t31.5 11q18 0 30 -11.5t12 -31.5z" />
    <glyph glyph-name="periodcentered" unicode="&#xb7;" horiz-adv-x="201" 
d="M143 265q0 -20 -11.5 -31.5t-30.5 -11.5t-31 11t-12 32t12 32t31 11t30.5 -11t11.5 -32z" />
    <glyph glyph-name="uni22C5" unicode="&#x22c5;" horiz-adv-x="201" 
d="M143 265q0 -20 -11.5 -31.5t-30.5 -11.5t-31 11t-12 32t12 32t31 11t30.5 -11t11.5 -32z" />
    <glyph glyph-name="bullet" unicode="&#x2022;" horiz-adv-x="416" 
d="M341 267q0 -34 -9.5 -62t-27 -48.5t-42 -32t-53.5 -11.5t-53.5 11.5t-42 32t-27.5 48.5t-10 62q0 33 10 61.5t27.5 49t42 32t53.5 11.5t53.5 -11.5t42 -32t27 -48.5t9.5 -62z" />
    <glyph glyph-name="slash" unicode="/" horiz-adv-x="296" 
d="M261 701q13 0 9 -14l-177 -685q-2 -8 -5 -10t-10 -2h-34q-13 0 -8 14l177 685q2 6 5 9t11 3h32v0z" />
    <glyph glyph-name="parenleft" unicode="(" horiz-adv-x="292" 
d="M65 292q0 117 30 219.5t86 197.5q7 10 18 5l22 -12q10 -4 3 -16q-48 -88 -73.5 -185t-25.5 -210q0 -109 26 -205t75 -187q5 -10 -2 -15l-26 -14q-9 -6 -16 4q-54 92 -85.5 195.5t-31.5 222.5z" />
    <glyph glyph-name="brokenbar" unicode="&#xa6;" horiz-adv-x="197" 
d="M128 464q0 -13 -15 -13h-26q-16 0 -16 13v233q0 12 15 12h27q15 0 15 -12v-233zM128 -4q0 -13 -15 -13h-26q-16 0 -16 13v232q0 12 15 12h27q15 0 15 -12v-232z" />
    <glyph glyph-name="parenright" unicode=")" horiz-adv-x="292" 
d="M228 292q0 -121 -32.5 -222t-84.5 -196q-7 -10 -16 -4l-26 14q-9 4 -2 15q52 88 76 185.5t24 206.5q0 115 -24.5 211t-74.5 184q-6 10 4 16l21 12q11 7 18 -5q57 -95 87 -197t30 -220z" />
    <glyph glyph-name="bracketleft" unicode="[" horiz-adv-x="280" 
d="M236 -98q9 0 11.5 -3t2.5 -9v-21q0 -6 -2.5 -9.5t-11.5 -3.5h-126q-11 0 -14 2.5t-3 13.5v812q0 11 3.5 14t13.5 3h125q10 0 12.5 -3.5t2.5 -10.5v-20q0 -8 -2.5 -10.5t-11.5 -2.5h-82v-752h82z" />
    <glyph glyph-name="backslash" unicode="\" horiz-adv-x="300" 
d="M36 689q-5 16 12 16h29q8 0 11.5 -2.5t5.5 -10.5l177 -691q3 -14 -11 -14h-30q-13 0 -16 11z" />
    <glyph glyph-name="bracketright" unicode="]" horiz-adv-x="281" 
d="M45 654q-10 0 -12 2.5t-2 8.5v22q0 7 2 10.5t13 3.5h126q11 0 13.5 -3t2.5 -14v-813q0 -10 -3 -12.5t-13 -2.5h-127q-10 0 -12 3.5t-2 9.5v20q0 8 2 10.5t12 2.5h82v752h-82z" />
    <glyph glyph-name="braceleft" unicode="{" horiz-adv-x="291" 
d="M83 285q66 -14 67 -151l2 -132q0 -14 2 -30.5t8 -30.5t17 -23t30 -9h30q8 0 10 -2t3 -6l3 -25q0 -8 -11 -8h-34q-58 0 -87 30.5t-31 100.5l-3 157q-1 53 -9.5 79.5t-33.5 31.5q-12 3 -12 12v14q0 10 10 11q25 5 34.5 33t10.5 73l3 163q3 131 118 131h35q12 0 11 -10
l-4 -24q-1 -7 -11 -7h-32q-18 0 -29.5 -9t-17.5 -23t-8 -30t-2 -31l-2 -137q-1 -63 -16.5 -103t-50.5 -45z" />
    <glyph glyph-name="bar" unicode="|" horiz-adv-x="199" 
d="M72 697q0 15 14 15h29q14 0 14 -15v-703q0 -14 -14 -14h-28q-15 0 -15 14v703z" />
    <glyph glyph-name="braceright" unicode="}" horiz-adv-x="291" 
d="M209 287q-66 14 -67 151l-2 132q0 14 -2 30.5t-8 30.5t-17 23t-30 9h-30q-8 0 -10 2t-3 6l-3 25q-1 8 11 8h34q58 0 87 -30.5t31 -100.5l3 -157q1 -53 9.5 -79.5t33.5 -31.5q12 -3 12 -12v-14q0 -10 -10 -11q-25 -5 -34.5 -33t-10.5 -73l-3 -163q-3 -131 -118 -131h-35
q-12 0 -11 10l4 24q1 7 11 7h32q18 0 29 9t17 23t8.5 30t2.5 31l2 137q1 63 16.5 103t50.5 45z" />
    <glyph glyph-name="hyphen" unicode="-" horiz-adv-x="254" 
d="M201 247q0 -16 -16 -16h-115q-10 0 -13 3.5t-3 11.5v32q0 6 3 9.5t12 3.5h115q17 0 17 -15v-29z" />
    <glyph glyph-name="uni00AD" unicode="&#xad;" horiz-adv-x="254" 
d="M201 247q0 -16 -16 -16h-115q-10 0 -13 3.5t-3 11.5v32q0 6 3 9.5t12 3.5h115q17 0 17 -15v-29z" />
    <glyph glyph-name="endash" unicode="&#x2013;" horiz-adv-x="515" 
d="M508 245q0 -13 -13 -13h-475q-12 0 -12 13v35q0 13 12 13h475q13 0 13 -13v-35z" />
    <glyph glyph-name="emdash" unicode="&#x2014;" horiz-adv-x="1015" 
d="M1008 245q0 -13 -13 -13h-975q-12 0 -12 13v35q0 13 12 13h975q13 0 13 -13v-35z" />
    <glyph glyph-name="underscore" unicode="_" horiz-adv-x="413" 
d="M393 -81q13 0 13 -13v-15q0 -9 -3 -11.5t-10 -2.5h-372q-13 0 -13 12v20q0 10 13 10h372z" />
    <glyph glyph-name="dagger" unicode="&#x2020;" horiz-adv-x="437" 
d="M380 400q0 -9 -14 -9l-118 2l-4 -382q0 -5 -2 -8t-10 -3h-27q-11 0 -11 12l-4 381l-119 -2q-9 0 -11 1.5t-2 6.5v34q0 9 13 9l119 -3l-2 238q0 8 3 10t10 2h36q12 0 12 -11l-1 -239l118 3q14 0 14 -9v-33z" />
    <glyph glyph-name="daggerdbl" unicode="&#x2021;" horiz-adv-x="438" 
d="M378 453q0 -8 -13 -8l-116 2l-2 -147l104 3q13 0 13 -8v-35q0 -8 -13 -8l-104 2l-2 -244q0 -6 -2.5 -8t-10.5 -2h-26q-8 0 -10 2.5t-2 8.5l-2 243l-103 -2q-10 0 -11.5 1.5t-1.5 6.5v34q0 9 13 9l103 -3l-1 147l-116 -2q-10 0 -12 1.5t-2 6.5v34q0 9 14 9l116 -2l-2 183
q0 12 13 12h36q12 0 12 -12l-1 -183l116 2q13 0 13 -8v-35z" />
    <glyph glyph-name="section" unicode="&#xa7;" horiz-adv-x="404" 
d="M336 337q0 -35 -13.5 -62.5t-33.5 -45.5q18 -17 30.5 -42t12.5 -55q0 -69 -39.5 -105.5t-107.5 -36.5q-24 0 -53.5 6t-46.5 17q-11 6 -7 17l7 23q4 12 18 5q20 -10 42 -15t39 -5q41 0 64.5 21t23.5 64q0 21 -6 35.5t-16 25.5t-22 19t-24 15l-51 29q-34 20 -54 48.5
t-20 72.5q0 38 15 64t39 41q-23 18 -36.5 44.5t-13.5 59.5q0 31 11 54.5t29.5 39t43 23t51.5 7.5q11 0 24.5 -1.5t26.5 -4.5t24.5 -7t18.5 -10q8 -6 5 -14l-7 -22q-4 -13 -15 -6q-17 8 -37 12.5t-37 4.5q-37 0 -57 -18.5t-20 -55.5q0 -30 13.5 -47.5t36.5 -31.5l56 -33
q34 -20 60 -51t26 -79zM247 260q16 10 22.5 30t6.5 39q0 32 -15.5 54.5t-47.5 40.5l-34 19q-19 -8 -30 -24.5t-11 -41.5q0 -35 13.5 -52.5t39.5 -32.5z" />
    <glyph glyph-name="paragraph" unicode="&#xb6;" horiz-adv-x="445" 
d="M241 642v-770q0 -14 -14 -14h-33q-15 0 -15 14v509q-59 5 -93 46.5t-34 107.5q0 33 10 61.5t28.5 49t44.5 32t57 11.5h151q16 0 16 -14v-805q0 -12 -13 -12h-22q-8 0 -10.5 3t-2.5 9v772h-70z" />
    <glyph glyph-name="registered" unicode="&#xae;" horiz-adv-x="810" 
d="M759 349q0 -73 -28 -137t-76 -112t-112 -75.5t-137 -27.5q-74 0 -138.5 27.5t-112.5 75.5t-75.5 112t-27.5 137t27.5 137.5t75.5 112.5t112.5 75.5t138.5 27.5q73 0 137 -27.5t112 -75.5t76 -112.5t28 -137.5zM710 349q0 64 -23.5 120t-65 97.5t-97 65.5t-118.5 24
q-64 0 -119.5 -24t-97 -65.5t-65 -97.5t-23.5 -120q0 -63 23.5 -119t65 -97.5t97 -65.5t119.5 -24q63 0 118.5 24t97 65.5t65 97.5t23.5 119zM541 158q7 -12 -6 -12h-24q-5 0 -8.5 2t-7.5 9l-86 155h-61v-158q0 -8 -6 -8h-28q-8 0 -8 8v381q0 9 10 9h79q61 0 99 -26.5
t38 -88.5q0 -40 -22.5 -69t-60.5 -42zM490 429q0 48 -27 66t-72 18h-43v-170h51q38 0 64.5 21t26.5 65z" />
    <glyph glyph-name="copyright" unicode="&#xa9;" horiz-adv-x="810" 
d="M759 349q0 -73 -28 -137t-76 -112t-112 -75.5t-137 -27.5q-74 0 -138.5 27.5t-112.5 75.5t-75.5 112t-27.5 137t27.5 137.5t75.5 112.5t112.5 75.5t138.5 27.5q73 0 137 -27.5t112 -75.5t76 -112.5t28 -137.5zM710 349q0 64 -23.5 120t-65 97.5t-97 65.5t-118.5 24
q-64 0 -119.5 -24t-97 -65.5t-65 -97.5t-23.5 -120q0 -63 23.5 -119t65 -97.5t97 -65.5t119.5 -24q63 0 118.5 24t97 65.5t65 97.5t23.5 119zM523 526q7 -4 4 -10l-7 -19q-2 -7 -9 -3q-19 11 -41.5 15.5t-44.5 4.5q-33 0 -57.5 -14t-40.5 -37.5t-23.5 -53.5t-7.5 -61
q0 -34 7 -65t23 -55t40.5 -38t59.5 -14q43 0 84 18q3 2 7 1.5t6 -5.5l5 -12q3 -9 -3 -12q-17 -11 -46.5 -18t-58.5 -7q-42 0 -74 16t-53 43.5t-31.5 65t-10.5 79.5q0 41 11.5 78.5t33.5 65.5t54 44.5t73 16.5q27 0 52.5 -5.5t47.5 -18.5z" />
    <glyph glyph-name="trademark" unicode="&#x2122;" horiz-adv-x="591" 
d="M549 376q0 -9 -10 -9h-23q-10 0 -10 10l-5 219l-69 -221q-3 -8 -11 -8h-16q-8 0 -11 8l-75 222l-4 -221q0 -9 -10 -9h-22q-10 0 -10 10l11 301q0 11 11 11h19q8 0 13 -9l88 -250l80 250q3 9 13 9h19q10 0 10 -9zM161 377q0 -10 -10 -10h-25q-10 0 -10 9v277h-74
q-9 0 -9 8v20q0 3 1.5 5.5t8.5 2.5h195q11 0 9 -9l-2 -19q-1 -8 -10 -8h-74v-276z" />
    <glyph glyph-name="quotedblleft" unicode="&#x201c;" horiz-adv-x="311" 
d="M48 548q0 42 18.5 80.5t50.5 67.5q4 2 7.5 3.5t8.5 -3.5l6 -7q4 -8 -2 -14q-30 -30 -30 -69q0 -13 4.5 -23t10 -19t10 -18.5t4.5 -19.5q0 -19 -11.5 -30t-28.5 -11q-20 0 -34 18t-14 45zM175 548q0 42 18.5 80.5t50.5 67.5q4 2 7.5 3.5t8.5 -3.5l6 -7q4 -8 -2 -14
q-30 -30 -30 -69q0 -13 4.5 -23t10 -19t10 -18.5t4.5 -19.5q0 -19 -11.5 -30t-28.5 -11q-20 0 -34 18t-14 45z" />
    <glyph glyph-name="quotedblright" unicode="&#x201d;" horiz-adv-x="311" 
d="M264 636q0 -42 -18.5 -80.5t-50.5 -67.5q-4 -2 -7.5 -3.5t-8.5 3.5l-6 7q-5 7 2 14q30 30 30 69q0 13 -4.5 23t-10 19t-10 18t-4.5 20q0 19 11.5 30t28.5 11q20 0 34 -18t14 -45zM137 636q0 -42 -18.5 -80.5t-50.5 -67.5q-4 -2 -7.5 -3.5t-8.5 3.5l-6 7q-5 7 2 14
q30 30 30 69q0 13 -4.5 23t-10 19t-10 18t-4.5 20q0 19 11.5 30t28.5 11q20 0 34 -18t14 -45z" />
    <glyph glyph-name="quoteleft" unicode="&#x2018;" horiz-adv-x="184" 
d="M48 548q0 42 18.5 80.5t50.5 67.5q4 2 7.5 3.5t8.5 -3.5l6 -7q4 -8 -2 -14q-30 -30 -30 -69q0 -13 4.5 -23t10 -19t10 -18.5t4.5 -19.5q0 -19 -11.5 -30t-28.5 -11q-20 0 -34 18t-14 45z" />
    <glyph glyph-name="quoteright" unicode="&#x2019;" horiz-adv-x="184" 
d="M137 635q0 -42 -18.5 -80.5t-50.5 -67.5q-4 -2 -7.5 -3.5t-8.5 3.5l-6 7q-5 7 2 14q30 30 30 69q0 13 -4.5 23t-10 19t-10 18t-4.5 20q0 19 11.5 30t28.5 11q20 0 34 -18t14 -45z" />
    <glyph glyph-name="guillemotleft" unicode="&#xab;" horiz-adv-x="399" 
d="M202 83q5 -7 -3 -12l-21 -12q-8 -5 -13 4l-87 153q-7 12 1 24l84 148q2 4 6.5 6t9.5 -1l21 -12q7 -4 2 -15l-66 -137zM336 83q5 -7 -3 -12l-21 -12q-8 -5 -13 4l-87 153q-7 12 1 24l84 148q2 4 6.5 6t9.5 -1l21 -12q7 -4 2 -15l-66 -137z" />
    <glyph glyph-name="guillemotright" unicode="&#xbb;" horiz-adv-x="399" 
d="M131 229l-66 137q-5 11 2 15l21 12q5 3 9.5 1t6.5 -6l84 -148q8 -12 1 -24l-87 -153q-5 -9 -13 -4l-21 12q-8 5 -3 12zM264 229l-66 137q-5 11 2 15l21 12q5 3 9.5 1t6.5 -6l84 -148q8 -12 1 -24l-87 -153q-5 -9 -13 -4l-21 12q-8 5 -3 12z" />
    <glyph glyph-name="guilsinglleft" unicode="&#x2039;" horiz-adv-x="266" 
d="M202 83q2 -5 1.5 -7.5t-4.5 -4.5l-21 -12q-8 -5 -13 4l-87 153q-7 12 1 24l84 148q2 4 6.5 6t9.5 -1l21 -12q7 -4 2 -15l-66 -137z" />
    <glyph glyph-name="guilsinglright" unicode="&#x203a;" horiz-adv-x="266" 
d="M131 229l-66 137q-5 11 2 15l21 12q5 3 9.5 1t6.5 -6l84 -148q8 -12 1 -24l-87 -153q-5 -9 -13 -4l-21 12q-4 2 -4.5 4.5t1.5 7.5z" />
    <glyph glyph-name="quotesinglbase" unicode="&#x201a;" horiz-adv-x="184" 
d="M137 29q0 -42 -18.5 -80.5t-50.5 -67.5q-4 -2 -7.5 -3.5t-8.5 3.5l-6 7q-5 7 2 14q30 30 30 69q0 13 -4.5 23t-10 19t-10 18t-4.5 20q0 19 11.5 30t28.5 11q20 0 34 -18t14 -45z" />
    <glyph glyph-name="quotedblbase" unicode="&#x201e;" horiz-adv-x="311" 
d="M264 29q0 -42 -18.5 -80.5t-50.5 -67.5q-4 -2 -7.5 -3.5t-8.5 3.5l-6 7q-5 7 2 14q30 30 30 69q0 13 -4.5 23t-10 19t-10 18t-4.5 20q0 19 11.5 30t28.5 11q20 0 34 -18t14 -45zM137 29q0 -42 -18.5 -80.5t-50.5 -67.5q-4 -2 -7.5 -3.5t-8.5 3.5l-6 7q-5 7 2 14
q30 30 30 69q0 13 -4.5 23t-10 19t-10 18t-4.5 20q0 19 11.5 30t28.5 11q20 0 34 -18t14 -45z" />
    <glyph glyph-name="ordfeminine" unicode="&#xaa;" horiz-adv-x="305" 
d="M205 474q-20 0 -40.5 -2t-36.5 -8.5t-26 -18t-10 -30.5q0 -23 13.5 -32t36.5 -9q20 0 35 8t28 23v69zM208 369q-13 -14 -30.5 -22.5t-46.5 -8.5q-42 0 -66.5 17t-24.5 57q0 31 15 49t39 27.5t53.5 12.5t58.5 3v16q0 26 -10 43t-44 17q-37 0 -74 -18q-11 -5 -16 4l-7 15
q-4 9 6 16q17 12 45.5 17t48.5 5q57 0 78.5 -22.5t21.5 -74.5v-167q0 -12 -12 -12h-19q-13 0 -14 12z" />
    <glyph glyph-name="ordmasculine" unicode="&#xba;" horiz-adv-x="318" 
d="M287 479q0 -60 -33 -100.5t-96 -40.5q-32 0 -56 11t-39.5 29.5t-23 44.5t-7.5 56t8.5 55.5t24.5 44t40 29.5t55 11q65 0 96 -39t31 -101zM234 478q0 19 -4 38t-12.5 33t-22.5 23t-35 9t-35.5 -9t-23.5 -23t-13 -32t-4 -37q0 -20 3.5 -38.5t12.5 -33t23 -23.5t35 -9
t35.5 8.5t23.5 22.5t13 32.5t4 38.5z" />
    <glyph glyph-name="zero" unicode="0" 
d="M425 347q0 -66 -9.5 -130t-31.5 -114.5t-58.5 -81.5t-90.5 -31q-55 0 -91 30.5t-57.5 80.5t-30.5 113.5t-9 129.5t9.5 130t31.5 114.5t59 81.5t91 31t90 -30.5t57.5 -80.5t30.5 -113.5t9 -129.5zM357 347q0 51 -5.5 104t-19 96.5t-36.5 71t-59 27.5q-37 0 -60.5 -27.5
t-37.5 -70.5t-19.5 -96.5t-5.5 -104.5q0 -53 5.5 -106.5t19.5 -96.5t37.5 -70t60.5 -27q36 0 59.5 27.5t37 71t18.5 96.5t5 105z" />
    <glyph glyph-name="one" unicode="1" 
d="M130 532q-5 -4 -10.5 -3.5t-9.5 6.5l-14 22q-6 11 4 19l136 104q6 5 13 7t18 2h23q15 0 15 -14v-661q0 -14 -14 -14h-35q-15 0 -15 14v602z" />
    <glyph glyph-name="two" unicode="2" 
d="M384 57q15 0 15 -13v-29q0 -9 -3.5 -12t-11.5 -3h-298q-11 0 -14.5 3.5t-3.5 11.5v27q0 14 10 27q27 34 50.5 63.5t44 56.5t38.5 52.5t36 51.5q37 55 62 111t25 111q0 63 -30 96t-84 33q-29 0 -55.5 -8.5t-49.5 -22.5q-15 -8 -20 5l-10 25q-4 11 8 18q31 19 66 29.5
t74 10.5q76 0 120.5 -44.5t44.5 -130.5q0 -38 -8.5 -74.5t-25.5 -75t-43.5 -80t-62.5 -90.5q-25 -34 -54 -71t-63 -78h243z" />
    <glyph glyph-name="three" unicode="3" 
d="M158 383q0 14 16 14h16q52 0 85.5 29.5t33.5 98.5q0 64 -31 92.5t-79 28.5q-22 0 -46.5 -5.5t-45.5 -17.5q-15 -9 -20 4l-10 26q-4 12 7 18q26 14 57.5 22t66.5 8t65 -10t52.5 -30.5t35 -51t12.5 -71.5q0 -56 -22.5 -100.5t-70.5 -62.5q51 -14 82 -62t31 -116
q0 -48 -14 -86.5t-39 -65.5t-59 -41t-74 -14q-35 0 -67 6.5t-58 20.5q-5 3 -8.5 7t-0.5 12l10 30q5 12 21 5q23 -11 47 -17.5t50 -6.5q58 0 92 37.5t34 112.5q0 40 -10.5 68.5t-28.5 46.5t-42 26t-51 8h-21q-16 0 -16 13v24z" />
    <glyph glyph-name="four" unicode="4" 
d="M342 14q0 -14 -14 -14h-32q-9 0 -11.5 3.5t-2.5 10.5v154h-207q-11 0 -14 4t-3 12v23q0 9 1 17.5t6 20.5l150 430q2 7 6 10.5t13 3.5h36q17 0 11 -17l-160 -448h161v151q0 14 15 14h30q15 0 15 -14v-151h87q15 0 15 -13v-28q0 -9 -3.5 -12t-11.5 -3h-87v-154z" />
    <glyph glyph-name="five" unicode="5" 
d="M171 420q50 0 93 -9t74.5 -33t49.5 -65.5t18 -106.5q0 -106 -54 -161t-145 -55q-12 0 -29 2t-35 6t-35 10t-29 13q-14 7 -8 20l12 27q3 7 9 7t12 -3q28 -14 53.5 -19.5t53.5 -5.5q27 0 50.5 9t41 28t27.5 48.5t10 71.5q0 52 -14 83.5t-37.5 49t-55.5 23.5t-68 6h-38
q-12 0 -15.5 4t-3.5 15v289q0 9 3 12t14 3h238q14 0 14 -14v-30q0 -13 -14 -13h-192v-212z" />
    <glyph glyph-name="six" unicode="6" 
d="M136 368q26 29 60.5 43t65.5 14q69 0 113 -52t44 -152q0 -50 -11.5 -92t-34 -73t-54.5 -48.5t-72 -17.5q-52 0 -86.5 23.5t-55.5 64.5t-30 96.5t-9 120.5q0 43 4 89.5t14.5 91.5t28 86t44 72t62.5 49t85 18q16 0 35.5 -2t33.5 -7q13 -4 10 -15l-6 -29q-3 -12 -17 -8
t-29 5.5t-26 1.5q-29 0 -52 -11t-41 -30t-31 -44.5t-22 -53.5q-11 -34 -16 -72.5t-7 -67.5zM133 309q0 -45 3 -92t15 -86t35 -63.5t63 -24.5q30 0 50 16.5t33 42t18.5 57t5.5 60.5q0 27 -5.5 54.5t-18 49t-33 35t-49.5 13.5q-32 0 -62 -17t-55 -45z" />
    <glyph glyph-name="seven" unicode="7" 
d="M107 632q-15 0 -15 14v29q0 14 14 14h285q17 0 17 -14v-26q0 -14 -6 -32l-217 -603q-5 -14 -23 -14h-33q-17 0 -11 17l225 615h-236z" />
    <glyph glyph-name="eight" unicode="8" 
d="M185 370q-52 32 -79 77.5t-27 99.5q0 36 12 65t32.5 49t48.5 30.5t61 10.5t61.5 -11t48.5 -31.5t31.5 -49t11.5 -64.5q0 -30 -8.5 -55t-22.5 -45.5t-32.5 -37.5t-38.5 -32q24 -15 47 -34.5t41 -44t28.5 -53.5t10.5 -63q0 -40 -11 -74.5t-33 -60.5t-55.5 -41t-78.5 -15
q-37 0 -68.5 11.5t-55 34t-36.5 56t-13 77.5q0 36 9.5 65.5t26.5 54t40 44.5t49 37zM235 402q36 26 61 56.5t25 83.5q0 50 -24 79t-66 29q-37 0 -62.5 -26.5t-25.5 -76.5q0 -29 8.5 -51.5t22 -40t30 -30.5t31.5 -23zM233 342q-20 -14 -39 -29.5t-34.5 -35.5t-25 -45.5
t-9.5 -58.5q0 -34 9.5 -58.5t25.5 -40.5t36 -23.5t41 -7.5q20 0 39.5 7.5t35 23.5t25 41t9.5 61q0 34 -10 59.5t-25.5 45t-36 34t-41.5 27.5z" />
    <glyph glyph-name="nine" unicode="9" 
d="M336 321q-26 -26 -59.5 -40t-65.5 -14q-68 0 -112 51.5t-44 152.5q0 50 12 92.5t34 73t53.5 47.5t70.5 17q51 0 85.5 -23t55.5 -63.5t30 -96t9 -121.5q0 -64 -10 -135.5t-36 -132t-71.5 -100t-116.5 -39.5q-15 0 -36 2.5t-33 6.5q-13 4 -10 16l5 28q2 5 5.5 7.5t12.5 0.5
q13 -3 29 -5t27 -2q45 0 75.5 28.5t49.5 71t28 90.5t12 87zM339 381q0 46 -3 93.5t-15 86t-35 63t-62 24.5q-29 0 -49.5 -16t-33 -41.5t-18 -56.5t-5.5 -61q0 -27 5.5 -54.5t18 -49.5t32.5 -35.5t49 -13.5q32 0 61.5 17t54.5 44z" />
    <glyph glyph-name="dollar" unicode="$" 
d="M89 13q-8 3 -9.5 6.5t0.5 11.5l10 32q3 13 19 7q26 -9 53 -15t53 -6v287l-51 36q-41 29 -64 68.5t-23 94.5q0 70 39 110.5t99 51.5v88q0 7 3 8.5t8 1.5h26q10 0 10 -11v-83q30 -1 56.5 -7.5t50.5 -16.5q12 -6 8 -17l-9 -28q-2 -8 -7.5 -8.5t-12.5 2.5q-22 8 -45 13t-41 6
v-259l36 -25q23 -16 42.5 -33.5t34 -39t23 -48t8.5 -61.5q0 -83 -40.5 -128.5t-103.5 -56.5v-86q0 -7 -3 -8.5t-8 -1.5h-26q-10 0 -10 11v81q-30 0 -63 6t-63 17zM336 173q0 49 -21 77.5t-53 51.5v-246q31 10 52.5 37.5t21.5 79.5zM148 538q0 -45 20 -72.5t44 -44.5l3 -2
v219q-30 -9 -48.5 -33.5t-18.5 -66.5z" />
    <glyph glyph-name="cent" unicode="&#xa2;" 
d="M243 -8q-78 9 -117.5 73t-39.5 171q0 108 40 175.5t117 78.5v86q0 8 3 10t8 2h26q7 0 9.5 -2t2.5 -10v-84q43 -3 76 -18q10 -4 7 -15l-6 -26q-2 -6 -6 -6.5t-9 1.5q-14 5 -30 9t-32 5v-401q18 2 35 6.5t29 10.5t15 -5l7 -25q3 -10 -8 -15q-18 -10 -38 -15t-40 -7v-79
q0 -11 -11 -11h-26q-7 0 -9.5 2t-2.5 10v79zM151 243q0 -35 4 -67.5t14.5 -59t28.5 -45.5t45 -26v392q-46 -14 -69 -63.5t-23 -130.5z" />
    <glyph glyph-name="Euro" unicode="&#x20ac;" 
d="M363 402q5 0 9 -2t2 -8l-3 -25q-2 -7 -6 -8.5t-11 -1.5h-209q0 -17 0.5 -32t1.5 -32h184q5 0 9 -1.5t3 -8.5l-5 -25q-2 -6 -5 -8.5t-11 -2.5h-170q7 -44 19.5 -80.5t33 -62.5t49.5 -40.5t69 -14.5q24 0 50 6t49 20q5 3 10 2t8 -7l10 -28q2 -5 1 -9.5t-9 -9.5
q-30 -17 -61.5 -25t-67.5 -8q-53 0 -93.5 18.5t-69 52.5t-46.5 81.5t-26 104.5h-61q-8 0 -10 2.5t-2 9.5v23q0 6 2 8.5t10 2.5h56q-1 17 -1 31.5v32.5h-55q-12 0 -12 10v25q0 10 12 10h57q6 64 23.5 119t48 95t74 62.5t101.5 22.5q35 0 66.5 -8t56.5 -24q4 -2 6 -6t0 -11
l-11 -30q-2 -5 -7.5 -6.5t-11.5 2.5q-22 14 -46 19.5t-47 5.5q-46 0 -78 -19t-53 -52t-32.5 -77t-16.5 -93h216z" />
    <glyph glyph-name="florin" unicode="&#x192;" 
d="M379 379q11 0 11 -9v-25q0 -8 -10 -8h-102l-46 -320q-5 -37 -15 -73t-28.5 -64t-48.5 -45t-76 -17q-11 0 -27.5 3.5t-26.5 9.5q-9 5 -6 15l7 22q4 12 15 8q10 -4 21 -6.5t23 -2.5q25 0 42.5 10.5t29 29.5t18 45t11.5 58l47 327h-81q-11 0 -11 9v25q0 8 10 8h87l18 123
q5 35 14 70.5t27.5 64t48 46.5t74.5 18q15 0 30 -3.5t25 -8.5t7 -15l-7 -24q-3 -11 -17 -6q-11 4 -20.5 6t-20.5 2q-24 0 -41 -11t-28 -30t-18 -44.5t-11 -54.5l-20 -133h95z" />
    <glyph glyph-name="sterling" unicode="&#xa3;" 
d="M392 54q15 0 15 -12v-29q0 -13 -15 -13h-310q-15 0 -15 12v22q0 11 13 18q32 20 44.5 59.5t12.5 92.5v127h-41q-14 0 -14 11v26q0 11 14 11h41v107q0 49 9 89t28.5 68t50 43t72.5 15q21 0 45.5 -4.5t44.5 -12.5q5 -2 7.5 -5.5t0.5 -9.5l-8 -28q-3 -12 -16 -7
q-36 15 -70 15q-31 0 -50 -12t-30 -33t-15 -49.5t-4 -60.5v-115h125q13 0 13 -11v-26q0 -11 -13 -11h-126v-104q0 -24 -2 -49t-7.5 -48t-16 -43t-27.5 -33h244z" />
    <glyph glyph-name="yen" unicode="&#xa5;" 
d="M129 261q-14 0 -14 10v26q0 9 14 9h64l-149 367q-2 5 0 10.5t11 5.5h39q10 0 13.5 -3t6.5 -10l44 -115q21 -56 43 -116t42 -117q20 60 41.5 120t42.5 120l38 108q3 9 10 11t20 2h24q14 0 9 -14l-143 -369h70q14 0 14 -9v-26q0 -10 -14 -10h-79v-61h79q14 0 14 -9v-26
q0 -10 -14 -10h-79v-138q0 -17 -16 -17h-32q-11 0 -14.5 4t-3.5 12v139h-81q-8 0 -10.5 2.5t-2.5 8.5v24q0 10 13 10h81v61h-81z" />
    <glyph glyph-name="numbersign" unicode="#" 
d="M457 428q-2 -8 -13 -8h-78l-24 -168h81q12 0 11 -10l-3 -27q-1 -8 -12 -8h-85l-26 -195q-1 -6 -3 -9t-10 -3h-31q-12 0 -11 12l28 195h-123l-28 -195q-1 -6 -3.5 -9t-10.5 -3h-29q-12 0 -11 13l28 194h-81q-12 0 -11 10l4 27q1 8 13 8h82l24 168h-84q-12 0 -11 10l3 27
q1 9 13 9h86l29 213q2 10 10 10h34q12 0 10 -11l-29 -212h119l30 212q2 6 4 8.5t9 2.5h33q11 0 9 -10l-30 -213h80q11 0 10 -10zM165 252h123l23 168h-121z" />
    <glyph glyph-name="percent" unicode="%" horiz-adv-x="619" 
d="M446 690q5 11 18 11h32q14 0 7 -14l-326 -686q-5 -11 -18 -11h-32q-14 0 -7 14zM260 517q0 -32 -5.5 -63.5t-18.5 -57.5t-33 -42t-48 -16q-29 0 -49 16t-32.5 41.5t-18 57t-5.5 63.5q0 31 6 63t18.5 57.5t33 42t49.5 16.5t48.5 -16t31.5 -41.5t17.5 -57.5t5.5 -63z
M103 516q0 -21 2 -45t8 -44t16 -33.5t26 -13.5t26 13.5t16 34t8 44t2 44.5t-2 45t-8 44.5t-16 34t-26 13.5t-26 -13.5t-16 -34t-8 -44.5t-2 -45zM570 174q0 -32 -5.5 -63.5t-18.5 -57.5t-33 -42t-48 -16q-29 0 -49 16t-32.5 41.5t-18 57t-5.5 63.5q0 31 6 63t18.5 57.5
t33 42t49.5 16.5t48.5 -16t31.5 -41.5t17.5 -57.5t5.5 -63zM413 173q0 -21 2 -45t8 -44t16 -33.5t26 -13.5t26 13.5t16 34t8 44t2 44.5t-2 45t-8 44.5t-16 34t-26 13.5t-26 -13.5t-16 -34t-8 -44.5t-2 -45z" />
    <glyph glyph-name="perthousand" unicode="&#x2030;" horiz-adv-x="880" 
d="M446 690q5 11 18 11h32q14 0 7 -14l-326 -686q-5 -11 -18 -11h-32q-14 0 -7 14zM260 517q0 -32 -5.5 -63.5t-18.5 -57.5t-33 -42t-48 -16q-29 0 -49 16t-32.5 41.5t-18 57t-5.5 63.5q0 31 6 63t18.5 57.5t33 42t49.5 16.5t48.5 -16t31.5 -41.5t17.5 -57.5t5.5 -63z
M103 516q0 -21 2 -45t8 -44t16 -33.5t26 -13.5t26 13.5t16 34t8 44t2 44.5t-2 45t-8 44.5t-16 34t-26 13.5t-26 -13.5t-16 -34t-8 -44.5t-2 -45zM570 174q0 -32 -5.5 -63.5t-18.5 -57.5t-33 -42t-48 -16q-29 0 -49 16t-32.5 41.5t-18 57t-5.5 63.5q0 31 6 63t18.5 57.5
t33 42t49.5 16.5t48.5 -16t31.5 -41.5t17.5 -57.5t5.5 -63zM413 173q0 -21 2 -45t8 -44t16 -33.5t26 -13.5t26 13.5t16 34t8 44t2 44.5t-2 45t-8 44.5t-16 34t-26 13.5t-26 -13.5t-16 -34t-8 -44.5t-2 -45zM831 174q0 -32 -5.5 -63.5t-18.5 -57.5t-33 -42t-48 -16
q-29 0 -49 16t-32.5 41.5t-18 57t-5.5 63.5q0 31 6 63t18.5 57.5t33 42t49.5 16.5t48.5 -16t31.5 -41.5t17.5 -57.5t5.5 -63zM674 173q0 -21 2 -45t8 -44t16 -33.5t26 -13.5t26 13.5t16 34t8 44t2 44.5t-2 45t-8 44.5t-16 34t-26 13.5t-26 -13.5t-16 -34t-8 -44.5t-2 -45z
" />
    <glyph glyph-name="plus" unicode="+" 
d="M395 371q9 0 11.5 -3t2.5 -9v-28q0 -13 -12 -13h-131v-148q0 -8 -3.5 -10t-9.5 -2h-33q-12 0 -12 12v148h-131q-9 0 -11.5 3t-2.5 9v28q0 13 15 13h130v145q0 14 14 14h29q15 0 15 -13v-146h129z" />
    <glyph glyph-name="minus" unicode="&#x2212;" 
d="M362 333q0 -17 -18 -17h-218q-16 0 -16 15v31q0 13 16 13h218q18 0 18 -16v-26z" />
    <glyph glyph-name="multiply" unicode="&#xd7;" 
d="M326 487q10 10 19 1l21 -21q10 -11 2 -19l-93 -101l93 -103q7 -11 -1 -19l-22 -21q-9 -9 -17 0l-93 100l-92 -99q-10 -10 -19 0l-21 22q-9 8 0 17l93 102l-94 102q-10 12 0 20l23 22q8 8 18 -1l93 -100z" />
    <glyph glyph-name="less" unicode="&#x3c;" 
d="M347 203q5 -4 7 -8.5t-2 -9.5l-23 -30q-9 -11 -19 -3l-204 171q-8 6 -8 16v14q0 10 8 16l203 170q12 10 21 -2l21 -25q5 -5 2.5 -11.5t-6.5 -9.5l-176 -145z" />
    <glyph glyph-name="divide" unicode="&#xf7;" 
d="M380 372q16 0 16 -11v-33q0 -12 -16 -12h-290q-14 0 -14 12v33q0 11 14 11h290zM280 515q0 -21 -12 -33t-32 -12t-32 11.5t-12 33.5t12 33t32 11q19 0 31.5 -11.5t12.5 -32.5zM280 179q0 -21 -12 -33t-32 -12t-32 11.5t-12 33.5t12 33t32 11q19 0 31.5 -11.5t12.5 -32.5z
" />
    <glyph glyph-name="equal" unicode="=" 
d="M364 245q0 -13 -14 -13h-229q-8 0 -10.5 3.5t-2.5 9.5v28q0 5 2.5 8.5t10.5 3.5h229q14 0 14 -12v-28zM364 421q0 -13 -14 -13h-229q-8 0 -10.5 3.5t-2.5 9.5v27q0 6 2.5 9.5t10.5 3.5h229q14 0 14 -13v-27z" />
    <glyph glyph-name="logicalnot" unicode="&#xac;" 
d="M90 389q-14 0 -14 11v29q0 11 14 11h276q9 0 12.5 -2.5t3.5 -10.5v-156q0 -13 -15 -13h-27q-14 0 -14 13v118h-236z" />
    <glyph glyph-name="greater" unicode="&#x3e;" 
d="M125 491q-5 4 -7 9.5t3 11.5l21 25q5 6 10.5 6t10.5 -4l203 -170q8 -6 8 -16v-14q0 -10 -8 -16l-203 -170q-11 -10 -19 1l-23 30q-5 6 -3 10.5t7 8.5l176 143z" />
    <glyph glyph-name="notequal" unicode="&#x2260;" 
d="M397 241q0 -13 -14 -13h-184l-41 -90q-4 -8 -9 -8t-12 3l-14 6q-11 5 -5 19l32 70h-62q-13 0 -13 13v28q0 5 2.5 8.5t10.5 3.5h88l61 138h-149q-13 0 -13 13v28q0 5 2.5 8.5t10.5 3.5h175l39 86q3 6 8 8.5t13 -1.5l14 -6q7 -3 7.5 -8t-1.5 -10l-31 -69h71q14 0 14 -12
v-28q0 -13 -14 -13h-96l-62 -138h158q14 0 14 -12v-28z" />
    <glyph glyph-name="approxequal" unicode="&#x2248;" 
d="M261 454q11 -9 22.5 -14.5t24.5 -5.5q17 0 36 10.5t29 31.5q5 11 16 4l18 -11q7 -5 2 -17q-16 -34 -44.5 -51t-57.5 -17q-37 0 -69 24l-29 21q-13 10 -23.5 15t-24.5 5q-19 0 -36 -11t-28 -33q-6 -10 -15 -4l-17 11q-9 6 -3 17q16 35 44 52.5t58 17.5q18 0 35.5 -6.5
t32.5 -17.5zM261 261q11 -9 22.5 -14.5t24.5 -5.5q17 0 36 10.5t29 31.5q5 11 16 4l18 -11q7 -5 2 -17q-16 -34 -44.5 -51t-57.5 -17q-37 0 -69 24l-29 21q-13 10 -23.5 15t-24.5 5q-19 0 -36 -11t-28 -33q-6 -10 -15 -4l-17 11q-9 6 -3 17q16 35 44 52.5t58 17.5
q18 0 35.5 -6.5t32.5 -17.5z" />
    <glyph glyph-name="plusminus" unicode="&#xb1;" 
d="M389 391q9 0 11.5 -3t2.5 -9v-25q0 -13 -12 -13h-126v-139q0 -12 -13 -12h-33q-11 0 -11 12v139h-125q-9 0 -12 3t-3 9v25q0 13 15 13h125v138q0 13 13 13h30q8 0 11 -2.5t3 -10.5v-138h124zM382 27q0 -13 -15 -13h-265q-14 0 -14 13v30q0 11 14 11h265q15 0 15 -11v-30z
" />
    <glyph glyph-name="lessequal" unicode="&#x2264;" 
d="M361 55q14 0 14 -12v-31q0 -12 -13 -12h-268q-13 0 -13 12v31q0 12 14 12h266zM354 208q10 -8 1 -19l-20 -26q-10 -11 -22 -2l-203 169q-8 7 -8 16v16q0 7 9 15l202 168q12 9 22 -2l20 -26q8 -10 -3 -19l-176 -145z" />
    <glyph glyph-name="greaterequal" unicode="&#x2265;" 
d="M378 55q14 0 14 -12v-31q0 -12 -13 -12h-268q-13 0 -13 12v31q0 12 14 12h266zM297 353l-176 145q-11 9 -3 19l20 26q10 11 22 2l202 -168q9 -8 9 -15v-16q0 -9 -8 -16l-203 -169q-12 -9 -22 2l-20 26q-9 11 1 19z" />
    <glyph glyph-name="asciicircum" unicode="^" 
d="M126 395q-6 -12 -18 -6l-28 15q-11 8 -4 20l138 255q6 10 15 10h21q10 0 14 -10l132 -261q6 -11 -4 -16l-31 -14q-11 -6 -18 6l-106 221z" />
    <glyph glyph-name="asciitilde" unicode="~" 
d="M66 329q-7 9 4 20q19 21 46 34.5t53 13.5q25 0 45.5 -8.5t37.5 -19.5q14 -10 28.5 -16.5t31.5 -6.5t30 9t30 27q9 9 18 -1l14 -17q4 -5 3.5 -9t-5.5 -10q-20 -25 -45 -39t-54 -14q-23 0 -41.5 8.5t-33.5 18.5t-31 17t-34 7q-32 0 -63 -33q-4 -4 -9.5 -4t-10.5 6z" />
    <glyph glyph-name="lozenge" unicode="&#x25ca;" horiz-adv-x="413" 
d="M100 337l107 -264l107 267l-106 265zM54 288q-5 13 -9.5 25t-4.5 21v9q0 9 5.5 21t10.5 24l125 298q2 5 5.5 8t11.5 3h22q12 0 17 -12l119 -285q5 -12 10.5 -24.5t5.5 -21.5v-16q0 -9 -4.5 -21.5t-9.5 -23.5l-125 -299q-5 -11 -16 -11h-22q-13 0 -18 12z" />
    <glyph glyph-name="degree" unicode="&#xb0;" horiz-adv-x="253" 
d="M208 606q0 -41 -23 -66.5t-58 -25.5t-58.5 26t-23.5 66t23.5 66.5t58.5 26.5t58 -26.5t23 -66.5zM172 606q0 26 -12.5 44t-32.5 18t-33 -18t-13 -44t13 -43.5t33 -17.5t32.5 17.5t12.5 43.5z" />
    <glyph glyph-name="quotesingle" unicode="'" horiz-adv-x="178" 
d="M62 688q0 13 13 13h30q12 0 12 -13l-2 -149q0 -8 -2 -11t-10 -3h-26q-13 0 -13 14z" />
    <glyph glyph-name="quotedbl" unicode="&#x22;" horiz-adv-x="287" 
d="M62 689q0 13 13 13h30q12 0 12 -13l-2 -150q0 -8 -2 -11t-10 -3h-26q-13 0 -13 14zM171 689q0 13 13 13h30q12 0 12 -13l-2 -150q0 -8 -2 -11t-10 -3h-26q-13 0 -13 14z" />
    <glyph glyph-name="radical" unicode="&#x221a;" horiz-adv-x="463" 
d="M29 430q-14 0 -14 11v30q0 8 3.5 10t10.5 2h83q14 0 17 -11l96 -378l157 602q3 13 16 13h30q14 0 11 -14l-188 -683q-3 -12 -16 -12h-26q-14 0 -17 11l-118 419h-45z" />
    <glyph glyph-name="currency" unicode="&#xa4;" 
d="M364 345q0 -18 -4.5 -38t-13.5 -36l51 -52q6 -6 5.5 -10.5t-6.5 -10.5l-14 -14q-11 -11 -21 0l-45 45q-17 -18 -38.5 -26t-41.5 -8t-41.5 8t-38.5 26l-45 -45q-11 -11 -21 0l-14 14q-11 11 -1 21l51 52q-9 16 -13.5 36t-4.5 38t4.5 38t13.5 36l-51 52q-6 6 -5.5 10.5
t6.5 10.5l14 14q6 6 10.5 6t10.5 -6l45 -45q17 18 38.5 26t41.5 8t41.5 -8t38.5 -26l45 45q6 6 10.5 6t10.5 -6l14 -14q6 -6 6.5 -10.5t-5.5 -10.5l-51 -52q9 -16 13.5 -36t4.5 -38zM311 345q0 44 -19.5 73t-55.5 29t-55.5 -29t-19.5 -73t19.5 -73t55.5 -29t55.5 29t19.5 73
z" />
    <glyph glyph-name="infinity" unicode="&#x221e;" horiz-adv-x="710" 
d="M357 385q34 44 73 71.5t93 27.5q62 0 101.5 -34t39.5 -104q0 -36 -11.5 -62.5t-31 -44t-45 -26t-53.5 -8.5q-23 0 -43 5t-39.5 17t-40 31t-43.5 46q-35 -44 -77 -73t-95 -29q-29 0 -54 9t-43.5 27t-29.5 44.5t-11 60.5q0 66 38 105t102 39q50 0 91 -27t79 -75zM392 345
q40 -45 67.5 -66t59.5 -21q38 0 62.5 24.5t24.5 62.5q0 46 -26.5 67t-60.5 21q-20 0 -37.5 -7.5t-33 -20t-29.5 -28.5t-27 -32zM322 345q-15 18 -30.5 34t-32 28t-34.5 19.5t-39 7.5q-37 0 -59 -23.5t-22 -65.5q0 -43 24.5 -65.5t61.5 -22.5q39 0 72.5 27t58.5 61z" />
    <glyph glyph-name="mu" unicode="&#x3bc;" horiz-adv-x="477" 
d="M391 -5q-26 0 -40.5 14t-20.5 42q-22 -26 -52 -43.5t-69 -17.5q-25 0 -42 6.5t-31 21.5v-169q0 -7 -3 -10t-13 -3h-29q-16 0 -16 12v623q0 12 15 12h32q15 0 15 -12v-296q0 -28 3 -52t12 -42t25 -28t42 -10q27 0 55 16.5t48 42.5v369q0 12 14 12h34q14 0 14 -12v-358
q0 -32 4.5 -48t17.5 -16q9 0 15 3q13 6 18 -5l8 -21q4 -12 -6 -17q-10 -6 -22.5 -10t-27.5 -4z" />
    <glyph glyph-name="uni00B5" unicode="&#xb5;" horiz-adv-x="477" 
d="M391 -5q-26 0 -40.5 14t-20.5 42q-22 -26 -52 -43.5t-69 -17.5q-25 0 -42 6.5t-31 21.5v-169q0 -7 -3 -10t-13 -3h-29q-16 0 -16 12v623q0 12 15 12h32q15 0 15 -12v-296q0 -28 3 -52t12 -42t25 -28t42 -10q27 0 55 16.5t48 42.5v369q0 12 14 12h34q14 0 14 -12v-358
q0 -32 4.5 -48t17.5 -16q9 0 15 3q13 6 18 -5l8 -21q4 -12 -6 -17q-10 -6 -22.5 -10t-27.5 -4z" />
    <glyph glyph-name="partialdiff" unicode="&#x2202;" horiz-adv-x="469" 
d="M120 202q0 -30 6 -59t19 -51t32 -35.5t46 -13.5q36 0 58.5 24.5t34.5 62.5t16.5 85t4.5 91q-26 34 -51 49.5t-54 15.5t-50 -14.5t-35 -38t-20.5 -54t-6.5 -62.5zM223 -10q-76 0 -120 58.5t-44 157.5q0 54 13 95t35 68.5t52 41.5t65 14q26 0 54 -11t58 -46q-3 59 -11 111
t-25.5 90.5t-45.5 61t-70 22.5q-20 0 -35.5 -5t-33.5 -14q-6 -3 -9.5 -1t-5.5 7l-11 25q-4 9 6 17q7 6 19 11t26.5 8.5t30 5.5t29.5 2q62 0 101 -35t60.5 -91t29.5 -125t8 -138q0 -30 -1.5 -65.5t-7.5 -72.5t-17.5 -71.5t-31 -61.5t-48.5 -43t-70 -16z" />
    <glyph glyph-name="summation" unicode="&#x2211;" horiz-adv-x="513" 
d="M467 -109q15 0 14 -11l-2 -33q0 -11 -15 -11h-416q-9 0 -11.5 3t-2.5 9v23q0 12 7 21l263 378l-264 362q-4 5 -5 9t-1 9v27q0 12 13 12h418q14 0 14 -12v-32q-1 -12 -16 -12h-344l233 -318q10 -13 10 -25v-16q0 -15 -10 -28l-247 -355h362z" />
    <glyph glyph-name="product" unicode="&#x220f;" horiz-adv-x="531" 
d="M422 633v-783q0 -14 -13 -14h-38q-9 0 -12 3t-3 12v782h-189v-783q0 -14 -14 -14h-38q-14 0 -14 14v783h-54q-8 0 -10.5 2.5t-2.5 8.5v34q0 11 13 11h438q15 0 13 -12l-4 -33q-1 -11 -15 -11h-57z" />
    <glyph glyph-name="pi" unicode="&#x3c0;" horiz-adv-x="474" 
d="M349 144q0 -53 7 -76t37 -23q18 0 34 8q5 2 10 2t7 -7l7 -22q2 -10 -9 -17q-12 -8 -30.5 -11.5t-32.5 -3.5q-29 0 -46.5 9.5t-27.5 28t-13.5 45.5t-3.5 63v296h-132v-423q0 -13 -14 -13h-32q-15 0 -15 13v423h-57q-15 0 -15 11v26q0 10 14 10h394q13 0 13 -10v-25
q0 -12 -16 -12h-79v-292z" />
    <glyph glyph-name="integral" unicode="&#x222b;" horiz-adv-x="300" 
d="M270 681q-1 -6 -3.5 -7.5t-9.5 -0.5q-5 1 -12 1.5t-16 0.5q-24 0 -39.5 -9.5t-24.5 -25t-12.5 -36.5t-3.5 -44q0 -72 11 -139.5t24 -135.5q12 -62 21 -125t9 -130q0 -35 -7.5 -64.5t-25 -51t-45 -33.5t-66.5 -12q-8 0 -17.5 1t-17.5 3q-10 2 -8 12l3 29q1 8 10 8
q5 0 13 -1.5t21 -1.5q44 0 62 31.5t18 79.5q0 62 -10 123t-21 124q-12 66 -22.5 134.5t-10.5 139.5q0 39 7 70t23 53t42 34.5t64 13.5q9 0 19.5 -1t20.5 -3q11 -2 9 -12z" />
    <glyph glyph-name="Omega" unicode="&#x3a9;" horiz-adv-x="577" 
d="M250 53q8 -4 10 -6t2 -6v-29q0 -12 -13 -12h-183q-16 0 -16 12v28q0 11 16 11h102q-54 40 -82 115t-28 182q0 83 17.5 148.5t49 111t74.5 69.5t94 24q53 0 95.5 -24.5t72 -70t45 -110t15.5 -144.5q0 -109 -32.5 -185t-86.5 -116h109q14 0 14 -11v-28q0 -12 -14 -12h-183
q-15 0 -15 12v29q0 8 13 12q30 9 53.5 34t40 63t25 88.5t8.5 110.5q0 146 -44 221t-118 75q-36 0 -67 -20t-53 -58t-34.5 -92.5t-12.5 -123.5q0 -125 31 -201.5t95 -96.5z" />
    <glyph glyph-name="Ohm" unicode="&#x2126;" horiz-adv-x="577" 
d="M250 53q8 -4 10 -6t2 -6v-29q0 -12 -13 -12h-183q-16 0 -16 12v28q0 11 16 11h102q-54 40 -82 115t-28 182q0 83 17.5 148.5t49 111t74.5 69.5t94 24q53 0 95.5 -24.5t72 -70t45 -110t15.5 -144.5q0 -109 -32.5 -185t-86.5 -116h109q14 0 14 -11v-28q0 -12 -14 -12h-183
q-15 0 -15 12v29q0 8 13 12q30 9 53.5 34t40 63t25 88.5t8.5 110.5q0 146 -44 221t-118 75q-36 0 -67 -20t-53 -58t-34.5 -92.5t-12.5 -123.5q0 -125 31 -201.5t95 -96.5z" />
    <glyph glyph-name="uni0394" unicode="&#x394;" horiz-adv-x="481" 
d="M203 674q4 15 21 15h40q17 0 21 -14l160 -595q3 -11 5.5 -23t2.5 -22v-18q0 -8 -3.5 -12.5t-16.5 -4.5h-384q-13 0 -16.5 4.5t-3.5 12.5v15q0 12 2.5 24.5t5.5 23.5zM95 55h288l-141 558z" />
    <glyph glyph-name="Delta" unicode="&#x2206;" horiz-adv-x="481" 
d="M203 674q4 15 21 15h40q17 0 21 -14l160 -595q3 -11 5.5 -23t2.5 -22v-18q0 -8 -3.5 -12.5t-16.5 -4.5h-384q-13 0 -16.5 4.5t-3.5 12.5v15q0 12 2.5 24.5t5.5 23.5zM95 55h288l-141 558z" />
    <glyph glyph-name="litre" unicode="&#x2113;" horiz-adv-x="386" 
d="M160 200q0 -87 17.5 -122.5t52.5 -35.5q29 0 51 20.5t40 52.5q6 13 19 3l18 -12q9 -8 4 -18q-25 -47 -61 -73t-83 -26q-34 0 -57 14.5t-36.5 39.5t-19.5 59.5t-6 75.5l-39 -31q-4 -3 -8 -1.5t-6 5.5l-13 24q-5 10 7 18q16 11 30 22.5t29 24.5v257q0 109 32.5 156t86.5 47
t80.5 -41t26.5 -111q0 -48 -11.5 -91t-33 -83t-52 -78t-68.5 -76v-20zM265 546q0 57 -14 80.5t-34 23.5q-23 0 -40.5 -32.5t-17.5 -106.5v-224q51 60 78.5 122t27.5 137z" />
    <glyph glyph-name="estimated" unicode="&#x212e;" horiz-adv-x="883" 
d="M194 336q-5 0 -5 -5v-193q0 -7 2.5 -12.5t6.5 -10.5q45 -48 108 -76.5t135 -28.5q77 0 142.5 32t111.5 86h58q-54 -63 -135.5 -101t-177.5 -38q-82 0 -154 28t-126 76t-85.5 113t-31.5 139t31.5 139t85.5 113t126 76t154 28t154 -28t125.5 -76t84.5 -113t31 -139v-9h-641
zM690 557q0 13 -10 23q-46 46 -107.5 73t-131.5 27q-72 0 -134 -27.5t-108 -75.5q-10 -10 -10 -25v-191q0 -5 5 -5h491q5 0 5 5v196z" />
    <glyph glyph-name="numero" unicode="&#x2116;" horiz-adv-x="798" 
d="M737 40q9 0 12 -2.5t3 -9.5v-15q0 -8 -3 -10.5t-12 -2.5h-176q-9 0 -12 2.5t-3 10.5v15q0 7 3 9.5t12 2.5h176zM590 242q0 -23 2.5 -44t9 -37t18 -25.5t29.5 -9.5q19 0 30.5 9.5t18 26t8.5 37t2 43.5q0 22 -3 42.5t-10 36.5t-18.5 26t-28.5 10q-18 0 -29 -10t-17.5 -26
t-9 -37t-2.5 -42zM541 241q0 30 6 58t19 49t33.5 33.5t49.5 12.5t49.5 -12.5t33.5 -33.5t19 -48.5t6 -58.5t-5.5 -58.5t-18.5 -48.5t-33.5 -33t-50.5 -12t-50.5 12t-33 33t-18.5 48.5t-6 58.5zM499 15q0 -9 -4 -12t-12 -3h-34q-18 0 -25 13l-200 399q-20 42 -41 84t-40 87
q2 -48 2.5 -98.5t0.5 -95.5v-375q0 -14 -14 -14h-34q-14 0 -14 14v661q0 14 17 14h38q15 0 20 -11l198 -394q20 -40 42 -85t42 -90q-3 45 -4 93.5t-1 93.5v378q0 15 14 15h34q15 0 15 -15v-659z" />
    <glyph glyph-name="fraction" unicode="&#x2044;" horiz-adv-x="90" 
d="M-87 2q-6 -11 -17 -11h-34q-6 0 -8.5 3.5t0.5 9.5l326 683q5 11 17 11h33q14 0 8 -13z" />
    <glyph glyph-name="onesuperior" unicode="&#xb9;" horiz-adv-x="305" 
d="M87 700q-12 -6 -17 4l-10 19q-7 10 4 15l85 52q5 3 10 5t12 2h22q12 0 12 -12v-321q0 -6 -2.5 -9t-10.5 -3h-26q-14 0 -14 12v277z" />
    <glyph glyph-name="twosuperior" unicode="&#xb2;" horiz-adv-x="305" 
d="M247 495q12 0 12 -11v-21q0 -5 -2 -8t-10 -3h-189q-11 0 -11 10v17q0 6 1.5 11.5t7.5 12.5l54 57q45 47 68 79t23 65q0 26 -15.5 40.5t-42.5 14.5q-18 0 -34.5 -5t-33.5 -16q-9 -6 -14 5l-9 17q-4 8 7 17q15 13 42 19.5t51 6.5q45 0 74.5 -23.5t29.5 -69.5
q0 -17 -4.5 -34.5t-15 -37t-28.5 -42t-44 -49.5l-25 -25t-29 -27h137z" />
    <glyph glyph-name="threesuperior" unicode="&#xb3;" horiz-adv-x="305" 
d="M198 640q30 -8 47 -31t17 -56q0 -48 -33 -77t-87 -29q-25 0 -48 4t-43 15q-10 6 -6 14l8 20q4 10 14 5q34 -15 68 -15q32 0 51 16.5t19 46.5q0 33 -23 48.5t-58 15.5h-14q-10 0 -10 10v19q0 10 10 10h15q30 0 48.5 13.5t18.5 42.5q0 25 -16.5 36.5t-42.5 11.5
q-29 0 -60 -16q-10 -5 -13 4l-7 19q-4 10 5 15q37 21 86 21q45 0 75 -22.5t30 -64.5q0 -26 -13.5 -46t-37.5 -30z" />
    <glyph glyph-name="onehalf" unicode="&#xbd;" horiz-adv-x="711" 
d="M64 591q-12 -6 -17 4l-10 19q-7 10 4 15l85 52q5 3 10 5t12 2h22q12 0 12 -12v-321q0 -6 -2.5 -9t-10.5 -3h-26q-14 0 -14 12v277zM649 43q12 0 12 -11v-21q0 -5 -2 -8t-10 -3h-189q-11 0 -11 10v17q0 6 1.5 11.5t7.5 12.5l54 57q45 47 68 79t23 65q0 26 -15.5 40.5
t-42.5 14.5q-18 0 -34.5 -5t-33.5 -16q-9 -6 -14 5l-9 17q-4 8 7 17q15 13 42 19.5t51 6.5q45 0 74.5 -23.5t29.5 -69.5q0 -17 -4.5 -34.5t-15 -37t-28.5 -42t-44 -49.5l-25 -25t-29 -27h137zM197 2q-6 -11 -17 -11h-34q-6 0 -8.5 3.5t0.5 9.5l326 683q5 11 17 11h33
q14 0 8 -13z" />
    <glyph glyph-name="onequarter" unicode="&#xbc;" horiz-adv-x="711" 
d="M64 591q-12 -6 -17 4l-10 19q-7 10 4 15l85 52q5 3 10 5t12 2h22q12 0 12 -12v-321q0 -6 -2.5 -9t-10.5 -3h-26q-14 0 -14 12v277zM610 12q0 -6 -2.5 -9t-10.5 -3h-26q-14 0 -14 12v66h-123q-13 0 -13 12v11q0 12 4 23t9 23l83 186q3 7 6.5 9.5t12.5 2.5h25q15 0 9 -14
l-94 -212h81v65q0 6 2.5 9t10.5 3h26q14 0 14 -12v-65h47q12 0 12 -11v-19q0 -5 -2 -8t-10 -3h-47v-66zM201 2q-6 -11 -17 -11h-34q-6 0 -8.5 3.5t0.5 9.5l326 683q5 11 17 11h33q14 0 8 -13z" />
    <glyph glyph-name="threequarters" unicode="&#xbe;" horiz-adv-x="711" 
d="M201 531q30 -8 47 -31t17 -56q0 -48 -33 -77t-87 -29q-25 0 -48 4t-43 15q-10 6 -6 14l8 20q4 10 14 5q34 -15 68 -15q32 0 51 16.5t19 46.5q0 33 -23 48.5t-58 15.5h-14q-10 0 -10 10v19q0 10 10 10h15q30 0 48.5 13.5t18.5 42.5q0 25 -16.5 36.5t-42.5 11.5
q-29 0 -60 -16q-10 -5 -13 4l-7 19q-4 10 5 15q37 21 86 21q45 0 75 -22.5t30 -64.5q0 -26 -13.5 -46t-37.5 -30zM619 12q0 -6 -2.5 -9t-10.5 -3h-26q-14 0 -14 12v66h-123q-13 0 -13 12v11q0 12 4 23t9 23l83 186q3 7 6.5 9.5t12.5 2.5h25q15 0 9 -14l-94 -212h81v65
q0 6 2.5 9t10.5 3h26q14 0 14 -12v-65h47q12 0 12 -11v-19q0 -5 -2 -8t-10 -3h-47v-66zM237 2q-6 -11 -17 -11h-34q-6 0 -8.5 3.5t0.5 9.5l326 683q5 11 17 11h33q14 0 8 -13z" />
    <glyph glyph-name="grave" unicode="`" horiz-adv-x="289" 
d="M89 701q5 7 11.5 7.5t12.5 -6.5l105 -102q9 -9 3 -17l-11 -13q-5 -6 -9 -6.5t-12 4.5l-118 87q-12 7 -4 18z" />
    <glyph glyph-name="acute" unicode="&#xb4;" horiz-adv-x="288" 
d="M182 701q13 13 24 -1l20 -26q9 -12 -7 -24l-112 -82q-7 -5 -11.5 -4.5t-9.5 6.5l-10 12q-8 10 5 22z" />
    <glyph glyph-name="dieresis" unicode="&#xa8;" horiz-adv-x="280" 
d="M105 659q0 -17 -11.5 -27.5t-25.5 -10.5q-16 0 -27 9.5t-11 28.5q0 18 10.5 28t27.5 10q15 0 26 -10t11 -28zM253 659q0 -17 -11 -27.5t-26 -10.5q-16 0 -27 9.5t-11 28.5q0 18 10.5 28t27.5 10q15 0 26 -10t11 -28z" />
    <glyph glyph-name="circumflex" unicode="&#x2c6;" horiz-adv-x="270" 
d="M58 568q-3 -3 -7 -4t-9 4l-14 14q-6 6 1 13l85 104q6 7 17 7h13q10 0 15 -6l83 -103q6 -8 1 -14l-14 -14q-7 -8 -16 1l-76 74z" />
    <glyph glyph-name="tilde" unicode="&#x2dc;" horiz-adv-x="266" 
d="M258 664q2 -3 3 -7.5t-3 -8.5q-13 -15 -34.5 -27.5t-43.5 -12.5q-17 0 -29 6t-22.5 12.5t-20 12.5t-21.5 6q-14 0 -25 -6.5t-24 -16.5q-10 -8 -15 2l-12 22q-4 7 2 13q12 11 31.5 22.5t44.5 11.5q16 0 28 -5.5t22 -12.5t19 -12.5t20 -5.5q16 0 28 7t22 18q10 10 17 1z
" />
    <glyph glyph-name="macron" unicode="&#xaf;" horiz-adv-x="272" 
d="M51 649q-9 0 -13 2.5t-4 12.5v20q0 9 4 11.5t13 2.5h174q8 0 11.5 -2.5t3.5 -11.5v-20q0 -10 -4 -12.5t-14 -2.5h-171z" />
    <glyph glyph-name="breve" unicode="&#x2d8;" horiz-adv-x="271" 
d="M136 590q-54 0 -81 29.5t-27 73.5q0 11 13 11h23q13 0 13 -11q1 -28 15.5 -44t44.5 -16t44 16t16 44q0 11 13 11h23q12 0 12 -11q0 -44 -27.5 -73.5t-81.5 -29.5z" />
    <glyph glyph-name="dotaccent" unicode="&#x2d9;" horiz-adv-x="290" 
d="M186 657q0 -20 -11 -31t-30 -11q-43 0 -43 42q0 43 43 43q41 0 41 -43z" />
    <glyph glyph-name="ring" unicode="&#x2da;" horiz-adv-x="280" 
d="M216 626q0 -36 -21 -60.5t-55 -24.5q-33 0 -54.5 24.5t-21.5 60.5q0 37 21.5 61.5t54.5 24.5q34 0 55 -24.5t21 -61.5zM178 628q0 20 -9.5 35t-27.5 15t-28.5 -15t-10.5 -35q0 -23 10.5 -37.5t28.5 -14.5t27.5 14.5t9.5 37.5z" />
    <glyph glyph-name="cedilla" unicode="&#xb8;" horiz-adv-x="282" 
d="M229 -115q0 -33 -19 -57.5t-62 -24.5q-11 0 -28 2.5t-26 7.5q-8 5 -5 12l4 13q1 4 4.5 4.5t7.5 -1.5q8 -3 18.5 -4.5t18.5 -1.5q20 0 30.5 9.5t10.5 33.5q0 27 -15 34t-35 7h-18q-9 0 -11.5 4t-1.5 12l8 73l40 -2l-3 -55h13q27 -2 48 -16t21 -50z" />
    <glyph glyph-name="hungarumlaut" unicode="&#x2dd;" horiz-adv-x="258" 
d="M86 695q13 15 25 0l16 -22q7 -9 -2 -16l-104 -84q-13 -10 -21 1l-8 10q-5 6 3 16zM249 695q13 15 25 0l16 -22q7 -9 -2 -16l-104 -84q-13 -10 -21 1l-8 10q-5 6 3 16z" />
    <glyph glyph-name="ogonek" unicode="&#x2db;" horiz-adv-x="281" 
d="M71 -123q0 22 7 41t18 35t25 29t28 22h34q-28 -28 -45 -56.5t-17 -59.5q0 -33 14.5 -45t31.5 -12q10 0 20.5 2t18.5 5q11 5 13 -4l3 -17q0 -2 -1.5 -4.5t-6.5 -4.5q-14 -6 -29 -8.5t-30 -2.5q-42 0 -63 23.5t-21 56.5z" />
    <glyph glyph-name="caron" unicode="&#x2c7;" horiz-adv-x="272" 
d="M208 702q3 4 7.5 5.5t9.5 -3.5l14 -14q7 -5 0 -14l-80 -103q-7 -7 -17 -7h-14q-11 0 -16 7l-78 102q-6 8 1 15l14 13q8 8 16 0l71 -74z" />
    <glyph glyph-name="commaaccent" unicode="&#x326;" horiz-adv-x="279" 
d="M174 -96q0 -35 -16 -68.5t-42 -56.5q-7 -5 -14 0l-6 7q-4 5 2 11q11 12 18.5 27t7.5 32q0 10 -4 18.5t-8.5 16t-8 15t-3.5 16.5q0 16 9.5 25t23.5 9q18 0 29.5 -15t11.5 -37z" />
    <glyph glyph-name="grave.cap" horiz-adv-x="289" 
d="M89 871q5 7 11.5 7.5t12.5 -6.5l105 -102q9 -9 3 -17l-11 -13q-5 -6 -9 -6.5t-12 4.5l-118 87q-5 3 -7 7t3 11z" />
    <glyph glyph-name="acute.cap" horiz-adv-x="288" 
d="M182 870q13 13 24 -1l20 -26q9 -12 -7 -24l-112 -82q-7 -5 -11.5 -4.5t-9.5 6.5l-10 12q-8 10 5 22z" />
    <glyph glyph-name="dieresis.cap" horiz-adv-x="280" 
d="M105 794q0 -17 -11.5 -27.5t-25.5 -10.5q-16 0 -27 9.5t-11 28.5q0 18 10.5 28t27.5 10q15 0 26 -10t11 -28zM253 794q0 -17 -11 -27.5t-26 -10.5q-16 0 -27 9.5t-11 28.5q0 18 10.5 28t27.5 10q15 0 26 -10t11 -28z" />
    <glyph glyph-name="circumflex.cap" horiz-adv-x="270" 
d="M58 737q-3 -3 -7 -4t-9 4l-14 14q-6 6 1 13l85 104q6 7 17 7h13q10 0 15 -6l83 -103q6 -8 1 -14l-14 -14q-7 -8 -16 1l-76 74z" />
    <glyph glyph-name="tilde.cap" horiz-adv-x="266" 
d="M258 812q2 -3 3 -7.5t-3 -8.5q-13 -15 -34.5 -27.5t-43.5 -12.5q-17 0 -29 6t-22.5 12.5t-20 12.5t-21.5 6q-14 0 -25 -6.5t-24 -16.5q-10 -8 -15 2l-12 22q-4 7 2 13q12 11 31.5 22.5t44.5 11.5q16 0 28 -5.5t22 -12.5t19 -12.5t20 -5.5q16 0 28 7t22 18q10 10 17 1z
" />
    <glyph glyph-name="macron.cap" horiz-adv-x="272" 
d="M51 773q-9 0 -13 2.5t-4 12.5v20q0 9 4 11.5t13 2.5h174q8 0 11.5 -2.5t3.5 -11.5v-20q0 -10 -4 -12.5t-14 -2.5h-171z" />
    <glyph glyph-name="breve.cap" horiz-adv-x="271" 
d="M136 755q-54 0 -81 29.5t-27 73.5q0 11 13 11h23q13 0 13 -11q1 -28 15.5 -44t44.5 -16t44 16t16 44q0 11 13 11h23q12 0 12 -11q0 -44 -27.5 -73.5t-81.5 -29.5z" />
    <glyph glyph-name="dotaccent.cap" horiz-adv-x="290" 
d="M186 811q0 -20 -11 -31t-30 -11q-43 0 -43 42q0 43 43 43q41 0 41 -43z" />
    <glyph glyph-name="ring.cap" horiz-adv-x="280" 
d="M216 829q0 -36 -21 -60.5t-55 -24.5q-33 0 -54.5 24.5t-21.5 60.5q0 37 21.5 61.5t54.5 24.5q34 0 55 -24.5t21 -61.5zM178 831q0 20 -9.5 35t-27.5 15t-28.5 -15t-10.5 -35q0 -23 10.5 -37.5t28.5 -14.5t27.5 14.5t9.5 37.5z" />
    <glyph glyph-name="hungarumlaut.cap" horiz-adv-x="258" 
d="M86 865q13 15 25 0l16 -22q7 -9 -2 -16l-104 -84q-13 -10 -21 1l-8 10q-5 6 3 16zM249 865q13 15 25 0l16 -22q7 -9 -2 -16l-104 -84q-13 -10 -21 1l-8 10q-5 6 3 16z" />
    <glyph glyph-name="caron.cap" horiz-adv-x="272" 
d="M208 874q3 4 7.5 5.5t9.5 -3.5l14 -14q7 -5 0 -14l-80 -103q-7 -7 -17 -7h-14q-11 0 -16 7l-78 102q-6 8 1 15l14 13q8 8 16 0l71 -74z" />
    <glyph glyph-name="Agrave" unicode="&#xc0;" horiz-adv-x="508" 
d="M95 11q-4 -11 -17 -11h-38q-6 0 -9.5 3t-1.5 11l189 662q3 13 20 13h38q9 0 12.5 -3.5t5.5 -8.5l185 -662q5 -15 -11 -15h-40q-10 0 -13.5 3.5t-5.5 9.5l-53 197h-206zM342 261l-46 182q-11 42 -21.5 87.5t-19.5 87.5q-10 -44 -21.5 -90l-22.5 -90l-46 -177h177zM189 871
q5 7 11.5 7.5t12.5 -6.5l105 -102q9 -9 3 -17l-11 -13q-5 -6 -9 -6.5t-12 4.5l-118 87q-12 7 -4 18z" />
    <glyph glyph-name="Aacute" unicode="&#xc1;" horiz-adv-x="508" 
d="M95 11q-4 -11 -17 -11h-38q-6 0 -9.5 3t-1.5 11l189 662q3 13 20 13h38q9 0 12.5 -3.5t5.5 -8.5l185 -662q5 -15 -11 -15h-40q-10 0 -13.5 3.5t-5.5 9.5l-53 197h-206zM342 261l-46 182q-11 42 -21.5 87.5t-19.5 87.5q-10 -44 -21.5 -90l-22.5 -90l-46 -177h177zM296 870
q13 13 24 -1l20 -26q9 -12 -7 -24l-112 -82q-7 -5 -11.5 -4.5t-9.5 6.5l-10 12q-8 10 5 22z" />
    <glyph glyph-name="Acircumflex" unicode="&#xc2;" horiz-adv-x="508" 
d="M95 11q-4 -11 -17 -11h-38q-6 0 -9.5 3t-1.5 11l189 662q3 13 20 13h38q9 0 12.5 -3.5t5.5 -8.5l185 -662q5 -15 -11 -15h-40q-10 0 -13.5 3.5t-5.5 9.5l-53 197h-206zM342 261l-46 182q-11 42 -21.5 87.5t-19.5 87.5q-10 -44 -21.5 -90l-22.5 -90l-46 -177h177zM179 737
q-3 -3 -7 -4t-9 4l-14 14q-6 6 1 13l85 104q6 7 17 7h13q10 0 15 -6l83 -103q6 -8 1 -14l-14 -14q-7 -8 -16 1l-76 74z" />
    <glyph glyph-name="Atilde" unicode="&#xc3;" horiz-adv-x="508" 
d="M95 11q-4 -11 -17 -11h-38q-6 0 -9.5 3t-1.5 11l189 662q3 13 20 13h38q9 0 12.5 -3.5t5.5 -8.5l185 -662q5 -15 -11 -15h-40q-10 0 -13.5 3.5t-5.5 9.5l-53 197h-206zM342 261l-46 182q-11 42 -21.5 87.5t-19.5 87.5q-10 -44 -21.5 -90l-22.5 -90l-46 -177h177zM380 812
q2 -3 3 -7.5t-3 -8.5q-13 -15 -34.5 -27.5t-43.5 -12.5q-17 0 -29 6t-22.5 12.5t-20 12.5t-21.5 6q-14 0 -25 -6.5t-24 -16.5q-10 -8 -15 2l-12 22q-4 7 2 13q12 11 31.5 22.5t44.5 11.5q16 0 28 -5.5t22 -12.5t19 -12.5t20 -5.5q16 0 28 7t22 18q10 10 17 1z" />
    <glyph glyph-name="Adieresis" unicode="&#xc4;" horiz-adv-x="508" 
d="M95 11q-4 -11 -17 -11h-38q-6 0 -9.5 3t-1.5 11l189 662q3 13 20 13h38q9 0 12.5 -3.5t5.5 -8.5l185 -662q5 -15 -11 -15h-40q-10 0 -13.5 3.5t-5.5 9.5l-53 197h-206zM342 261l-46 182q-11 42 -21.5 87.5t-19.5 87.5q-10 -44 -21.5 -90l-22.5 -90l-46 -177h177zM221 794
q0 -17 -11.5 -27.5t-25.5 -10.5q-16 0 -27 9.5t-11 28.5q0 18 10.5 28t27.5 10q15 0 26 -10t11 -28zM369 794q0 -17 -11 -27.5t-26 -10.5q-16 0 -27 9.5t-11 28.5q0 18 10.5 28t27.5 10q15 0 26 -10t11 -28z" />
    <glyph glyph-name="Amacron" unicode="&#x100;" horiz-adv-x="508" 
d="M95 11q-4 -11 -17 -11h-38q-6 0 -9.5 3t-1.5 11l189 662q3 13 20 13h38q9 0 12.5 -3.5t5.5 -8.5l185 -662q5 -15 -11 -15h-40q-10 0 -13.5 3.5t-5.5 9.5l-53 197h-206zM342 261l-46 182q-11 42 -21.5 87.5t-19.5 87.5q-10 -44 -21.5 -90l-22.5 -90l-46 -177h177zM171 773
q-9 0 -13 2.5t-4 12.5v20q0 9 4 11.5t13 2.5h174q8 0 11.5 -2.5t3.5 -11.5v-20q0 -10 -4 -12.5t-14 -2.5h-171z" />
    <glyph glyph-name="Abreve" unicode="&#x102;" horiz-adv-x="508" 
d="M95 11q-4 -11 -17 -11h-38q-6 0 -9.5 3t-1.5 11l189 662q3 13 20 13h38q9 0 12.5 -3.5t5.5 -8.5l185 -662q5 -15 -11 -15h-40q-10 0 -13.5 3.5t-5.5 9.5l-53 197h-206zM342 261l-46 182q-11 42 -21.5 87.5t-19.5 87.5q-10 -44 -21.5 -90l-22.5 -90l-46 -177h177zM257 755
q-54 0 -81 29.5t-27 73.5q0 11 13 11h23q13 0 13 -11q1 -28 15.5 -44t44.5 -16t44 16t16 44q0 11 13 11h23q12 0 12 -11q0 -44 -27.5 -73.5t-81.5 -29.5z" />
    <glyph glyph-name="Acaron" unicode="&#x1cd;" horiz-adv-x="508" 
d="M328 874q3 4 7.5 5.5t9.5 -3.5l14 -14q7 -5 0 -14l-80 -103q-7 -7 -17 -7h-14q-11 0 -16 7l-78 102q-6 8 1 15l14 13q8 8 16 0l71 -74zM95 11q-4 -11 -17 -11h-38q-6 0 -9.5 3t-1.5 11l189 662q3 13 20 13h38q9 0 12.5 -3.5t5.5 -8.5l185 -662q5 -15 -11 -15h-40
q-10 0 -13.5 3.5t-5.5 9.5l-53 197h-206zM342 261l-46 182q-11 42 -21.5 87.5t-19.5 87.5q-10 -44 -21.5 -90l-22.5 -90l-46 -177h177z" />
    <glyph glyph-name="Aring" unicode="&#xc5;" horiz-adv-x="508" 
d="M95 11q-4 -11 -17 -11h-38q-6 0 -9.5 3t-1.5 11l189 662q3 13 20 13h38q9 0 12.5 -3.5t5.5 -8.5l185 -662q5 -15 -11 -15h-40q-10 0 -13.5 3.5t-5.5 9.5l-53 197h-206zM342 261l-46 182q-11 42 -21.5 87.5t-19.5 87.5q-10 -44 -21.5 -90l-22.5 -90l-46 -177h177zM332 829
q0 -36 -21 -60.5t-55 -24.5q-33 0 -54.5 24.5t-21.5 60.5q0 37 21.5 61.5t54.5 24.5q34 0 55 -24.5t21 -61.5zM294 831q0 20 -9.5 35t-27.5 15t-28.5 -15t-10.5 -35q0 -23 10.5 -37.5t28.5 -14.5t27.5 14.5t9.5 37.5z" />
    <glyph glyph-name="Aringacute" unicode="&#x1fa;" horiz-adv-x="508" 
d="M95 11q-4 -11 -17 -11h-38q-6 0 -9.5 3t-1.5 11l189 662q3 13 20 13h38q9 0 12.5 -3.5t5.5 -8.5l185 -662q5 -15 -11 -15h-40q-10 0 -13.5 3.5t-5.5 9.5l-53 197h-206zM342 261l-46 182q-11 42 -21.5 87.5t-19.5 87.5q-10 -44 -21.5 -90l-22.5 -90l-46 -177h177zM332 795
q0 -36 -21 -60.5t-55 -24.5q-33 0 -54.5 24.5t-21.5 60.5q0 37 21.5 61.5t54.5 24.5q34 0 55 -24.5t21 -61.5zM294 797q0 20 -9.5 35t-27.5 15t-28.5 -15t-10.5 -35q0 -23 10.5 -37.5t28.5 -14.5t27.5 14.5t9.5 37.5zM286 1013q13 13 24 -1l20 -26q9 -12 -7 -24l-112 -82
q-7 -5 -11.5 -4.5t-9.5 6.5l-10 12q-8 10 5 22z" />
    <glyph glyph-name="Aogonek" unicode="&#x104;" horiz-adv-x="508" 
d="M343 -123q0 45 22 74.5t49 44.5l-58 214h-206l-55 -199q-4 -11 -17 -11h-38q-6 0 -9.5 3t-1.5 11l189 662q3 13 20 13h38q9 0 12.5 -3.5t5.5 -8.5l185 -662q5 -14 -12 -20q-20 -7 -34 -19.5t-23 -27.5t-13 -30.5t-4 -29.5q0 -33 14.5 -45t31.5 -12q10 0 20.5 2t18.5 5
q11 5 13 -4l3 -17q0 -2 -1.5 -4.5t-6.5 -4.5q-14 -6 -29 -8.5t-30 -2.5q-42 0 -63 23.5t-21 56.5zM342 261l-46 182q-11 42 -21.5 87.5t-19.5 87.5q-10 -44 -21.5 -90l-22.5 -90l-46 -177h177z" />
    <glyph glyph-name="AE" unicode="&#xc6;" horiz-adv-x="714" 
d="M383 0q-17 0 -17 16v192h-184l-95 -195q-3 -5 -7 -9t-13 -4h-41q-16 0 -8 15l321 655q5 10 11 14.5t21 4.5h275q14 0 14 -12l-2 -29q0 -12 -16 -12h-210v-248h183q15 0 15 -13v-26q0 -13 -15 -13h-183v-284h216q15 0 15 -13v-25q0 -14 -15 -14h-265zM366 604l-162 -345
h162v345z" />
    <glyph glyph-name="AEacute" unicode="&#x1fc;" horiz-adv-x="714" 
d="M383 0q-17 0 -17 16v192h-184l-95 -195q-3 -5 -7 -9t-13 -4h-41q-16 0 -8 15l321 655q5 10 11 14.5t21 4.5h275q14 0 14 -12l-2 -29q0 -12 -16 -12h-210v-248h183q15 0 15 -13v-26q0 -13 -15 -13h-183v-284h216q15 0 15 -13v-25q0 -14 -15 -14h-265zM366 604l-162 -345
h162v345zM490 870q13 13 24 -1l20 -26q9 -12 -7 -24l-112 -82q-7 -5 -11.5 -4.5t-9.5 6.5l-10 12q-8 10 5 22z" />
    <glyph glyph-name="Cacute" unicode="&#x106;" horiz-adv-x="480" 
d="M49 338q0 77 15.5 143.5t47.5 115t80 76.5t113 28q34 0 68 -8t63 -24q6 -4 7 -8.5t-1 -9.5l-11 -30q-4 -11 -16 -6q-23 13 -50 20.5t-53 7.5q-52 0 -88 -23.5t-59 -64.5t-33.5 -95.5t-10.5 -117.5t10.5 -116.5t33.5 -93t59.5 -62t88.5 -22.5q26 0 54.5 7t49.5 19
q14 7 18 -5l10 -28q5 -12 -8 -19q-29 -16 -64 -24t-70 -8q-66 0 -114 25.5t-79 71.5t-46 110t-15 141zM342 871q13 13 24 -1l20 -26q9 -12 -7 -24l-112 -82q-7 -5 -11.5 -4.5t-9.5 6.5l-10 12q-8 10 5 22z" />
    <glyph glyph-name="Ccedilla" unicode="&#xc7;" horiz-adv-x="480" 
d="M399 -115q0 -33 -19 -57.5t-62 -24.5q-11 0 -28 2.5t-26 7.5q-8 5 -5 12l4 13q1 4 4.5 4.5t7.5 -1.5q8 -3 18.5 -4.5t18.5 -1.5q20 0 30.5 9.5t10.5 33.5q0 27 -15 34t-35 7h-18q-9 0 -11.5 4t-1.5 12l6 56q-60 5 -103 32t-71 72.5t-41.5 107t-13.5 135.5
q0 77 15.5 143.5t47.5 115t80 76.5t113 28q34 0 68 -8t63 -24q6 -4 7 -8.5t-1 -9.5l-11 -30q-4 -11 -16 -6q-23 13 -50 20.5t-53 7.5q-52 0 -88 -23.5t-59 -64.5t-33.5 -95.5t-10.5 -117.5t10.5 -116.5t33.5 -93t59.5 -62t88.5 -22.5q26 0 54.5 7t49.5 19q14 7 18 -5l10 -28
q5 -12 -8 -19q-26 -14 -56.5 -21.5t-61.5 -9.5l-2 -40h13q27 -2 48 -16t21 -50z" />
    <glyph glyph-name="Ccircumflex" unicode="&#x108;" horiz-adv-x="480" 
d="M49 338q0 77 15.5 143.5t47.5 115t80 76.5t113 28q34 0 68 -8t63 -24q6 -4 7 -8.5t-1 -9.5l-11 -30q-4 -11 -16 -6q-23 13 -50 20.5t-53 7.5q-52 0 -88 -23.5t-59 -64.5t-33.5 -95.5t-10.5 -117.5t10.5 -116.5t33.5 -93t59.5 -62t88.5 -22.5q26 0 54.5 7t49.5 19
q14 7 18 -5l10 -28q5 -12 -8 -19q-29 -16 -64 -24t-70 -8q-66 0 -114 25.5t-79 71.5t-46 110t-15 141zM220 740q-3 -3 -7 -4t-9 4l-14 14q-6 6 1 13l85 104q6 7 17 7h13q10 0 15 -6l83 -103q6 -8 1 -14l-14 -14q-7 -8 -16 1l-76 74z" />
    <glyph glyph-name="Ccaron" unicode="&#x10c;" horiz-adv-x="480" 
d="M49 338q0 77 15.5 143.5t47.5 115t80 76.5t113 28q34 0 68 -8t63 -24q6 -4 7 -8.5t-1 -9.5l-11 -30q-4 -11 -16 -6q-23 13 -50 20.5t-53 7.5q-52 0 -88 -23.5t-59 -64.5t-33.5 -95.5t-10.5 -117.5t10.5 -116.5t33.5 -93t59.5 -62t88.5 -22.5q26 0 54.5 7t49.5 19
q14 7 18 -5l10 -28q5 -12 -8 -19q-29 -16 -64 -24t-70 -8q-66 0 -114 25.5t-79 71.5t-46 110t-15 141zM371 874q3 4 7.5 5.5t9.5 -3.5l14 -14q7 -5 0 -14l-80 -103q-7 -7 -17 -7h-14q-11 0 -16 7l-78 102q-6 8 1 15l14 13q8 8 16 0l71 -74z" />
    <glyph glyph-name="Cdotaccent" unicode="&#x10a;" horiz-adv-x="480" 
d="M49 338q0 77 15.5 143.5t47.5 115t80 76.5t113 28q34 0 68 -8t63 -24q6 -4 7 -8.5t-1 -9.5l-11 -30q-4 -11 -16 -6q-23 13 -50 20.5t-53 7.5q-52 0 -88 -23.5t-59 -64.5t-33.5 -95.5t-10.5 -117.5t10.5 -116.5t33.5 -93t59.5 -62t88.5 -22.5q26 0 54.5 7t49.5 19
q14 7 18 -5l10 -28q5 -12 -8 -19q-29 -16 -64 -24t-70 -8q-66 0 -114 25.5t-79 71.5t-46 110t-15 141zM338 811q0 -20 -11 -31t-30 -11q-43 0 -43 42q0 43 43 43q41 0 41 -43z" />
    <glyph glyph-name="Dcaron" unicode="&#x10e;" horiz-adv-x="550" 
d="M216 57q67 0 109 22t65.5 60.5t32 90t8.5 110.5q0 143 -50 217t-163 74h-68v-574h66zM201 689q83 0 140.5 -21t93 -63.5t51.5 -108t16 -154.5q0 -80 -15 -143.5t-48 -107.5t-85 -67.5t-127 -23.5h-124q-19 0 -19 19v652q0 10 2.5 14t15.5 4h99zM326 875q3 4 7.5 5.5
t9.5 -3.5l14 -14q7 -5 0 -14l-80 -103q-7 -7 -17 -7h-14q-11 0 -16 7l-78 102q-6 8 1 15l14 13q8 8 16 0l71 -74z" />
    <glyph glyph-name="Dcroat" unicode="&#x110;" horiz-adv-x="563" 
d="M214 689q83 0 140.5 -21t93 -63.5t51.5 -108t16 -154.5q0 -80 -15 -143.5t-48 -107.5t-85 -67.5t-127 -23.5h-124q-19 0 -19 19v318h-49q-14 0 -14 12v28q0 10 13 10h50v284q0 10 2.5 14t15.5 4h99zM229 57q67 0 109 22t65.5 60.5t32 90t8.5 110.5q0 143 -50 217t-163 74
h-68v-244h84q15 0 15 -13v-22q0 -9 -3.5 -12t-10.5 -3h-85v-280h66z" />
    <glyph glyph-name="Eth" unicode="&#xd0;" horiz-adv-x="563" 
d="M214 689q83 0 140.5 -21t93 -63.5t51.5 -108t16 -154.5q0 -80 -15 -143.5t-48 -107.5t-85 -67.5t-127 -23.5h-124q-19 0 -19 19v318h-49q-14 0 -14 12v28q0 10 13 10h50v284q0 10 2.5 14t15.5 4h99zM229 57q67 0 109 22t65.5 60.5t32 90t8.5 110.5q0 143 -50 217t-163 74
h-68v-244h84q15 0 15 -13v-22q0 -9 -3.5 -12t-10.5 -3h-85v-280h66z" />
    <glyph glyph-name="Egrave" unicode="&#xc8;" horiz-adv-x="431" 
d="M364 55q16 0 16 -13v-28q0 -14 -16 -14h-262q-11 0 -14.5 4t-3.5 13v654q0 10 4 14t15 4h263q15 0 13 -10l-4 -33q0 -12 -17 -12h-208v-248h182q15 0 15 -14v-27q0 -14 -15 -14h-182v-276h214zM164 872q5 7 11.5 7.5t12.5 -6.5l105 -102q9 -9 3 -17l-11 -13
q-5 -6 -9 -6.5t-12 4.5l-118 87q-12 7 -4 18z" />
    <glyph glyph-name="Eacute" unicode="&#xc9;" horiz-adv-x="431" 
d="M364 55q16 0 16 -13v-28q0 -14 -16 -14h-262q-11 0 -14.5 4t-3.5 13v654q0 10 4 14t15 4h263q15 0 13 -10l-4 -33q0 -12 -17 -12h-208v-248h182q15 0 15 -14v-27q0 -14 -15 -14h-182v-276h214zM274 870q13 13 24 -1l20 -26q9 -12 -7 -24l-112 -82q-7 -5 -11.5 -4.5
t-9.5 6.5l-10 12q-8 10 5 22z" />
    <glyph glyph-name="Ecircumflex" unicode="&#xca;" horiz-adv-x="431" 
d="M364 55q16 0 16 -13v-28q0 -14 -16 -14h-262q-11 0 -14.5 4t-3.5 13v654q0 10 4 14t15 4h263q15 0 13 -10l-4 -33q0 -12 -17 -12h-208v-248h182q15 0 15 -14v-27q0 -14 -15 -14h-182v-276h214zM156 749q-3 -3 -7 -4t-9 4l-14 14q-6 6 1 13l85 104q6 7 17 7h13q10 0 15 -6
l83 -103q6 -8 1 -14l-14 -14q-7 -8 -16 1l-76 74z" />
    <glyph glyph-name="Ecaron" unicode="&#x11a;" horiz-adv-x="431" 
d="M364 55q16 0 16 -13v-28q0 -14 -16 -14h-262q-11 0 -14.5 4t-3.5 13v654q0 10 4 14t15 4h263q15 0 13 -10l-4 -33q0 -12 -17 -12h-208v-248h182q15 0 15 -14v-27q0 -14 -15 -14h-182v-276h214zM310 875q3 4 7.5 5.5t9.5 -3.5l14 -14q7 -5 0 -14l-80 -103q-7 -7 -17 -7
h-14q-11 0 -16 7l-78 102q-6 8 1 15l14 13q8 8 16 0l71 -74z" />
    <glyph glyph-name="Edieresis" unicode="&#xcb;" horiz-adv-x="431" 
d="M364 55q16 0 16 -13v-28q0 -14 -16 -14h-262q-11 0 -14.5 4t-3.5 13v654q0 10 4 14t15 4h263q15 0 13 -10l-4 -33q0 -12 -17 -12h-208v-248h182q15 0 15 -14v-27q0 -14 -15 -14h-182v-276h214zM196 793q0 -17 -11.5 -27.5t-25.5 -10.5q-16 0 -27 9.5t-11 28.5
q0 18 10.5 28t27.5 10q15 0 26 -10t11 -28zM344 793q0 -17 -11 -27.5t-26 -10.5q-16 0 -27 9.5t-11 28.5q0 18 10.5 28t27.5 10q15 0 26 -10t11 -28z" />
    <glyph glyph-name="Emacron" unicode="&#x112;" horiz-adv-x="431" 
d="M364 55q16 0 16 -13v-28q0 -14 -16 -14h-262q-11 0 -14.5 4t-3.5 13v654q0 10 4 14t15 4h263q15 0 13 -10l-4 -33q0 -12 -17 -12h-208v-248h182q15 0 15 -14v-27q0 -14 -15 -14h-182v-276h214zM152 773q-9 0 -13 2.5t-4 12.5v20q0 9 4 11.5t13 2.5h174q8 0 11.5 -2.5
t3.5 -11.5v-20q0 -10 -4 -12.5t-14 -2.5h-171z" />
    <glyph glyph-name="Ebreve" unicode="&#x114;" horiz-adv-x="431" 
d="M364 55q16 0 16 -13v-28q0 -14 -16 -14h-262q-11 0 -14.5 4t-3.5 13v654q0 10 4 14t15 4h263q15 0 13 -10l-4 -33q0 -12 -17 -12h-208v-248h182q15 0 15 -14v-27q0 -14 -15 -14h-182v-276h214zM236 754q-54 0 -81 29.5t-27 73.5q0 11 13 11h23q13 0 13 -11
q1 -28 15.5 -44t44.5 -16t44 16t16 44q0 11 13 11h23q12 0 12 -11q0 -44 -27.5 -73.5t-81.5 -29.5z" />
    <glyph glyph-name="Edotaccent" unicode="&#x116;" horiz-adv-x="431" 
d="M364 55q16 0 16 -13v-28q0 -14 -16 -14h-262q-11 0 -14.5 4t-3.5 13v654q0 10 4 14t15 4h263q15 0 13 -10l-4 -33q0 -12 -17 -12h-208v-248h182q15 0 15 -14v-27q0 -14 -15 -14h-182v-276h214zM280 811q0 -20 -11 -31t-30 -11q-43 0 -43 42q0 43 43 43q41 0 41 -43z" />
    <glyph glyph-name="Eogonek" unicode="&#x118;" horiz-adv-x="431" 
d="M255 -123q0 42 22.5 73t49.5 50h-225q-11 0 -14.5 4t-3.5 13v654q0 10 4 14t15 4h263q15 0 13 -10l-4 -33q0 -12 -17 -12h-208v-248h182q15 0 15 -14v-27q0 -14 -15 -14h-182v-276h214q16 0 16 -13v-25q0 -8 -3.5 -12t-10.5 -8q-28 -17 -44.5 -49t-16.5 -60
q0 -33 14.5 -45t31.5 -12q10 0 20.5 2t18.5 5q11 5 13 -4l3 -17q0 -2 -1.5 -4.5t-6.5 -4.5q-14 -6 -29 -8.5t-30 -2.5q-42 0 -63 23.5t-21 56.5z" />
    <glyph glyph-name="Gcircumflex" unicode="&#x11c;" horiz-adv-x="533" 
d="M317 332q-14 0 -14 12v30q0 13 13 13h135q16 0 16 -14v-320q0 -10 -2.5 -14.5t-9.5 -9.5q-29 -17 -71 -28t-85 -11q-64 0 -111.5 26.5t-78.5 73t-46 111t-15 139.5q0 73 16 138.5t48.5 115t82 78.5t116.5 29q69 0 130 -32q11 -6 7 -17l-11 -31q-3 -10 -16 -5
q-27 14 -53.5 20.5t-52.5 6.5q-53 0 -90.5 -25.5t-61 -67.5t-34 -96t-10.5 -111q0 -54 9 -107.5t30.5 -96t57 -68.5t89.5 -26q23 0 49 5.5t47 16.5v265h-84zM217 749q-3 -3 -7 -4t-9 4l-14 14q-6 6 1 13l85 104q6 7 17 7h13q10 0 15 -6l83 -103q6 -8 1 -14l-14 -14
q-7 -8 -16 1l-76 74z" />
    <glyph glyph-name="Gbreve" unicode="&#x11e;" horiz-adv-x="533" 
d="M317 332q-14 0 -14 12v30q0 13 13 13h135q16 0 16 -14v-320q0 -10 -2.5 -14.5t-9.5 -9.5q-29 -17 -71 -28t-85 -11q-64 0 -111.5 26.5t-78.5 73t-46 111t-15 139.5q0 73 16 138.5t48.5 115t82 78.5t116.5 29q69 0 130 -32q11 -6 7 -17l-11 -31q-3 -10 -16 -5
q-27 14 -53.5 20.5t-52.5 6.5q-53 0 -90.5 -25.5t-61 -67.5t-34 -96t-10.5 -111q0 -54 9 -107.5t30.5 -96t57 -68.5t89.5 -26q23 0 49 5.5t47 16.5v265h-84zM293 755q-54 0 -81 29.5t-27 73.5q0 11 13 11h23q13 0 13 -11q1 -28 15.5 -44t44.5 -16t44 16t16 44q0 11 13 11h23
q12 0 12 -11q0 -44 -27.5 -73.5t-81.5 -29.5z" />
    <glyph glyph-name="Gdotaccent" unicode="&#x120;" horiz-adv-x="533" 
d="M317 332q-14 0 -14 12v30q0 13 13 13h135q16 0 16 -14v-320q0 -10 -2.5 -14.5t-9.5 -9.5q-29 -17 -71 -28t-85 -11q-64 0 -111.5 26.5t-78.5 73t-46 111t-15 139.5q0 73 16 138.5t48.5 115t82 78.5t116.5 29q69 0 130 -32q11 -6 7 -17l-11 -31q-3 -10 -16 -5
q-27 14 -53.5 20.5t-52.5 6.5q-53 0 -90.5 -25.5t-61 -67.5t-34 -96t-10.5 -111q0 -54 9 -107.5t30.5 -96t57 -68.5t89.5 -26q23 0 49 5.5t47 16.5v265h-84zM335 811q0 -20 -11 -31t-30 -11q-43 0 -43 42q0 43 43 43q41 0 41 -43z" />
    <glyph glyph-name="Gcommaaccent" unicode="&#x122;" horiz-adv-x="533" 
d="M317 332q-14 0 -14 12v30q0 13 13 13h135q16 0 16 -14v-320q0 -10 -2.5 -14.5t-9.5 -9.5q-29 -17 -71 -28t-85 -11q-64 0 -111.5 26.5t-78.5 73t-46 111t-15 139.5q0 73 16 138.5t48.5 115t82 78.5t116.5 29q69 0 130 -32q11 -6 7 -17l-11 -31q-3 -10 -16 -5
q-27 14 -53.5 20.5t-52.5 6.5q-53 0 -90.5 -25.5t-61 -67.5t-34 -96t-10.5 -111q0 -54 9 -107.5t30.5 -96t57 -68.5t89.5 -26q23 0 49 5.5t47 16.5v265h-84zM340 -96q0 -35 -16 -68.5t-42 -56.5q-7 -5 -14 0l-6 7q-4 5 2 11q11 12 18.5 27t7.5 32q0 10 -4 18.5t-8.5 16
t-8 15t-3.5 16.5q0 16 9.5 25t23.5 9q18 0 29.5 -15t11.5 -37z" />
    <glyph glyph-name="Hcircumflex" unicode="&#x124;" horiz-adv-x="560" 
d="M150 14q0 -14 -15 -14h-37q-14 0 -14 14v661q0 14 15 14h36q15 0 15 -15v-287h261v288q0 14 15 14h36q15 0 15 -15v-660q0 -14 -15 -14h-36q-15 0 -15 15v317h-261v-318zM202 749q-3 -3 -7 -4t-9 4l-14 14q-6 6 1 13l85 104q6 7 17 7h13q10 0 15 -6l83 -103q6 -8 1 -14
l-14 -14q-7 -8 -16 1l-76 74z" />
    <glyph glyph-name="Hbar" unicode="&#x126;" horiz-adv-x="560" 
d="M150 14q0 -14 -15 -14h-37q-14 0 -14 14v499h-40q-13 0 -13 11v23q0 11 13 11h40v117q0 14 15 14h36q15 0 15 -15v-116h261v117q0 14 15 14h36q15 0 15 -15v-116h36q13 0 13 -11v-23q0 -11 -13 -11h-36v-499q0 -14 -15 -14h-36q-15 0 -15 15v317h-261v-318zM411 387v126
h-261v-126h261z" />
    <glyph glyph-name="Igrave" unicode="&#xcc;" horiz-adv-x="320" 
d="M127 645h-47q-13 0 -13 11v22q0 11 12 11h164q13 0 13 -11v-22q0 -11 -13 -11h-50v-600h49q13 0 13 -10v-25q0 -10 -13 -10h-160q-12 0 -12 10v25q0 10 12 10h45v600zM99 870q5 7 11.5 7.5t12.5 -6.5l105 -102q9 -9 3 -17l-11 -13q-5 -6 -9 -6.5t-12 4.5l-118 87
q-12 7 -4 18z" />
    <glyph glyph-name="Iacute" unicode="&#xcd;" horiz-adv-x="320" 
d="M127 645h-47q-13 0 -13 11v22q0 11 12 11h164q13 0 13 -11v-22q0 -11 -13 -11h-50v-600h49q13 0 13 -10v-25q0 -10 -13 -10h-160q-12 0 -12 10v25q0 10 12 10h45v600zM199 872q13 13 24 -1l20 -26q9 -12 -7 -24l-112 -82q-7 -5 -11.5 -4.5t-9.5 6.5l-10 12q-8 10 5 22z
" />
    <glyph glyph-name="Icircumflex" unicode="&#xce;" horiz-adv-x="320" 
d="M127 645h-47q-13 0 -13 11v22q0 11 12 11h164q13 0 13 -11v-22q0 -11 -13 -11h-50v-600h49q13 0 13 -10v-25q0 -10 -13 -10h-160q-12 0 -12 10v25q0 10 12 10h45v600zM83 746q-3 -3 -7 -4t-9 4l-14 14q-6 6 1 13l85 104q6 7 17 7h13q10 0 15 -6l83 -103q6 -8 1 -14
l-14 -14q-7 -8 -16 1l-76 74z" />
    <glyph glyph-name="Itilde" unicode="&#x128;" horiz-adv-x="320" 
d="M127 645h-47q-13 0 -13 11v22q0 11 12 11h164q13 0 13 -11v-22q0 -11 -13 -11h-50v-600h49q13 0 13 -10v-25q0 -10 -13 -10h-160q-12 0 -12 10v25q0 10 12 10h45v600zM282 811q2 -3 3 -7.5t-3 -8.5q-13 -15 -34.5 -27.5t-43.5 -12.5q-17 0 -29 6t-22.5 12.5t-20 12.5
t-21.5 6q-14 0 -25 -6.5t-24 -16.5q-10 -8 -15 2l-12 22q-4 7 2 13q12 11 31.5 22.5t44.5 11.5q16 0 28 -5.5t22 -12.5t19 -12.5t20 -5.5q16 0 28 7t22 18q10 10 17 1z" />
    <glyph glyph-name="Idieresis" unicode="&#xcf;" horiz-adv-x="320" 
d="M127 645h-47q-13 0 -13 11v22q0 11 12 11h164q13 0 13 -11v-22q0 -11 -13 -11h-50v-600h49q13 0 13 -10v-25q0 -10 -13 -10h-160q-12 0 -12 10v25q0 10 12 10h45v600zM124 794q0 -17 -11.5 -27.5t-25.5 -10.5q-16 0 -27 9.5t-11 28.5q0 18 10.5 28t27.5 10q15 0 26 -10
t11 -28zM272 794q0 -17 -11 -27.5t-26 -10.5q-16 0 -27 9.5t-11 28.5q0 18 10.5 28t27.5 10q15 0 26 -10t11 -28z" />
    <glyph glyph-name="Imacron" unicode="&#x12a;" horiz-adv-x="320" 
d="M127 645h-47q-13 0 -13 11v22q0 11 12 11h164q13 0 13 -11v-22q0 -11 -13 -11h-50v-600h49q13 0 13 -10v-25q0 -10 -13 -10h-160q-12 0 -12 10v25q0 10 12 10h45v600zM73 773q-9 0 -13 2.5t-4 12.5v20q0 9 4 11.5t13 2.5h174q8 0 11.5 -2.5t3.5 -11.5v-20q0 -10 -4 -12.5
t-14 -2.5h-171z" />
    <glyph glyph-name="Ibreve" unicode="&#x12c;" horiz-adv-x="320" 
d="M127 645h-47q-13 0 -13 11v22q0 11 12 11h164q13 0 13 -11v-22q0 -11 -13 -11h-50v-600h49q13 0 13 -10v-25q0 -10 -13 -10h-160q-12 0 -12 10v25q0 10 12 10h45v600zM160 754q-54 0 -81 29.5t-27 73.5q0 11 13 11h23q13 0 13 -11q1 -28 15.5 -44t44.5 -16t44 16t16 44
q0 11 13 11h23q12 0 12 -11q0 -44 -27.5 -73.5t-81.5 -29.5z" />
    <glyph glyph-name="Idotaccent" unicode="&#x130;" horiz-adv-x="320" 
d="M127 645h-47q-13 0 -13 11v22q0 11 12 11h164q13 0 13 -11v-22q0 -11 -13 -11h-50v-600h49q13 0 13 -10v-25q0 -10 -13 -10h-160q-12 0 -12 10v25q0 10 12 10h45v600zM203 811q0 -20 -11 -31t-30 -11q-43 0 -43 42q0 43 43 43q41 0 41 -43z" />
    <glyph glyph-name="Iogonek" unicode="&#x12e;" horiz-adv-x="320" 
d="M79 -123q0 42 22.5 73t49.5 50h-69q-12 0 -12 10v25q0 10 12 10h45v600h-47q-13 0 -13 11v22q0 11 12 11h164q13 0 13 -11v-22q0 -11 -13 -11h-50v-600h49q13 0 13 -10v-25q0 -10 -13 -10h-55q-26 -26 -42 -54t-16 -58q0 -33 14.5 -45t31.5 -12q10 0 20.5 2t18.5 5
q11 5 13 -4l3 -17q0 -2 -1.5 -4.5t-6.5 -4.5q-14 -6 -29 -8.5t-30 -2.5q-42 0 -63 23.5t-21 56.5z" />
    <glyph glyph-name="IJ" unicode="&#x132;" horiz-adv-x="620" 
d="M127 645h-47q-13 0 -13 11v22q0 11 12 11h164q13 0 13 -11v-22q0 -11 -13 -11h-50v-600h49q13 0 13 -10v-25q0 -10 -13 -10h-160q-12 0 -12 10v25q0 10 12 10h45v600zM543 229q0 -69 -8.5 -120t-34.5 -81q-16 -18 -41.5 -28t-63.5 -10q-13 0 -25.5 2.5t-20.5 5.5
q-7 2 -9 4.5t0 9.5l6 27q1 5 4.5 7.5t10.5 0.5q10 -3 18 -4.5t19 -1.5q18 0 35.5 9t27.5 30q9 20 12.5 52.5t3.5 72.5v435h-87q-13 0 -13 12v26q0 11 14 11h136q10 0 13 -3.5t3 -11.5v-445z" />
    <glyph glyph-name="Jcircumflex" unicode="&#x134;" horiz-adv-x="314" 
d="M237 229q0 -69 -8.5 -120t-34.5 -81q-16 -18 -41.5 -28t-63.5 -10q-13 0 -25.5 2.5t-20.5 5.5q-7 2 -9 4.5t0 9.5l6 27q1 5 4.5 7.5t10.5 0.5q10 -3 18 -4.5t19 -1.5q18 0 35.5 9t27.5 30q9 20 12.5 52.5t3.5 72.5v435h-87q-13 0 -13 12v26q0 11 14 11h136q10 0 13 -3.5
t3 -11.5v-445zM82 748q-3 -3 -7 -4t-9 4l-14 14q-6 6 1 13l85 104q6 7 17 7h13q10 0 15 -6l83 -103q6 -8 1 -14l-14 -14q-7 -8 -16 1l-76 74z" />
    <glyph glyph-name="Kcommaaccent" unicode="&#x136;" horiz-adv-x="464" 
d="M437 20q13 -20 -9 -20h-40q-11 0 -18 2.5t-14 12.5l-205 314h-1v-314q0 -15 -16 -15h-34q-16 0 -16 15v659q0 15 14 15h38q14 0 14 -15v-299h1l197 302q7 12 24 12h36q9 0 10.5 -4.5t-2.5 -10.5l-209 -316zM290 -96q0 -35 -16 -68.5t-42 -56.5q-7 -5 -14 0l-6 7
q-4 5 2 11q11 12 18.5 27t7.5 32q0 10 -4 18.5t-8.5 16t-8 15t-3.5 16.5q0 16 9.5 25t23.5 9q18 0 29.5 -15t11.5 -37z" />
    <glyph glyph-name="Lacute" unicode="&#x139;" horiz-adv-x="378" 
d="M339 57q15 0 15 -14v-30q0 -13 -14 -13h-239q-8 0 -12.5 3t-4.5 12v659q0 8 3 11.5t13 3.5h34q10 0 13 -3.5t3 -11.5v-617h189zM175 870q13 13 24 -1l20 -26q9 -12 -7 -24l-112 -82q-7 -5 -11.5 -4.5t-9.5 6.5l-10 12q-8 10 5 22z" />
    <glyph glyph-name="Lcaron" unicode="&#x13d;" horiz-adv-x="381" 
d="M339 57q15 0 15 -14v-30q0 -13 -14 -13h-239q-8 0 -12.5 3t-4.5 12v659q0 8 3 11.5t13 3.5h34q10 0 13 -3.5t3 -11.5v-617h189zM338 643q0 -35 -16 -68.5t-42 -56.5q-7 -5 -14 0l-6 7q-4 5 2 11q11 12 18.5 27t7.5 32q0 10 -4 18.5t-8.5 16t-8 15t-3.5 16.5q0 16 9.5 25
t23.5 9q18 0 29.5 -15t11.5 -37z" />
    <glyph glyph-name="Lcommaaccent" unicode="&#x13b;" horiz-adv-x="378" 
d="M339 57q15 0 15 -14v-30q0 -13 -14 -13h-239q-8 0 -12.5 3t-4.5 12v659q0 8 3 11.5t13 3.5h34q10 0 13 -3.5t3 -11.5v-617h189zM277 -96q0 -35 -16 -68.5t-42 -56.5q-7 -5 -14 0l-6 7q-4 5 2 11q11 12 18.5 27t7.5 32q0 10 -4 18.5t-8.5 16t-8 15t-3.5 16.5q0 16 9.5 25
t23.5 9q18 0 29.5 -15t11.5 -37z" />
    <glyph glyph-name="Lslash" unicode="&#x141;" horiz-adv-x="370" 
d="M333 57q15 0 15 -14v-30q0 -13 -14 -13h-239q-8 0 -12.5 3t-4.5 12v322l-58 -46q-5 -5 -9 -3.5t-4 6.5v40q0 7 2.5 9.5l7.5 7.5l61 49v274q0 8 2.5 11.5t11.5 3.5h36q10 0 13 -3.5t3 -11.5v-232l94 75q6 5 10.5 3.5t4.5 -9.5v-34q0 -8 -3 -12t-8 -8l-98 -78v-322h189z
" />
    <glyph glyph-name="Ldot" unicode="&#x13f;" horiz-adv-x="378" 
d="M339 57q15 0 15 -14v-30q0 -13 -14 -13h-239q-8 0 -12.5 3t-4.5 12v659q0 8 3 11.5t13 3.5h34q10 0 13 -3.5t3 -11.5v-617h189zM334 384q0 -20 -11 -31t-30 -11q-43 0 -43 42q0 43 43 43q41 0 41 -43z" />
    <glyph glyph-name="Nacute" unicode="&#x143;" horiz-adv-x="582" 
d="M499 15q0 -9 -4 -12t-12 -3h-34q-18 0 -25 13l-200 399q-20 42 -41 84t-40 87q2 -48 2.5 -98.5t0.5 -95.5v-375q0 -14 -14 -14h-34q-14 0 -14 14v661q0 14 17 14h38q15 0 20 -11l198 -394q20 -40 42 -85t42 -90q-3 45 -4 93.5t-1 93.5v378q0 15 14 15h34q15 0 15 -15
v-659zM336 870q13 13 24 -1l20 -26q9 -12 -7 -24l-112 -82q-7 -5 -11.5 -4.5t-9.5 6.5l-10 12q-8 10 5 22z" />
    <glyph glyph-name="Ncaron" unicode="&#x147;" horiz-adv-x="582" 
d="M499 15q0 -9 -4 -12t-12 -3h-34q-18 0 -25 13l-200 399q-20 42 -41 84t-40 87q2 -48 2.5 -98.5t0.5 -95.5v-375q0 -14 -14 -14h-34q-14 0 -14 14v661q0 14 17 14h38q15 0 20 -11l198 -394q20 -40 42 -85t42 -90q-3 45 -4 93.5t-1 93.5v378q0 15 14 15h34q15 0 15 -15
v-659zM368 874q3 4 7.5 5.5t9.5 -3.5l14 -14q7 -5 0 -14l-80 -103q-7 -7 -17 -7h-14q-11 0 -16 7l-78 102q-6 8 1 15l14 13q8 8 16 0l71 -74z" />
    <glyph glyph-name="Ntilde" unicode="&#xd1;" horiz-adv-x="582" 
d="M499 15q0 -9 -4 -12t-12 -3h-34q-18 0 -25 13l-200 399q-20 42 -41 84t-40 87q2 -48 2.5 -98.5t0.5 -95.5v-375q0 -14 -14 -14h-34q-14 0 -14 14v661q0 14 17 14h38q15 0 20 -11l198 -394q20 -40 42 -85t42 -90q-3 45 -4 93.5t-1 93.5v378q0 15 14 15h34q15 0 15 -15
v-659zM414 812q2 -3 3 -7.5t-3 -8.5q-13 -15 -34.5 -27.5t-43.5 -12.5q-17 0 -29 6t-22.5 12.5t-20 12.5t-21.5 6q-14 0 -25 -6.5t-24 -16.5q-10 -8 -15 2l-12 22q-4 7 2 13q12 11 31.5 22.5t44.5 11.5q16 0 28 -5.5t22 -12.5t19 -12.5t20 -5.5q16 0 28 7t22 18q10 10 17 1z
" />
    <glyph glyph-name="Ncommaaccent" unicode="&#x145;" horiz-adv-x="582" 
d="M499 15q0 -9 -4 -12t-12 -3h-34q-18 0 -25 13l-200 399q-20 42 -41 84t-40 87q2 -48 2.5 -98.5t0.5 -95.5v-375q0 -14 -14 -14h-34q-14 0 -14 14v661q0 14 17 14h38q15 0 20 -11l198 -394q20 -40 42 -85t42 -90q-3 45 -4 93.5t-1 93.5v378q0 15 14 15h34q15 0 15 -15
v-659zM329 -96q0 -35 -16 -68.5t-42 -56.5q-7 -5 -14 0l-6 7q-4 5 2 11q11 12 18.5 27t7.5 32q0 10 -4 18.5t-8.5 16t-8 15t-3.5 16.5q0 16 9.5 25t23.5 9q18 0 29.5 -15t11.5 -37z" />
    <glyph glyph-name="Eng" unicode="&#x14a;" horiz-adv-x="582" 
d="M499 11q0 -62 -8 -108t-34 -74q-14 -15 -36.5 -24t-58.5 -9q-7 0 -19.5 1.5t-21.5 3.5q-5 2 -8.5 5t-2.5 9l4 29q3 9 13 8q8 -1 16.5 -2.5t18.5 -1.5q17 0 33 7.5t25 25.5q8 17 11.5 44t3.5 62v9l-211 416q-21 42 -41.5 84t-39.5 87q2 -48 2.5 -98.5t0.5 -95.5v-375
q0 -14 -14 -14h-34q-14 0 -14 14v661q0 14 17 14h38q15 0 20 -11l198 -394q20 -40 42 -85t42 -90q-3 45 -4 93.5t-1 93.5v378q0 15 14 15h34q15 0 15 -15v-663z" />
    <glyph glyph-name="Ograve" unicode="&#xd2;" horiz-adv-x="552" 
d="M502 349q0 -90 -17 -157t-47.5 -112t-72.5 -67.5t-92 -22.5q-108 0 -165.5 88.5t-57.5 263.5q0 87 16.5 153.5t46.5 112.5t72.5 69.5t94.5 23.5q56 0 97.5 -24.5t69.5 -70t41.5 -110.5t13.5 -147zM429 346q0 146 -36.5 222t-115.5 76q-37 0 -66 -21t-48.5 -59.5
t-29.5 -94t-10 -124.5q0 -147 37 -223t115 -76q73 0 113.5 77t40.5 223zM213 872q5 7 11.5 7.5t12.5 -6.5l105 -102q9 -9 3 -17l-11 -13q-5 -6 -9 -6.5t-12 4.5l-118 87q-12 7 -4 18z" />
    <glyph glyph-name="Oacute" unicode="&#xd3;" horiz-adv-x="552" 
d="M502 349q0 -90 -17 -157t-47.5 -112t-72.5 -67.5t-92 -22.5q-108 0 -165.5 88.5t-57.5 263.5q0 87 16.5 153.5t46.5 112.5t72.5 69.5t94.5 23.5q56 0 97.5 -24.5t69.5 -70t41.5 -110.5t13.5 -147zM429 346q0 146 -36.5 222t-115.5 76q-37 0 -66 -21t-48.5 -59.5
t-29.5 -94t-10 -124.5q0 -147 37 -223t115 -76q73 0 113.5 77t40.5 223zM307 870q13 13 24 -1l20 -26q9 -12 -7 -24l-112 -82q-7 -5 -11.5 -4.5t-9.5 6.5l-10 12q-8 10 5 22z" />
    <glyph glyph-name="Ocircumflex" unicode="&#xd4;" horiz-adv-x="552" 
d="M502 349q0 -90 -17 -157t-47.5 -112t-72.5 -67.5t-92 -22.5q-108 0 -165.5 88.5t-57.5 263.5q0 87 16.5 153.5t46.5 112.5t72.5 69.5t94.5 23.5q56 0 97.5 -24.5t69.5 -70t41.5 -110.5t13.5 -147zM429 346q0 146 -36.5 222t-115.5 76q-37 0 -66 -21t-48.5 -59.5
t-29.5 -94t-10 -124.5q0 -147 37 -223t115 -76q73 0 113.5 77t40.5 223zM198 746q-3 -3 -7 -4t-9 4l-14 14q-6 6 1 13l85 104q6 7 17 7h13q10 0 15 -6l83 -103q6 -8 1 -14l-14 -14q-7 -8 -16 1l-76 74z" />
    <glyph glyph-name="Otilde" unicode="&#xd5;" horiz-adv-x="552" 
d="M502 349q0 -90 -17 -157t-47.5 -112t-72.5 -67.5t-92 -22.5q-108 0 -165.5 88.5t-57.5 263.5q0 87 16.5 153.5t46.5 112.5t72.5 69.5t94.5 23.5q56 0 97.5 -24.5t69.5 -70t41.5 -110.5t13.5 -147zM429 346q0 146 -36.5 222t-115.5 76q-37 0 -66 -21t-48.5 -59.5
t-29.5 -94t-10 -124.5q0 -147 37 -223t115 -76q73 0 113.5 77t40.5 223zM402 811q2 -3 3 -7.5t-3 -8.5q-13 -15 -34.5 -27.5t-43.5 -12.5q-17 0 -29 6t-22.5 12.5t-20 12.5t-21.5 6q-14 0 -25 -6.5t-24 -16.5q-10 -8 -15 2l-12 22q-4 7 2 13q12 11 31.5 22.5t44.5 11.5
q16 0 28 -5.5t22 -12.5t19 -12.5t20 -5.5q16 0 28 7t22 18q10 10 17 1z" />
    <glyph glyph-name="Odieresis" unicode="&#xd6;" horiz-adv-x="552" 
d="M502 349q0 -90 -17 -157t-47.5 -112t-72.5 -67.5t-92 -22.5q-108 0 -165.5 88.5t-57.5 263.5q0 87 16.5 153.5t46.5 112.5t72.5 69.5t94.5 23.5q56 0 97.5 -24.5t69.5 -70t41.5 -110.5t13.5 -147zM429 346q0 146 -36.5 222t-115.5 76q-37 0 -66 -21t-48.5 -59.5
t-29.5 -94t-10 -124.5q0 -147 37 -223t115 -76q73 0 113.5 77t40.5 223zM240 795q0 -17 -11.5 -27.5t-25.5 -10.5q-16 0 -27 9.5t-11 28.5q0 18 10.5 28t27.5 10q15 0 26 -10t11 -28zM388 795q0 -17 -11 -27.5t-26 -10.5q-16 0 -27 9.5t-11 28.5q0 18 10.5 28t27.5 10
q15 0 26 -10t11 -28z" />
    <glyph glyph-name="Omacron" unicode="&#x14c;" horiz-adv-x="552" 
d="M502 349q0 -90 -17 -157t-47.5 -112t-72.5 -67.5t-92 -22.5q-108 0 -165.5 88.5t-57.5 263.5q0 87 16.5 153.5t46.5 112.5t72.5 69.5t94.5 23.5q56 0 97.5 -24.5t69.5 -70t41.5 -110.5t13.5 -147zM429 346q0 146 -36.5 222t-115.5 76q-37 0 -66 -21t-48.5 -59.5
t-29.5 -94t-10 -124.5q0 -147 37 -223t115 -76q73 0 113.5 77t40.5 223zM190 773q-9 0 -13 2.5t-4 12.5v20q0 9 4 11.5t13 2.5h174q8 0 11.5 -2.5t3.5 -11.5v-20q0 -10 -4 -12.5t-14 -2.5h-171z" />
    <glyph glyph-name="Obreve" unicode="&#x14e;" horiz-adv-x="552" 
d="M502 349q0 -90 -17 -157t-47.5 -112t-72.5 -67.5t-92 -22.5q-108 0 -165.5 88.5t-57.5 263.5q0 87 16.5 153.5t46.5 112.5t72.5 69.5t94.5 23.5q56 0 97.5 -24.5t69.5 -70t41.5 -110.5t13.5 -147zM429 346q0 146 -36.5 222t-115.5 76q-37 0 -66 -21t-48.5 -59.5
t-29.5 -94t-10 -124.5q0 -147 37 -223t115 -76q73 0 113.5 77t40.5 223zM278 754q-54 0 -81 29.5t-27 73.5q0 11 13 11h23q13 0 13 -11q1 -28 15.5 -44t44.5 -16t44 16t16 44q0 11 13 11h23q12 0 12 -11q0 -44 -27.5 -73.5t-81.5 -29.5z" />
    <glyph glyph-name="Ohungarumlaut" unicode="&#x150;" horiz-adv-x="552" 
d="M502 349q0 -90 -17 -157t-47.5 -112t-72.5 -67.5t-92 -22.5q-108 0 -165.5 88.5t-57.5 263.5q0 87 16.5 153.5t46.5 112.5t72.5 69.5t94.5 23.5q56 0 97.5 -24.5t69.5 -70t41.5 -110.5t13.5 -147zM429 346q0 146 -36.5 222t-115.5 76q-37 0 -66 -21t-48.5 -59.5
t-29.5 -94t-10 -124.5q0 -147 37 -223t115 -76q73 0 113.5 77t40.5 223zM256 865q13 15 25 0l16 -22q7 -9 -2 -16l-104 -84q-13 -10 -21 1l-8 10q-5 6 3 16zM419 865q13 15 25 0l16 -22q7 -9 -2 -16l-104 -84q-13 -10 -21 1l-8 10q-5 6 3 16z" />
    <glyph glyph-name="Oslash" unicode="&#xd8;" horiz-adv-x="562" 
d="M508 349q0 -90 -17 -157t-47.5 -112t-72.5 -67.5t-92 -22.5q-77 0 -128 45l-32 -60q-8 -17 -22 -8l-21 12q-11 7 -4 20l42 80q-58 90 -58 263q0 87 16.5 153.5t46.5 112.5t72.5 69.5t94.5 23.5q75 0 126 -45l35 64q5 11 17 5l26 -15q4 -2 5.5 -6t-2.5 -11l-43 -83
q29 -46 43.5 -111.5t14.5 -149.5zM129 345q0 -122 26 -197l227 446q-36 50 -99 50q-37 0 -66 -21t-48.5 -59.5t-29.5 -94t-10 -124.5zM435 346q0 119 -26 194l-227 -444q36 -50 99 -50q73 0 113.5 77t40.5 223z" />
    <glyph glyph-name="Oslashacute" unicode="&#x1fe;" horiz-adv-x="562" 
d="M328 871q13 13 24 -1l20 -26q9 -12 -7 -24l-112 -82q-7 -5 -11.5 -4.5t-9.5 6.5l-10 12q-8 10 5 22zM508 349q0 -90 -17 -157t-47.5 -112t-72.5 -67.5t-92 -22.5q-77 0 -128 45l-32 -60q-8 -17 -22 -8l-21 12q-11 7 -4 20l42 80q-58 90 -58 263q0 87 16.5 153.5
t46.5 112.5t72.5 69.5t94.5 23.5q75 0 126 -45l35 64q5 11 17 5l26 -15q4 -2 5.5 -6t-2.5 -11l-43 -83q29 -46 43.5 -111.5t14.5 -149.5zM129 345q0 -122 26 -197l227 446q-36 50 -99 50q-37 0 -66 -21t-48.5 -59.5t-29.5 -94t-10 -124.5zM435 346q0 119 -26 194l-227 -444
q36 -50 99 -50q73 0 113.5 77t40.5 223z" />
    <glyph glyph-name="OE" unicode="&#x152;" horiz-adv-x="753" 
d="M687 55q9 0 12 -2.5t3 -9.5v-30q0 -13 -15 -13h-264q-17 0 -17 16v24q-30 -26 -68 -38t-75 -12q-105 0 -160 89t-55 256q0 178 61 272t169 94q77 0 128 -48v21q0 15 16 15h264q14 0 14 -13l-2 -28q-1 -8 -5.5 -10.5t-14.5 -2.5h-206v-247h184q14 0 14 -13v-29
q0 -13 -15 -13h-183v-278h215zM276 47q34 0 69 15t61 41v482q-20 23 -51.5 40t-71.5 17q-80 0 -121.5 -80.5t-41.5 -221.5q0 -68 9.5 -122t29 -92t49 -58.5t68.5 -20.5z" />
    <glyph glyph-name="Thorn" unicode="&#xde;" horiz-adv-x="460" 
d="M82 682q0 12 11 13l38 4q13 1 13 -11v-165q23 23 51.5 38.5t64.5 15.5q41 0 71 -16.5t50 -46t29.5 -70.5t9.5 -89q0 -111 -45 -174.5t-126 -63.5q-32 0 -59 13t-46 35v-151q0 -14 -15 -14h-33q-14 0 -14 14v668zM244 526q-27 0 -53.5 -16t-46.5 -40v-246q16 -25 41 -40.5
t55 -15.5q55 0 84.5 48t29.5 135q0 38 -6.5 70t-20 55.5t-34.5 36.5t-49 13z" />
    <glyph glyph-name="Racute" unicode="&#x154;" horiz-adv-x="464" 
d="M150 14q0 -14 -14 -14h-38q-14 0 -14 14v660q0 8 2.5 11.5t13.5 3.5h112q95 0 146 -46t51 -153q0 -36 -9.5 -67.5t-26 -56.5t-39 -43t-49.5 -26l139 -281q3 -6 1.5 -11t-9.5 -5h-42q-10 0 -13.5 2.5t-7.5 9.5l-129 276h-74v-274zM216 340q56 0 90 36.5t34 113.5
q0 42 -9.5 70t-27 45t-42.5 24t-56 7h-55v-296h66zM270 871q13 13 24 -1l20 -26q9 -12 -7 -24l-112 -82q-7 -5 -11.5 -4.5t-9.5 6.5l-10 12q-8 10 5 22z" />
    <glyph glyph-name="Rcaron" unicode="&#x158;" horiz-adv-x="464" 
d="M150 14q0 -14 -14 -14h-38q-14 0 -14 14v660q0 8 2.5 11.5t13.5 3.5h112q95 0 146 -46t51 -153q0 -36 -9.5 -67.5t-26 -56.5t-39 -43t-49.5 -26l139 -281q3 -6 1.5 -11t-9.5 -5h-42q-10 0 -13.5 2.5t-7.5 9.5l-129 276h-74v-274zM216 340q56 0 90 36.5t34 113.5
q0 42 -9.5 70t-27 45t-42.5 24t-56 7h-55v-296h66zM294 875q3 4 7.5 5.5t9.5 -3.5l14 -14q7 -5 0 -14l-80 -103q-7 -7 -17 -7h-14q-11 0 -16 7l-78 102q-6 8 1 15l14 13q8 8 16 0l71 -74z" />
    <glyph glyph-name="Rcommaaccent" unicode="&#x156;" horiz-adv-x="464" 
d="M150 14q0 -14 -14 -14h-38q-14 0 -14 14v660q0 8 2.5 11.5t13.5 3.5h112q95 0 146 -46t51 -153q0 -36 -9.5 -67.5t-26 -56.5t-39 -43t-49.5 -26l139 -281q3 -6 1.5 -11t-9.5 -5h-42q-10 0 -13.5 2.5t-7.5 9.5l-129 276h-74v-274zM216 340q56 0 90 36.5t34 113.5
q0 42 -9.5 70t-27 45t-42.5 24t-56 7h-55v-296h66zM286 -96q0 -35 -16 -68.5t-42 -56.5q-7 -5 -14 0l-6 7q-4 5 2 11q11 12 18.5 27t7.5 32q0 10 -4 18.5t-8.5 16t-8 15t-3.5 16.5q0 16 9.5 25t23.5 9q18 0 29.5 -15t11.5 -37z" />
    <glyph glyph-name="Sacute" unicode="&#x15a;" horiz-adv-x="427" 
d="M66 13q-8 3 -9.5 6.5t0.5 11.5l10 32q4 13 19 7q26 -9 53 -15t53 -6q22 0 44 6.5t39 21t27.5 38t10.5 58.5q0 49 -22 78.5t-54 52.5l-96 68q-42 29 -64.5 68.5t-22.5 94.5q0 41 14 72t38 52t57 31.5t71 10.5q32 0 59.5 -6.5t52.5 -17.5q12 -6 8 -17l-9 -28q-4 -13 -20 -6
q-23 9 -46.5 14t-41.5 5q-47 0 -79.5 -25t-32.5 -82q0 -45 20 -72.5t44 -44.5l86 -60q23 -16 42.5 -33.5t34 -39t23 -48t8.5 -61.5q0 -48 -14.5 -84t-40 -59t-60.5 -34.5t-76 -11.5q-30 0 -63 6t-63 17zM271 871q13 13 24 -1l20 -26q9 -12 -7 -24l-112 -82q-7 -5 -11.5 -4.5
t-9.5 6.5l-10 12q-8 10 5 22z" />
    <glyph glyph-name="Scircumflex" unicode="&#x15c;" horiz-adv-x="427" 
d="M66 13q-8 3 -9.5 6.5t0.5 11.5l10 32q4 13 19 7q26 -9 53 -15t53 -6q22 0 44 6.5t39 21t27.5 38t10.5 58.5q0 49 -22 78.5t-54 52.5l-96 68q-42 29 -64.5 68.5t-22.5 94.5q0 41 14 72t38 52t57 31.5t71 10.5q32 0 59.5 -6.5t52.5 -17.5q12 -6 8 -17l-9 -28q-4 -13 -20 -6
q-23 9 -46.5 14t-41.5 5q-47 0 -79.5 -25t-32.5 -82q0 -45 20 -72.5t44 -44.5l86 -60q23 -16 42.5 -33.5t34 -39t23 -48t8.5 -61.5q0 -48 -14.5 -84t-40 -59t-60.5 -34.5t-76 -11.5q-30 0 -63 6t-63 17zM146 741q-3 -3 -7 -4t-9 4l-14 14q-6 6 1 13l85 104q6 7 17 7h13
q10 0 15 -6l83 -103q6 -8 1 -14l-14 -14q-7 -8 -16 1l-76 74z" />
    <glyph glyph-name="Scaron" unicode="&#x160;" horiz-adv-x="427" 
d="M66 13q-8 3 -9.5 6.5t0.5 11.5l10 32q4 13 19 7q26 -9 53 -15t53 -6q22 0 44 6.5t39 21t27.5 38t10.5 58.5q0 49 -22 78.5t-54 52.5l-96 68q-42 29 -64.5 68.5t-22.5 94.5q0 41 14 72t38 52t57 31.5t71 10.5q32 0 59.5 -6.5t52.5 -17.5q12 -6 8 -17l-9 -28q-4 -13 -20 -6
q-23 9 -46.5 14t-41.5 5q-47 0 -79.5 -25t-32.5 -82q0 -45 20 -72.5t44 -44.5l86 -60q23 -16 42.5 -33.5t34 -39t23 -48t8.5 -61.5q0 -48 -14.5 -84t-40 -59t-60.5 -34.5t-76 -11.5q-30 0 -63 6t-63 17zM295 875q3 4 7.5 5.5t9.5 -3.5l14 -14q7 -5 0 -14l-80 -103
q-7 -7 -17 -7h-14q-11 0 -16 7l-78 102q-6 8 1 15l14 13q8 8 16 0l71 -74z" />
    <glyph glyph-name="Scedilla" unicode="&#x15e;" horiz-adv-x="427" 
d="M302 -115q0 -33 -19 -57.5t-62 -24.5q-11 0 -28 2.5t-26 7.5q-8 5 -5 12l4 13q1 4 4.5 4.5t7.5 -1.5q8 -3 18.5 -4.5t18.5 -1.5q20 0 30.5 9.5t10.5 33.5q0 27 -15 34t-35 7h-18q-9 0 -11.5 4t-1.5 12l6 55q-28 2 -58 7.5t-57 15.5q-8 3 -9.5 6.5t0.5 11.5l10 32
q3 13 19 7q26 -9 53 -15t53 -6q22 0 44 6.5t39 21t27.5 38t10.5 58.5q0 49 -22 78.5t-54 52.5l-96 68q-41 29 -64 68.5t-23 94.5q0 41 14 72t38 52t57 31.5t71 10.5q32 0 59.5 -6.5t52.5 -17.5q12 -6 8 -17l-9 -28q-2 -8 -7.5 -8.5t-12.5 2.5q-23 9 -46.5 14t-41.5 5
q-47 0 -79.5 -25t-32.5 -82q0 -45 20 -72.5t44 -44.5l86 -60q23 -16 42.5 -33.5t34 -39t23 -48t8.5 -61.5q0 -44 -12 -77t-33.5 -56.5t-51 -36.5t-64.5 -17l-2 -41h13q27 -2 48 -16t21 -50z" />
    <glyph glyph-name="Scommaaccent" unicode="&#x218;" horiz-adv-x="427" 
d="M66 13q-8 3 -9.5 6.5t0.5 11.5l10 32q4 13 19 7q26 -9 53 -15t53 -6q22 0 44 6.5t39 21t27.5 38t10.5 58.5q0 49 -22 78.5t-54 52.5l-96 68q-42 29 -64.5 68.5t-22.5 94.5q0 41 14 72t38 52t57 31.5t71 10.5q32 0 59.5 -6.5t52.5 -17.5q12 -6 8 -17l-9 -28q-4 -13 -20 -6
q-23 9 -46.5 14t-41.5 5q-47 0 -79.5 -25t-32.5 -82q0 -45 20 -72.5t44 -44.5l86 -60q23 -16 42.5 -33.5t34 -39t23 -48t8.5 -61.5q0 -48 -14.5 -84t-40 -59t-60.5 -34.5t-76 -11.5q-30 0 -63 6t-63 17zM250 -96q0 -35 -16 -68.5t-42 -56.5q-7 -5 -14 0l-6 7q-4 5 2 11
q11 12 18.5 27t7.5 32q0 10 -4 18.5t-8.5 16t-8 15t-3.5 16.5q0 16 9.5 25t23.5 9q18 0 29.5 -15t11.5 -37z" />
    <glyph glyph-name="Tcaron" unicode="&#x164;" horiz-adv-x="445" 
d="M254 14q0 -14 -15 -14h-36q-15 0 -15 14v620h-153q-13 0 -13 12v32q0 11 14 11h376q16 0 14 -11l-4 -32q-1 -12 -15 -12h-153v-620zM295 875q3 4 7.5 5.5t9.5 -3.5l14 -14q7 -5 0 -14l-80 -103q-7 -7 -17 -7h-14q-11 0 -16 7l-78 102q-6 8 1 15l14 13q8 8 16 0l71 -74z
" />
    <glyph glyph-name="Tcommaaccent" unicode="&#x162;" horiz-adv-x="445" 
d="M254 14q0 -14 -15 -14h-36q-15 0 -15 14v620h-153q-13 0 -13 12v32q0 11 14 11h376q16 0 14 -11l-4 -32q-1 -12 -15 -12h-153v-620zM256 -96q0 -35 -16 -68.5t-42 -56.5q-7 -5 -14 0l-6 7q-4 5 2 11q11 12 18.5 27t7.5 32q0 10 -4 18.5t-8.5 16t-8 15t-3.5 16.5
q0 16 9.5 25t23.5 9q18 0 29.5 -15t11.5 -37z" />
    <glyph glyph-name="uni021A" unicode="&#x21a;" horiz-adv-x="445" 
d="M254 14q0 -14 -15 -14h-36q-15 0 -15 14v620h-153q-13 0 -13 12v32q0 11 14 11h376q16 0 14 -11l-4 -32q-1 -12 -15 -12h-153v-620zM258 -96q0 -35 -16 -68.5t-42 -56.5q-7 -5 -14 0l-6 7q-4 5 2 11q11 12 18.5 27t7.5 32q0 10 -4 18.5t-8.5 16t-8 15t-3.5 16.5
q0 16 9.5 25t23.5 9q18 0 29.5 -15t11.5 -37z" />
    <glyph glyph-name="Tbar" unicode="&#x166;" horiz-adv-x="451" 
d="M257 381h76q16 0 16 -15v-15q0 -10 -4 -12.5t-11 -2.5h-77v-322q0 -14 -15 -14h-36q-15 0 -15 14v322h-76q-15 0 -15 13v20q0 12 15 12h76v253h-153q-13 0 -13 12v32q0 11 14 11h376q16 0 14 -11l-4 -32q-1 -12 -15 -12h-153v-253z" />
    <glyph glyph-name="Ugrave" unicode="&#xd9;" horiz-adv-x="576" 
d="M497 294q0 -71 -10.5 -127.5t-35 -95.5t-66 -60t-102.5 -21q-63 0 -102.5 21.5t-62 61.5t-30.5 97.5t-8 130.5v374q0 14 15 14h36q15 0 15 -15v-364q0 -59 4.5 -107.5t19 -83.5t42.5 -54t76 -19q46 0 74.5 19t43.5 54t20 83.5t5 107.5v365q0 14 16 14h35q15 0 15 -15
v-380zM227 870q5 7 11.5 7.5t12.5 -6.5l105 -102q9 -9 3 -17l-11 -13q-5 -6 -9 -6.5t-12 4.5l-118 87q-12 7 -4 18z" />
    <glyph glyph-name="Uacute" unicode="&#xda;" horiz-adv-x="576" 
d="M497 294q0 -71 -10.5 -127.5t-35 -95.5t-66 -60t-102.5 -21q-63 0 -102.5 21.5t-62 61.5t-30.5 97.5t-8 130.5v374q0 14 15 14h36q15 0 15 -15v-364q0 -59 4.5 -107.5t19 -83.5t42.5 -54t76 -19q46 0 74.5 19t43.5 54t20 83.5t5 107.5v365q0 14 16 14h35q15 0 15 -15
v-380zM322 870q13 13 24 -1l20 -26q9 -12 -7 -24l-112 -82q-7 -5 -11.5 -4.5t-9.5 6.5l-10 12q-8 10 5 22z" />
    <glyph glyph-name="Ucircumflex" unicode="&#xdb;" horiz-adv-x="576" 
d="M497 294q0 -71 -10.5 -127.5t-35 -95.5t-66 -60t-102.5 -21q-63 0 -102.5 21.5t-62 61.5t-30.5 97.5t-8 130.5v374q0 14 15 14h36q15 0 15 -15v-364q0 -59 4.5 -107.5t19 -83.5t42.5 -54t76 -19q46 0 74.5 19t43.5 54t20 83.5t5 107.5v365q0 14 16 14h35q15 0 15 -15
v-380zM212 742q-3 -3 -7 -4t-9 4l-14 14q-6 6 1 13l85 104q6 7 17 7h13q10 0 15 -6l83 -103q6 -8 1 -14l-14 -14q-7 -8 -16 1l-76 74z" />
    <glyph glyph-name="Utilde" unicode="&#x168;" horiz-adv-x="576" 
d="M497 294q0 -71 -10.5 -127.5t-35 -95.5t-66 -60t-102.5 -21q-63 0 -102.5 21.5t-62 61.5t-30.5 97.5t-8 130.5v374q0 14 15 14h36q15 0 15 -15v-364q0 -59 4.5 -107.5t19 -83.5t42.5 -54t76 -19q46 0 74.5 19t43.5 54t20 83.5t5 107.5v365q0 14 16 14h35q15 0 15 -15
v-380zM410 810q2 -3 3 -7.5t-3 -8.5q-13 -15 -34.5 -27.5t-43.5 -12.5q-17 0 -29 6t-22.5 12.5t-20 12.5t-21.5 6q-14 0 -25 -6.5t-24 -16.5q-10 -8 -15 2l-12 22q-4 7 2 13q12 11 31.5 22.5t44.5 11.5q16 0 28 -5.5t22 -12.5t19 -12.5t20 -5.5q16 0 28 7t22 18q10 10 17 1z
" />
    <glyph glyph-name="Udieresis" unicode="&#xdc;" horiz-adv-x="576" 
d="M497 294q0 -71 -10.5 -127.5t-35 -95.5t-66 -60t-102.5 -21q-63 0 -102.5 21.5t-62 61.5t-30.5 97.5t-8 130.5v374q0 14 15 14h36q15 0 15 -15v-364q0 -59 4.5 -107.5t19 -83.5t42.5 -54t76 -19q46 0 74.5 19t43.5 54t20 83.5t5 107.5v365q0 14 16 14h35q15 0 15 -15
v-380zM251 794q0 -17 -11.5 -27.5t-25.5 -10.5q-16 0 -27 9.5t-11 28.5q0 18 10.5 28t27.5 10q15 0 26 -10t11 -28zM399 794q0 -17 -11 -27.5t-26 -10.5q-16 0 -27 9.5t-11 28.5q0 18 10.5 28t27.5 10q15 0 26 -10t11 -28z" />
    <glyph glyph-name="Umacron" unicode="&#x16a;" horiz-adv-x="576" 
d="M497 294q0 -71 -10.5 -127.5t-35 -95.5t-66 -60t-102.5 -21q-63 0 -102.5 21.5t-62 61.5t-30.5 97.5t-8 130.5v374q0 14 15 14h36q15 0 15 -15v-364q0 -59 4.5 -107.5t19 -83.5t42.5 -54t76 -19q46 0 74.5 19t43.5 54t20 83.5t5 107.5v365q0 14 16 14h35q15 0 15 -15
v-380zM203 773q-9 0 -13 2.5t-4 12.5v20q0 9 4 11.5t13 2.5h174q8 0 11.5 -2.5t3.5 -11.5v-20q0 -10 -4 -12.5t-14 -2.5h-171z" />
    <glyph glyph-name="Ubreve" unicode="&#x16c;" horiz-adv-x="576" 
d="M497 294q0 -71 -10.5 -127.5t-35 -95.5t-66 -60t-102.5 -21q-63 0 -102.5 21.5t-62 61.5t-30.5 97.5t-8 130.5v374q0 14 15 14h36q15 0 15 -15v-364q0 -59 4.5 -107.5t19 -83.5t42.5 -54t76 -19q46 0 74.5 19t43.5 54t20 83.5t5 107.5v365q0 14 16 14h35q15 0 15 -15
v-380zM289 754q-54 0 -81 29.5t-27 73.5q0 11 13 11h23q13 0 13 -11q1 -28 15.5 -44t44.5 -16t44 16t16 44q0 11 13 11h23q12 0 12 -11q0 -44 -27.5 -73.5t-81.5 -29.5z" />
    <glyph glyph-name="Uring" unicode="&#x16e;" horiz-adv-x="576" 
d="M497 294q0 -71 -10.5 -127.5t-35 -95.5t-66 -60t-102.5 -21q-63 0 -102.5 21.5t-62 61.5t-30.5 97.5t-8 130.5v374q0 14 15 14h36q15 0 15 -15v-364q0 -59 4.5 -107.5t19 -83.5t42.5 -54t76 -19q46 0 74.5 19t43.5 54t20 83.5t5 107.5v365q0 14 16 14h35q15 0 15 -15
v-380zM364 830q0 -36 -21 -60.5t-55 -24.5q-33 0 -54.5 24.5t-21.5 60.5q0 37 21.5 61.5t54.5 24.5q34 0 55 -24.5t21 -61.5zM326 832q0 20 -9.5 35t-27.5 15t-28.5 -15t-10.5 -35q0 -23 10.5 -37.5t28.5 -14.5t27.5 14.5t9.5 37.5z" />
    <glyph glyph-name="Uhungarumlaut" unicode="&#x170;" horiz-adv-x="576" 
d="M497 294q0 -71 -10.5 -127.5t-35 -95.5t-66 -60t-102.5 -21q-63 0 -102.5 21.5t-62 61.5t-30.5 97.5t-8 130.5v374q0 14 15 14h36q15 0 15 -15v-364q0 -59 4.5 -107.5t19 -83.5t42.5 -54t76 -19q46 0 74.5 19t43.5 54t20 83.5t5 107.5v365q0 14 16 14h35q15 0 15 -15
v-380zM268 866q13 15 25 0l16 -22q7 -9 -2 -16l-104 -84q-13 -10 -21 1l-8 10q-5 6 3 16zM431 866q13 15 25 0l16 -22q7 -9 -2 -16l-104 -84q-13 -10 -21 1l-8 10q-5 6 3 16z" />
    <glyph glyph-name="Uogonek" unicode="&#x172;" horiz-adv-x="576" 
d="M224 -123q0 41 19 67t55 46h-15q-63 0 -102.5 22t-62 62.5t-30.5 98.5t-8 131v371q0 14 15 14h36q15 0 15 -15v-361q0 -59 4.5 -108t19 -84.5t42.5 -55t76 -19.5q46 0 74.5 19.5t43.5 55t20 84.5t5 108v362q0 14 16 14h35q15 0 15 -15v-377q0 -59 -6.5 -106.5t-21 -83.5
t-39 -62t-60.5 -42q-47 -21 -71.5 -52t-24.5 -63q0 -33 14.5 -45t31.5 -12q10 0 20.5 2t18.5 5q11 5 13 -4l3 -17q0 -2 -1.5 -4.5t-6.5 -4.5q-14 -6 -29 -8.5t-30 -2.5q-42 0 -63 23.5t-21 56.5z" />
    <glyph glyph-name="Wgrave" unicode="&#x1e80;" horiz-adv-x="737" 
d="M374 616q-8 -54 -17.5 -110.5t-20.5 -110.5l-74 -381q-3 -14 -17 -14h-47q-14 0 -17 15l-143 659q-2 5 1 10t11 5h38q17 0 19 -13l78 -391q11 -56 20.5 -111t17.5 -107q8 53 18 109t20 110l73 391q3 12 19 12h45q6 0 11 -2t7 -9l74 -391q11 -54 20.5 -110t17.5 -107
q8 53 17.5 108t20.5 110l78 388q2 13 16 13h36q8 0 10.5 -4.5t1.5 -9.5l-141 -662q-3 -13 -17 -13h-50q-14 0 -17 14l-71 382q-11 56 -20.5 111t-17.5 109zM296 871q5 7 11.5 7.5t12.5 -6.5l105 -102q9 -9 3 -17l-11 -13q-5 -6 -9 -6.5t-12 4.5l-118 87q-12 7 -4 18z" />
    <glyph glyph-name="Wacute" unicode="&#x1e82;" horiz-adv-x="737" 
d="M374 616q-8 -54 -17.5 -110.5t-20.5 -110.5l-74 -381q-3 -14 -17 -14h-47q-14 0 -17 15l-143 659q-2 5 1 10t11 5h38q17 0 19 -13l78 -391q11 -56 20.5 -111t17.5 -107q8 53 18 109t20 110l73 391q3 12 19 12h45q6 0 11 -2t7 -9l74 -391q11 -54 20.5 -110t17.5 -107
q8 53 17.5 108t20.5 110l78 388q2 13 16 13h36q8 0 10.5 -4.5t1.5 -9.5l-141 -662q-3 -13 -17 -13h-50q-14 0 -17 14l-71 382q-11 56 -20.5 111t-17.5 109zM427 871q13 13 24 -1l20 -26q9 -12 -7 -24l-112 -82q-7 -5 -11.5 -4.5t-9.5 6.5l-10 12q-8 10 5 22z" />
    <glyph glyph-name="Wcircumflex" unicode="&#x174;" horiz-adv-x="737" 
d="M374 616q-8 -54 -17.5 -110.5t-20.5 -110.5l-74 -381q-3 -14 -17 -14h-47q-14 0 -17 15l-143 659q-2 5 1 10t11 5h38q17 0 19 -13l78 -391q11 -56 20.5 -111t17.5 -107q8 53 18 109t20 110l73 391q3 12 19 12h45q6 0 11 -2t7 -9l74 -391q11 -54 20.5 -110t17.5 -107
q8 53 17.5 108t20.5 110l78 388q2 13 16 13h36q8 0 10.5 -4.5t1.5 -9.5l-141 -662q-3 -13 -17 -13h-50q-14 0 -17 14l-71 382q-11 56 -20.5 111t-17.5 109zM296 740q-3 -3 -7 -4t-9 4l-14 14q-6 6 1 13l85 104q6 7 17 7h13q10 0 15 -6l83 -103q6 -8 1 -14l-14 -14
q-7 -8 -16 1l-76 74z" />
    <glyph glyph-name="Wdieresis" unicode="&#x1e84;" horiz-adv-x="737" 
d="M374 616q-8 -54 -17.5 -110.5t-20.5 -110.5l-74 -381q-3 -14 -17 -14h-47q-14 0 -17 15l-143 659q-2 5 1 10t11 5h38q17 0 19 -13l78 -391q11 -56 20.5 -111t17.5 -107q8 53 18 109t20 110l73 391q3 12 19 12h45q6 0 11 -2t7 -9l74 -391q11 -54 20.5 -110t17.5 -107
q8 53 17.5 108t20.5 110l78 388q2 13 16 13h36q8 0 10.5 -4.5t1.5 -9.5l-141 -662q-3 -13 -17 -13h-50q-14 0 -17 14l-71 382q-11 56 -20.5 111t-17.5 109zM336 794q0 -17 -11.5 -27.5t-25.5 -10.5q-16 0 -27 9.5t-11 28.5q0 18 10.5 28t27.5 10q15 0 26 -10t11 -28z
M484 794q0 -17 -11 -27.5t-26 -10.5q-16 0 -27 9.5t-11 28.5q0 18 10.5 28t27.5 10q15 0 26 -10t11 -28z" />
    <glyph glyph-name="Ygrave" unicode="&#x1ef2;" horiz-adv-x="439" 
d="M258 15q0 -15 -16 -15h-34q-10 0 -13 4t-3 12v248l-163 410q-2 5 0.5 10t10.5 5h39q14 0 19 -12l48 -127q21 -55 41.5 -112t39.5 -113q18 55 38.5 114t40.5 114l45 123q4 13 18 13h35q8 0 9.5 -4.5t-0.5 -10.5l-155 -410v-249zM171 873q5 7 11.5 7.5t12.5 -6.5l105 -102
q9 -9 3 -17l-11 -13q-5 -6 -9 -6.5t-12 4.5l-118 87q-12 7 -4 18z" />
    <glyph glyph-name="Yacute" unicode="&#xdd;" horiz-adv-x="439" 
d="M258 15q0 -15 -16 -15h-34q-10 0 -13 4t-3 12v248l-163 410q-2 5 0.5 10t10.5 5h39q14 0 19 -12l48 -127q21 -55 41.5 -112t39.5 -113q18 55 38.5 114t40.5 114l45 123q4 13 18 13h35q8 0 9.5 -4.5t-0.5 -10.5l-155 -410v-249zM270 870q13 13 24 -1l20 -26q9 -12 -7 -24
l-112 -82q-7 -5 -11.5 -4.5t-9.5 6.5l-10 12q-8 10 5 22z" />
    <glyph glyph-name="Ycircumflex" unicode="&#x176;" horiz-adv-x="439" 
d="M258 15q0 -15 -16 -15h-34q-10 0 -13 4t-3 12v248l-163 410q-2 5 0.5 10t10.5 5h39q14 0 19 -12l48 -127q21 -55 41.5 -112t39.5 -113q18 55 38.5 114t40.5 114l45 123q4 13 18 13h35q8 0 9.5 -4.5t-0.5 -10.5l-155 -410v-249zM147 740q-3 -3 -7 -4t-9 4l-14 14
q-6 6 1 13l85 104q6 7 17 7h13q10 0 15 -6l83 -103q6 -8 1 -14l-14 -14q-7 -8 -16 1l-76 74z" />
    <glyph glyph-name="Ydieresis" unicode="&#x178;" horiz-adv-x="439" 
d="M258 15q0 -15 -16 -15h-34q-10 0 -13 4t-3 12v248l-163 410q-2 5 0.5 10t10.5 5h39q14 0 19 -12l48 -127q21 -55 41.5 -112t39.5 -113q18 55 38.5 114t40.5 114l45 123q4 13 18 13h35q8 0 9.5 -4.5t-0.5 -10.5l-155 -410v-249zM190 793q0 -17 -11.5 -27.5t-25.5 -10.5
q-16 0 -27 9.5t-11 28.5q0 18 10.5 28t27.5 10q15 0 26 -10t11 -28zM338 793q0 -17 -11 -27.5t-26 -10.5q-16 0 -27 9.5t-11 28.5q0 18 10.5 28t27.5 10q15 0 26 -10t11 -28z" />
    <glyph glyph-name="Zacute" unicode="&#x179;" horiz-adv-x="436" 
d="M70 634q-14 0 -14 13v30q0 5 2.5 8.5t10.5 3.5h312q16 0 16 -11v-16q0 -6 -2 -12t-5 -13l-270 -582h263q16 0 16 -13v-29q0 -6 -3 -9.5t-12 -3.5h-327q-15 0 -15 12v12q0 8 1 13.5t5 13.5l270 583h-248zM273 872q13 13 24 -1l20 -26q9 -12 -7 -24l-112 -82
q-7 -5 -11.5 -4.5t-9.5 6.5l-10 12q-8 10 5 22z" />
    <glyph glyph-name="Zcaron" unicode="&#x17d;" horiz-adv-x="436" 
d="M70 634q-14 0 -14 13v30q0 5 2.5 8.5t10.5 3.5h312q16 0 16 -11v-16q0 -6 -2 -12t-5 -13l-270 -582h263q16 0 16 -13v-29q0 -6 -3 -9.5t-12 -3.5h-327q-15 0 -15 12v12q0 8 1 13.5t5 13.5l270 583h-248zM298 875q3 4 7.5 5.5t9.5 -3.5l14 -14q7 -5 0 -14l-80 -103
q-7 -7 -17 -7h-14q-11 0 -16 7l-78 102q-6 8 1 15l14 13q8 8 16 0l71 -74z" />
    <glyph glyph-name="Zdotaccent" unicode="&#x17b;" horiz-adv-x="436" 
d="M70 634q-14 0 -14 13v30q0 5 2.5 8.5t10.5 3.5h312q16 0 16 -11v-16q0 -6 -2 -12t-5 -13l-270 -582h263q16 0 16 -13v-29q0 -6 -3 -9.5t-12 -3.5h-327q-15 0 -15 12v12q0 8 1 13.5t5 13.5l270 583h-248zM265 811q0 -20 -11 -31t-30 -11q-43 0 -43 42q0 43 43 43
q41 0 41 -43z" />
    <glyph glyph-name="agrave" unicode="&#xe0;" horiz-adv-x="458" 
d="M319 373q-18 34 -44 51t-52 17q-51 0 -79.5 -52.5t-28.5 -150.5q0 -88 25.5 -142t76.5 -54q19 0 37 9t32 25q11 12 18.5 26t14.5 31v240zM386 0q-17 0 -27 2.5t-20 11.5q-8 8 -12 21t-4 25v5q-5 -9 -11 -18t-15 -18q-16 -16 -40 -27.5t-54 -11.5q-39 0 -68 18.5t-47.5 51
t-28 77t-9.5 95.5q0 39 7 85t25.5 85t51 65t83.5 26q28 0 56.5 -14t50.5 -45l2 38q1 8 4.5 9.5t13.5 1.5h24q13 0 13 -13v-393q0 -20 5 -27.5t16 -7.5h4q10 0 10 -10v-21q0 -11 -13 -11h-17zM169 701q5 7 11.5 7.5t12.5 -6.5l105 -102q9 -9 3 -17l-11 -13q-5 -6 -9 -6.5
t-12 4.5l-118 87q-12 7 -4 18z" />
    <glyph glyph-name="aacute" unicode="&#xe1;" horiz-adv-x="458" 
d="M319 373q-18 34 -44 51t-52 17q-51 0 -79.5 -52.5t-28.5 -150.5q0 -88 25.5 -142t76.5 -54q19 0 37 9t32 25q11 12 18.5 26t14.5 31v240zM386 0q-17 0 -27 2.5t-20 11.5q-8 8 -12 21t-4 25v5q-5 -9 -11 -18t-15 -18q-16 -16 -40 -27.5t-54 -11.5q-39 0 -68 18.5t-47.5 51
t-28 77t-9.5 95.5q0 39 7 85t25.5 85t51 65t83.5 26q28 0 56.5 -14t50.5 -45l2 38q1 8 4.5 9.5t13.5 1.5h24q13 0 13 -13v-393q0 -20 5 -27.5t16 -7.5h4q10 0 10 -10v-21q0 -11 -13 -11h-17zM265 701q13 13 24 -1l20 -26q9 -12 -7 -24l-112 -82q-7 -5 -11.5 -4.5t-9.5 6.5
l-10 12q-8 10 5 22z" />
    <glyph glyph-name="acircumflex" unicode="&#xe2;" horiz-adv-x="458" 
d="M319 373q-18 34 -44 51t-52 17q-51 0 -79.5 -52.5t-28.5 -150.5q0 -88 25.5 -142t76.5 -54q19 0 37 9t32 25q11 12 18.5 26t14.5 31v240zM386 0q-17 0 -27 2.5t-20 11.5q-8 8 -12 21t-4 25v5q-5 -9 -11 -18t-15 -18q-16 -16 -40 -27.5t-54 -11.5q-39 0 -68 18.5t-47.5 51
t-28 77t-9.5 95.5q0 39 7 85t25.5 85t51 65t83.5 26q28 0 56.5 -14t50.5 -45l2 38q1 8 4.5 9.5t13.5 1.5h24q13 0 13 -13v-393q0 -20 5 -27.5t16 -7.5h4q10 0 10 -10v-21q0 -11 -13 -11h-17zM152 568q-3 -3 -7 -4t-9 4l-14 14q-6 6 1 13l85 104q6 7 17 7h13q10 0 15 -6
l83 -103q6 -8 1 -14l-14 -14q-7 -8 -16 1l-76 74z" />
    <glyph glyph-name="atilde" unicode="&#xe3;" horiz-adv-x="458" 
d="M319 373q-18 34 -44 51t-52 17q-51 0 -79.5 -52.5t-28.5 -150.5q0 -88 25.5 -142t76.5 -54q19 0 37 9t32 25q11 12 18.5 26t14.5 31v240zM386 0q-17 0 -27 2.5t-20 11.5q-8 8 -12 21t-4 25v5q-5 -9 -11 -18t-15 -18q-16 -16 -40 -27.5t-54 -11.5q-39 0 -68 18.5t-47.5 51
t-28 77t-9.5 95.5q0 39 7 85t25.5 85t51 65t83.5 26q28 0 56.5 -14t50.5 -45l2 38q1 8 4.5 9.5t13.5 1.5h24q13 0 13 -13v-393q0 -20 5 -27.5t16 -7.5h4q10 0 10 -10v-21q0 -11 -13 -11h-17zM354 634q2 -3 3 -7.5t-3 -8.5q-13 -15 -34.5 -27.5t-43.5 -12.5q-17 0 -29 6
t-22.5 12.5t-20 12.5t-21.5 6q-14 0 -25 -6.5t-24 -16.5q-10 -8 -15 2l-12 22q-4 7 2 13q12 11 31.5 22.5t44.5 11.5q16 0 28 -5.5t22 -12.5t19 -12.5t20 -5.5q16 0 28 7t22 18q10 10 17 1z" />
    <glyph glyph-name="adieresis" unicode="&#xe4;" horiz-adv-x="458" 
d="M319 373q-18 34 -44 51t-52 17q-51 0 -79.5 -52.5t-28.5 -150.5q0 -88 25.5 -142t76.5 -54q19 0 37 9t32 25q11 12 18.5 26t14.5 31v240zM386 0q-17 0 -27 2.5t-20 11.5q-8 8 -12 21t-4 25v5q-5 -9 -11 -18t-15 -18q-16 -16 -40 -27.5t-54 -11.5q-39 0 -68 18.5t-47.5 51
t-28 77t-9.5 95.5q0 39 7 85t25.5 85t51 65t83.5 26q28 0 56.5 -14t50.5 -45l2 38q1 8 4.5 9.5t13.5 1.5h24q13 0 13 -13v-393q0 -20 5 -27.5t16 -7.5h4q10 0 10 -10v-21q0 -11 -13 -11h-17zM188 613q0 -17 -11.5 -27.5t-25.5 -10.5q-16 0 -27 9.5t-11 28.5q0 18 10.5 28
t27.5 10q15 0 26 -10t11 -28zM336 613q0 -17 -11 -27.5t-26 -10.5q-16 0 -27 9.5t-11 28.5q0 18 10.5 28t27.5 10q15 0 26 -10t11 -28z" />
    <glyph glyph-name="amacron" unicode="&#x101;" horiz-adv-x="458" 
d="M319 373q-18 34 -44 51t-52 17q-51 0 -79.5 -52.5t-28.5 -150.5q0 -88 25.5 -142t76.5 -54q19 0 37 9t32 25q11 12 18.5 26t14.5 31v240zM386 0q-17 0 -27 2.5t-20 11.5q-8 8 -12 21t-4 25v5q-5 -9 -11 -18t-15 -18q-16 -16 -40 -27.5t-54 -11.5q-39 0 -68 18.5t-47.5 51
t-28 77t-9.5 95.5q0 39 7 85t25.5 85t51 65t83.5 26q28 0 56.5 -14t50.5 -45l2 38q1 8 4.5 9.5t13.5 1.5h24q13 0 13 -13v-393q0 -20 5 -27.5t16 -7.5h4q10 0 10 -10v-21q0 -11 -13 -11h-17zM144 599q-9 0 -13 2.5t-4 12.5v20q0 9 4 11.5t13 2.5h174q8 0 11.5 -2.5
t3.5 -11.5v-20q0 -10 -4 -12.5t-14 -2.5h-171z" />
    <glyph glyph-name="abreve" unicode="&#x103;" horiz-adv-x="458" 
d="M319 373q-18 34 -44 51t-52 17q-51 0 -79.5 -52.5t-28.5 -150.5q0 -88 25.5 -142t76.5 -54q19 0 37 9t32 25q11 12 18.5 26t14.5 31v240zM386 0q-17 0 -27 2.5t-20 11.5q-8 8 -12 21t-4 25v5q-5 -9 -11 -18t-15 -18q-16 -16 -40 -27.5t-54 -11.5q-39 0 -68 18.5t-47.5 51
t-28 77t-9.5 95.5q0 39 7 85t25.5 85t51 65t83.5 26q28 0 56.5 -14t50.5 -45l2 38q1 8 4.5 9.5t13.5 1.5h24q13 0 13 -13v-393q0 -20 5 -27.5t16 -7.5h4q10 0 10 -10v-21q0 -11 -13 -11h-17zM228 578q-54 0 -81 29.5t-27 73.5q0 11 13 11h23q13 0 13 -11q1 -28 15.5 -44
t44.5 -16t44 16t16 44q0 11 13 11h23q12 0 12 -11q0 -44 -27.5 -73.5t-81.5 -29.5z" />
    <glyph glyph-name="acaron" unicode="&#x1ce;" horiz-adv-x="458" 
d="M319 373q-18 34 -44 51t-52 17q-51 0 -79.5 -52.5t-28.5 -150.5q0 -88 25.5 -142t76.5 -54q19 0 37 9t32 25q11 12 18.5 26t14.5 31v240zM386 0q-17 0 -27 2.5t-20 11.5q-8 8 -12 21t-4 25v5q-5 -9 -11 -18t-15 -18q-16 -16 -40 -27.5t-54 -11.5q-39 0 -68 18.5t-47.5 51
t-28 77t-9.5 95.5q0 39 7 85t25.5 85t51 65t83.5 26q28 0 56.5 -14t50.5 -45l2 38q1 8 4.5 9.5t13.5 1.5h24q13 0 13 -13v-393q0 -20 5 -27.5t16 -7.5h4q10 0 10 -10v-21q0 -11 -13 -11h-17zM301 702q3 4 7.5 5.5t9.5 -3.5l14 -14q7 -5 0 -14l-80 -103q-7 -7 -17 -7h-14
q-11 0 -16 7l-78 102q-6 8 1 15l14 13q8 8 16 0l71 -74z" />
    <glyph glyph-name="aring" unicode="&#xe5;" horiz-adv-x="458" 
d="M319 373q-18 34 -44 51t-52 17q-51 0 -79.5 -52.5t-28.5 -150.5q0 -88 25.5 -142t76.5 -54q19 0 37 9t32 25q11 12 18.5 26t14.5 31v240zM386 0q-17 0 -27 2.5t-20 11.5q-8 8 -12 21t-4 25v5q-5 -9 -11 -18t-15 -18q-16 -16 -40 -27.5t-54 -11.5q-39 0 -68 18.5t-47.5 51
t-28 77t-9.5 95.5q0 39 7 85t25.5 85t51 65t83.5 26q28 0 56.5 -14t50.5 -45l2 38q1 8 4.5 9.5t13.5 1.5h24q13 0 13 -13v-393q0 -20 5 -27.5t16 -7.5h4q10 0 10 -10v-21q0 -11 -13 -11h-17zM303 626q0 -36 -21 -60.5t-55 -24.5q-33 0 -54.5 24.5t-21.5 60.5q0 37 21.5 61.5
t54.5 24.5q34 0 55 -24.5t21 -61.5zM265 628q0 20 -9.5 35t-27.5 15t-28.5 -15t-10.5 -35q0 -23 10.5 -37.5t28.5 -14.5t27.5 14.5t9.5 37.5z" />
    <glyph glyph-name="aringacute" unicode="&#x1fb;" horiz-adv-x="458" 
d="M319 373q-18 34 -44 51t-52 17q-51 0 -79.5 -52.5t-28.5 -150.5q0 -88 25.5 -142t76.5 -54q19 0 37 9t32 25q11 12 18.5 26t14.5 31v240zM386 0q-17 0 -27 2.5t-20 11.5q-8 8 -12 21t-4 25v5q-5 -9 -11 -18t-15 -18q-16 -16 -40 -27.5t-54 -11.5q-39 0 -68 18.5t-47.5 51
t-28 77t-9.5 95.5q0 39 7 85t25.5 85t51 65t83.5 26q28 0 56.5 -14t50.5 -45l2 38q1 8 4.5 9.5t13.5 1.5h24q13 0 13 -13v-393q0 -20 5 -27.5t16 -7.5h4q10 0 10 -10v-21q0 -11 -13 -11h-17zM303 605q0 -36 -21 -60.5t-55 -24.5q-33 0 -54.5 24.5t-21.5 60.5q0 37 21.5 61.5
t54.5 24.5q34 0 55 -24.5t21 -61.5zM265 607q0 20 -9.5 35t-27.5 15t-28.5 -15t-10.5 -35q0 -23 10.5 -37.5t28.5 -14.5t27.5 14.5t9.5 37.5zM257 833q13 13 24 -1l20 -26q9 -12 -7 -24l-112 -82q-7 -5 -11.5 -4.5t-9.5 6.5l-10 12q-8 10 5 22z" />
    <glyph glyph-name="aogonek" unicode="&#x105;" horiz-adv-x="458" 
d="M291 -123q0 43 23 74t50 50q-18 4 -27.5 21t-11.5 44q-17 -29 -46.5 -52.5t-75.5 -23.5q-39 0 -68 18.5t-47.5 51t-28 77t-9.5 95.5q0 39 7 85t25.5 85t51 65t83.5 26q28 0 56.5 -14t50.5 -45v37q1 8 5.5 10t14.5 2h24q13 0 13 -13v-387q0 -23 4.5 -32t14.5 -9h5
q11 0 11 -10v-13q0 -8 -3 -12t-12 -10q-28 -19 -44 -50.5t-16 -58.5q0 -33 14.5 -45t31.5 -12q10 0 20.5 2t18.5 5q11 5 13 -4l3 -17q0 -2 -1.5 -4.5t-6.5 -4.5q-14 -6 -29 -8.5t-30 -2.5q-42 0 -63 23.5t-21 56.5zM319 373q-18 34 -44 51t-52 17q-51 0 -79.5 -52.5
t-28.5 -150.5q0 -88 25.5 -142.5t76.5 -54.5q35 0 60 24t42 63v245z" />
    <glyph glyph-name="ae" unicode="&#xe6;" horiz-adv-x="641" 
d="M552 58q11 5 15 -5l9 -21q3 -10 -7 -16q-8 -6 -22.5 -11t-31 -8t-32.5 -5t-26 -2q-41 0 -75.5 15t-64.5 53q-28 -33 -66.5 -50.5t-76.5 -17.5q-26 0 -49.5 8t-41.5 25t-28.5 43t-10.5 61q0 49 18.5 79t50 46.5t72.5 22t87 5.5v51q0 27 -3 48t-12.5 35.5t-27 22.5t-46.5 8
q-23 0 -42.5 -4.5t-44.5 -17.5q-13 -6 -16 4l-9 23q-4 9 7 16q22 13 55 20t61 7q45 0 77 -20t43 -68q17 42 52.5 65t81.5 23q40 0 68.5 -16.5t46 -46.5t25.5 -71.5t8 -90.5v-16q0 -17 -19 -17h-244q1 -39 8.5 -74.5t23 -62.5t41 -43t62.5 -16q45 0 84 19zM183 38
q31 0 60.5 16.5t51.5 39.5q-12 28 -17 63t-6 77q-85 0 -124.5 -23t-39.5 -80q0 -50 22.5 -71.5t52.5 -21.5zM538 278q0 33 -4 64t-14.5 54t-28.5 37t-45 14q-28 0 -48.5 -15t-34 -39t-21 -54.5t-8.5 -60.5h204z" />
    <glyph glyph-name="aeacute" unicode="&#x1fd;" horiz-adv-x="641" 
d="M552 58q11 5 15 -5l9 -21q3 -10 -7 -16q-8 -6 -22.5 -11t-31 -8t-32.5 -5t-26 -2q-41 0 -75.5 15t-64.5 53q-28 -33 -66.5 -50.5t-76.5 -17.5q-26 0 -49.5 8t-41.5 25t-28.5 43t-10.5 61q0 49 18.5 79t50 46.5t72.5 22t87 5.5v51q0 27 -3 48t-12.5 35.5t-27 22.5t-46.5 8
q-23 0 -42.5 -4.5t-44.5 -17.5q-13 -6 -16 4l-9 23q-4 9 7 16q22 13 55 20t61 7q45 0 77 -20t43 -68q17 42 52.5 65t81.5 23q40 0 68.5 -16.5t46 -46.5t25.5 -71.5t8 -90.5v-16q0 -17 -19 -17h-244q1 -39 8.5 -74.5t23 -62.5t41 -43t62.5 -16q45 0 84 19zM183 38
q31 0 60.5 16.5t51.5 39.5q-12 28 -17 63t-6 77q-85 0 -124.5 -23t-39.5 -80q0 -50 22.5 -71.5t52.5 -21.5zM538 278q0 33 -4 64t-14.5 54t-28.5 37t-45 14q-28 0 -48.5 -15t-34 -39t-21 -54.5t-8.5 -60.5h204zM377 701q13 13 24 -1l20 -26q9 -12 -7 -24l-112 -82
q-7 -5 -11.5 -4.5t-9.5 6.5l-10 12q-8 10 5 22z" />
    <glyph glyph-name="cacute" unicode="&#x107;" horiz-adv-x="366" 
d="M110 243q0 -40 5.5 -76.5t20 -64.5t39.5 -44.5t63 -16.5q22 0 42.5 5t34.5 12q12 6 15 -5l7 -25q3 -10 -8 -15q-23 -12 -49 -17.5t-52 -5.5q-91 0 -137 65.5t-46 180.5q0 59 12 106.5t36 81t59 51.5t81 18q53 0 94 -19q9 -4 7 -15l-6 -26q-2 -10 -15 -5q-15 6 -34.5 10
t-38.5 4q-65 0 -97.5 -51t-32.5 -148zM262 701q13 13 24 -1l20 -26q9 -12 -7 -24l-112 -82q-7 -5 -11.5 -4.5t-9.5 6.5l-10 12q-8 10 5 22z" />
    <glyph glyph-name="ccedilla" unicode="&#xe7;" horiz-adv-x="366" 
d="M321 -115q0 -33 -19 -57.5t-62 -24.5q-11 0 -28 2.5t-26 7.5q-8 5 -5 12l4 13q1 4 4.5 4.5t7.5 -1.5q8 -3 18.5 -4.5t18.5 -1.5q20 0 30.5 9.5t10.5 33.5q0 27 -15 34t-35 7h-18q-9 0 -11.5 4t-1.5 12l6 57q-77 10 -116 74t-39 170q0 59 12 106.5t36 81t59 51.5t81 18
q53 0 94 -19q10 -4 7 -15l-6 -26q-2 -6 -6 -6.5t-9 1.5q-33 14 -73 14q-65 0 -97.5 -51t-32.5 -148q0 -40 5.5 -76.5t20 -64.5t39.5 -44.5t63 -16.5q22 0 42.5 5t34.5 12q12 6 15 -5l7 -25q3 -10 -8 -15q-20 -11 -42.5 -16t-45.5 -7l-2 -39h13q27 -2 48 -16t21 -50z" />
    <glyph glyph-name="ccircumflex" unicode="&#x109;" horiz-adv-x="366" 
d="M110 243q0 -40 5.5 -76.5t20 -64.5t39.5 -44.5t63 -16.5q22 0 42.5 5t34.5 12q12 6 15 -5l7 -25q3 -10 -8 -15q-23 -12 -49 -17.5t-52 -5.5q-91 0 -137 65.5t-46 180.5q0 59 12 106.5t36 81t59 51.5t81 18q53 0 94 -19q9 -4 7 -15l-6 -26q-2 -10 -15 -5q-15 6 -34.5 10
t-38.5 4q-65 0 -97.5 -51t-32.5 -148zM143 568q-3 -3 -7 -4t-9 4l-14 14q-6 6 1 13l85 104q6 7 17 7h13q10 0 15 -6l83 -103q6 -8 1 -14l-14 -14q-7 -8 -16 1l-76 74z" />
    <glyph glyph-name="ccaron" unicode="&#x10d;" horiz-adv-x="366" 
d="M110 243q0 -40 5.5 -76.5t20 -64.5t39.5 -44.5t63 -16.5q22 0 42.5 5t34.5 12q12 6 15 -5l7 -25q3 -10 -8 -15q-23 -12 -49 -17.5t-52 -5.5q-91 0 -137 65.5t-46 180.5q0 59 12 106.5t36 81t59 51.5t81 18q53 0 94 -19q9 -4 7 -15l-6 -26q-2 -10 -15 -5q-15 6 -34.5 10
t-38.5 4q-65 0 -97.5 -51t-32.5 -148zM294 702q3 4 7.5 5.5t9.5 -3.5l14 -14q7 -5 0 -14l-80 -103q-7 -7 -17 -7h-14q-11 0 -16 7l-78 102q-6 8 1 15l14 13q8 8 16 0l71 -74z" />
    <glyph glyph-name="cdotaccent" unicode="&#x10b;" horiz-adv-x="366" 
d="M110 243q0 -40 5.5 -76.5t20 -64.5t39.5 -44.5t63 -16.5q22 0 42.5 5t34.5 12q12 6 15 -5l7 -25q3 -10 -8 -15q-23 -12 -49 -17.5t-52 -5.5q-91 0 -137 65.5t-46 180.5q0 59 12 106.5t36 81t59 51.5t81 18q53 0 94 -19q9 -4 7 -15l-6 -26q-2 -10 -15 -5q-15 6 -34.5 10
t-38.5 4q-65 0 -97.5 -51t-32.5 -148zM266 637q0 -20 -11 -31t-30 -11q-43 0 -43 42q0 43 43 43q41 0 41 -43z" />
    <glyph glyph-name="dcaron" unicode="&#x10f;" horiz-adv-x="515" 
d="M322 690q0 13 11 15l36 7q15 3 15 -11v-687q0 -14 -15 -14h-26q-15 0 -15 14v39q-45 -63 -124 -63q-41 0 -71 19t-49 52.5t-28 78.5t-9 97q0 41 7.5 86.5t27 83t53.5 62t86 24.5q32 0 56.5 -13t44.5 -39v249zM322 378q-17 29 -41 46.5t-55 17.5q-57 0 -85.5 -53.5
t-28.5 -147.5q0 -42 5.5 -78.5t18.5 -63.5t32.5 -43t48.5 -16q33 0 60.5 18.5t44.5 47.5v272zM507 652q0 -35 -16 -68.5t-42 -56.5q-7 -5 -14 0l-6 7q-4 5 2 11q11 12 18.5 27t7.5 32q0 10 -4 18.5t-8.5 16t-8 15t-3.5 16.5q0 16 9.5 25t23.5 9q18 0 29.5 -15t11.5 -37z" />
    <glyph glyph-name="dcroat" unicode="&#x111;" horiz-adv-x="452" 
d="M322 600h-68q-14 0 -14 13v17q0 11 14 11h68v48q0 13 12 16l35 7q15 3 15 -12v-59h35q9 0 12 -2t3 -10v-16q0 -13 -15 -13h-35v-586q0 -14 -15 -14h-26q-15 0 -15 14v39q-45 -63 -124 -63q-41 0 -71 19t-49 52.5t-28 78.5t-9 97q0 41 7.5 86.5t27 83t53.5 62t86 24.5
q32 0 56.5 -13t44.5 -39v159zM322 378q-17 29 -41 46.5t-55 17.5q-57 0 -85.5 -53.5t-28.5 -147.5q0 -42 5.5 -78.5t18.5 -63.5t32.5 -43t48.5 -16q33 0 60.5 18.5t44.5 47.5v272z" />
    <glyph glyph-name="eth" unicode="&#xf0;" horiz-adv-x="440" 
d="M152 653q-33 16 -72 24q-11 2 -8 12l6 25q1 7 14 6q22 -3 42.5 -9.5t39.5 -14.5l32 62q4 8 13 4l22 -12q8 -4 3 -14l-32 -61q48 -31 83 -78t58 -103t34 -118.5t11 -123.5q0 -53 -10.5 -100.5t-32.5 -83.5t-56 -57t-80 -21q-48 0 -81.5 20.5t-54.5 55t-30 81t-9 97.5
q0 48 10 92.5t31.5 79.5t55 56t80.5 21q24 0 48.5 -10.5t38.5 -27.5q-17 52 -46.5 97.5t-72.5 77.5l-37 -71q-5 -11 -15 -6l-20 10q-9 5 -4 15zM335 241q0 40 -5.5 77t-18.5 65t-34.5 45t-53.5 17q-33 0 -55 -17t-35.5 -44.5t-19 -63.5t-5.5 -75t5 -76t17.5 -66t34.5 -47
t55 -18q32 0 54 17t35.5 45.5t19.5 65t6 75.5z" />
    <glyph glyph-name="egrave" unicode="&#xe8;" horiz-adv-x="418" 
d="M111 235q0 -41 7.5 -76.5t23.5 -62t41.5 -41.5t61.5 -15q23 0 46 5.5t41 14.5q12 6 16 -5l7 -23q3 -10 -7 -16q-23 -13 -54.5 -19.5t-60.5 -6.5q-94 0 -140 66t-46 187q0 56 12 102t35 79t56 51t76 18q38 0 66 -15.5t46 -43.5t26.5 -67.5t8.5 -86.5v-28q0 -17 -20 -17
h-242zM315 279v22q0 30 -5 56.5t-16.5 45.5t-29 30t-41.5 11q-30 0 -50.5 -14.5t-33.5 -37.5t-19.5 -53t-7.5 -60h203zM153 701q5 7 11.5 7.5t12.5 -6.5l105 -102q9 -9 3 -17l-11 -13q-5 -6 -9 -6.5t-12 4.5l-118 87q-12 7 -4 18z" />
    <glyph glyph-name="eacute" unicode="&#xe9;" horiz-adv-x="418" 
d="M111 235q0 -41 7.5 -76.5t23.5 -62t41.5 -41.5t61.5 -15q23 0 46 5.5t41 14.5q12 6 16 -5l7 -23q3 -10 -7 -16q-23 -13 -54.5 -19.5t-60.5 -6.5q-94 0 -140 66t-46 187q0 56 12 102t35 79t56 51t76 18q38 0 66 -15.5t46 -43.5t26.5 -67.5t8.5 -86.5v-28q0 -17 -20 -17
h-242zM315 279v22q0 30 -5 56.5t-16.5 45.5t-29 30t-41.5 11q-30 0 -50.5 -14.5t-33.5 -37.5t-19.5 -53t-7.5 -60h203zM267 701q13 13 24 -1l20 -26q9 -12 -7 -24l-112 -82q-7 -5 -11.5 -4.5t-9.5 6.5l-10 12q-8 10 5 22z" />
    <glyph glyph-name="ecircumflex" unicode="&#xea;" horiz-adv-x="418" 
d="M111 235q0 -41 7.5 -76.5t23.5 -62t41.5 -41.5t61.5 -15q23 0 46 5.5t41 14.5q12 6 16 -5l7 -23q3 -10 -7 -16q-23 -13 -54.5 -19.5t-60.5 -6.5q-94 0 -140 66t-46 187q0 56 12 102t35 79t56 51t76 18q38 0 66 -15.5t46 -43.5t26.5 -67.5t8.5 -86.5v-28q0 -17 -20 -17
h-242zM315 279v22q0 30 -5 56.5t-16.5 45.5t-29 30t-41.5 11q-30 0 -50.5 -14.5t-33.5 -37.5t-19.5 -53t-7.5 -60h203zM138 568q-3 -3 -7 -4t-9 4l-14 14q-6 6 1 13l85 104q6 7 17 7h13q10 0 15 -6l83 -103q6 -8 1 -14l-14 -14q-7 -8 -16 1l-76 74z" />
    <glyph glyph-name="ecaron" unicode="&#x11b;" horiz-adv-x="418" 
d="M111 235q0 -41 7.5 -76.5t23.5 -62t41.5 -41.5t61.5 -15q23 0 46 5.5t41 14.5q12 6 16 -5l7 -23q3 -10 -7 -16q-23 -13 -54.5 -19.5t-60.5 -6.5q-94 0 -140 66t-46 187q0 56 12 102t35 79t56 51t76 18q38 0 66 -15.5t46 -43.5t26.5 -67.5t8.5 -86.5v-28q0 -17 -20 -17
h-242zM315 279v22q0 30 -5 56.5t-16.5 45.5t-29 30t-41.5 11q-30 0 -50.5 -14.5t-33.5 -37.5t-19.5 -53t-7.5 -60h203zM294 702q3 4 7.5 5.5t9.5 -3.5l14 -14q7 -5 0 -14l-80 -103q-7 -7 -17 -7h-14q-11 0 -16 7l-78 102q-6 8 1 15l14 13q8 8 16 0l71 -74z" />
    <glyph glyph-name="edieresis" unicode="&#xeb;" horiz-adv-x="418" 
d="M111 235q0 -41 7.5 -76.5t23.5 -62t41.5 -41.5t61.5 -15q23 0 46 5.5t41 14.5q12 6 16 -5l7 -23q3 -10 -7 -16q-23 -13 -54.5 -19.5t-60.5 -6.5q-94 0 -140 66t-46 187q0 56 12 102t35 79t56 51t76 18q38 0 66 -15.5t46 -43.5t26.5 -67.5t8.5 -86.5v-28q0 -17 -20 -17
h-242zM315 279v22q0 30 -5 56.5t-16.5 45.5t-29 30t-41.5 11q-30 0 -50.5 -14.5t-33.5 -37.5t-19.5 -53t-7.5 -60h203zM178 635q0 -17 -11.5 -27.5t-25.5 -10.5q-16 0 -27 9.5t-11 28.5q0 18 10.5 28t27.5 10q15 0 26 -10t11 -28zM326 635q0 -17 -11 -27.5t-26 -10.5
q-16 0 -27 9.5t-11 28.5q0 18 10.5 28t27.5 10q15 0 26 -10t11 -28z" />
    <glyph glyph-name="emacron" unicode="&#x113;" horiz-adv-x="418" 
d="M111 235q0 -41 7.5 -76.5t23.5 -62t41.5 -41.5t61.5 -15q23 0 46 5.5t41 14.5q12 6 16 -5l7 -23q3 -10 -7 -16q-23 -13 -54.5 -19.5t-60.5 -6.5q-94 0 -140 66t-46 187q0 56 12 102t35 79t56 51t76 18q38 0 66 -15.5t46 -43.5t26.5 -67.5t8.5 -86.5v-28q0 -17 -20 -17
h-242zM315 279v22q0 30 -5 56.5t-16.5 45.5t-29 30t-41.5 11q-30 0 -50.5 -14.5t-33.5 -37.5t-19.5 -53t-7.5 -60h203zM132 599q-9 0 -13 2.5t-4 12.5v20q0 9 4 11.5t13 2.5h174q8 0 11.5 -2.5t3.5 -11.5v-20q0 -10 -4 -12.5t-14 -2.5h-171z" />
    <glyph glyph-name="ebreve" unicode="&#x115;" horiz-adv-x="418" 
d="M111 235q0 -41 7.5 -76.5t23.5 -62t41.5 -41.5t61.5 -15q23 0 46 5.5t41 14.5q12 6 16 -5l7 -23q3 -10 -7 -16q-23 -13 -54.5 -19.5t-60.5 -6.5q-94 0 -140 66t-46 187q0 56 12 102t35 79t56 51t76 18q38 0 66 -15.5t46 -43.5t26.5 -67.5t8.5 -86.5v-28q0 -17 -20 -17
h-242zM315 279v22q0 30 -5 56.5t-16.5 45.5t-29 30t-41.5 11q-30 0 -50.5 -14.5t-33.5 -37.5t-19.5 -53t-7.5 -60h203zM219 590q-54 0 -81 29.5t-27 73.5q0 11 13 11h23q13 0 13 -11q1 -28 15.5 -44t44.5 -16t44 16t16 44q0 11 13 11h23q12 0 12 -11q0 -44 -27.5 -73.5
t-81.5 -29.5z" />
    <glyph glyph-name="edotaccent" unicode="&#x117;" horiz-adv-x="418" 
d="M111 235q0 -41 7.5 -76.5t23.5 -62t41.5 -41.5t61.5 -15q23 0 46 5.5t41 14.5q12 6 16 -5l7 -23q3 -10 -7 -16q-23 -13 -54.5 -19.5t-60.5 -6.5q-94 0 -140 66t-46 187q0 56 12 102t35 79t56 51t76 18q38 0 66 -15.5t46 -43.5t26.5 -67.5t8.5 -86.5v-28q0 -17 -20 -17
h-242zM315 279v22q0 30 -5 56.5t-16.5 45.5t-29 30t-41.5 11q-30 0 -50.5 -14.5t-33.5 -37.5t-19.5 -53t-7.5 -60h203zM264 637q0 -20 -11 -31t-30 -11q-43 0 -43 42q0 43 43 43q41 0 41 -43z" />
    <glyph glyph-name="eogonek" unicode="&#x119;" horiz-adv-x="418" 
d="M170 -123q0 40 21 68t50 45h-8q-94 0 -140 66t-46 187q0 56 12 102t35 79t56 51t76 18q38 0 66 -15.5t46 -43.5t26.5 -67.5t8.5 -86.5v-28q0 -17 -20 -17h-242q0 -41 7.5 -76.5t23.5 -62t41.5 -41.5t61.5 -15q23 0 46 5.5t41 14.5q11 6 16 -5l7 -22q2 -6 0 -9.5t-7 -6.5
q-24 -14 -47 -25t-41 -24.5t-29 -32t-11 -47.5q0 -33 14.5 -45t31.5 -12q10 0 20.5 2t18.5 5q11 5 13 -4l3 -17q0 -2 -1.5 -4.5t-6.5 -4.5q-14 -6 -29 -8.5t-30 -2.5q-42 0 -63 23.5t-21 56.5zM315 279v22q0 30 -5 56.5t-16.5 45.5t-29 30t-41.5 11q-30 0 -50.5 -14.5
t-33.5 -37.5t-19.5 -53t-7.5 -60h203z" />
    <glyph glyph-name="gcircumflex" unicode="&#x11d;" horiz-adv-x="456" 
d="M322 53q-20 -22 -50 -39t-67 -17q-41 0 -71 18.5t-49.5 51.5t-29 77.5t-9.5 96.5q0 51 10.5 97t31.5 80.5t52.5 54.5t72.5 20q38 0 65 -16t49 -41v37q1 10 12 10h33q12 0 12 -11v-451q0 -51 -6.5 -95t-25.5 -76.5t-53 -51.5t-89 -19q-28 0 -60 7t-59 19q-12 6 -8 16
l10 26q4 11 17 5q49 -22 98 -22q38 0 60.5 14.5t34.5 38.5t15.5 56t3.5 68v46zM322 378q-19 29 -44 46.5t-54 17.5t-50 -15t-35 -41.5t-20.5 -62.5t-6.5 -77q0 -33 4.5 -68t16 -64t32.5 -47.5t54 -18.5q28 0 56 17.5t47 45.5v267zM150 568q-3 -3 -7 -4t-9 4l-14 14
q-6 6 1 13l85 104q6 7 17 7h13q10 0 15 -6l83 -103q6 -8 1 -14l-14 -14q-7 -8 -16 1l-76 74z" />
    <glyph glyph-name="gbreve" unicode="&#x11f;" horiz-adv-x="456" 
d="M322 53q-20 -22 -50 -39t-67 -17q-41 0 -71 18.5t-49.5 51.5t-29 77.5t-9.5 96.5q0 51 10.5 97t31.5 80.5t52.5 54.5t72.5 20q38 0 65 -16t49 -41v37q1 10 12 10h33q12 0 12 -11v-451q0 -51 -6.5 -95t-25.5 -76.5t-53 -51.5t-89 -19q-28 0 -60 7t-59 19q-12 6 -8 16
l10 26q4 11 17 5q49 -22 98 -22q38 0 60.5 14.5t34.5 38.5t15.5 56t3.5 68v46zM322 378q-19 29 -44 46.5t-54 17.5t-50 -15t-35 -41.5t-20.5 -62.5t-6.5 -77q0 -33 4.5 -68t16 -64t32.5 -47.5t54 -18.5q28 0 56 17.5t47 45.5v267zM222 577q-54 0 -81 29.5t-27 73.5
q0 11 13 11h23q13 0 13 -11q1 -28 15.5 -44t44.5 -16t44 16t16 44q0 11 13 11h23q12 0 12 -11q0 -44 -27.5 -73.5t-81.5 -29.5z" />
    <glyph glyph-name="gdotaccent" unicode="&#x121;" horiz-adv-x="456" 
d="M322 53q-20 -22 -50 -39t-67 -17q-41 0 -71 18.5t-49.5 51.5t-29 77.5t-9.5 96.5q0 51 10.5 97t31.5 80.5t52.5 54.5t72.5 20q38 0 65 -16t49 -41v37q1 10 12 10h33q12 0 12 -11v-451q0 -51 -6.5 -95t-25.5 -76.5t-53 -51.5t-89 -19q-28 0 -60 7t-59 19q-12 6 -8 16
l10 26q4 11 17 5q49 -22 98 -22q38 0 60.5 14.5t34.5 38.5t15.5 56t3.5 68v46zM322 378q-19 29 -44 46.5t-54 17.5t-50 -15t-35 -41.5t-20.5 -62.5t-6.5 -77q0 -33 4.5 -68t16 -64t32.5 -47.5t54 -18.5q28 0 56 17.5t47 45.5v267zM263 638q0 -20 -11 -31t-30 -11
q-43 0 -43 42q0 43 43 43q41 0 41 -43z" />
    <glyph glyph-name="gcommaaccent" unicode="&#x123;" horiz-adv-x="456" 
d="M165 613q0 35 16 68.5t42 56.5q7 5 14 0l6 -7q4 -5 -2 -11q-11 -12 -18.5 -27t-7.5 -32q0 -10 3.5 -18.5t8 -16t8.5 -15t4 -16.5q0 -16 -9.5 -25t-23.5 -9q-18 0 -29.5 15t-11.5 37zM322 53q-20 -22 -50 -39t-67 -17q-41 0 -71 18.5t-49.5 51.5t-29 77.5t-9.5 96.5
q0 51 10.5 97t31.5 80.5t52.5 54.5t72.5 20q38 0 65 -16t49 -41v37q1 10 12 10h33q12 0 12 -11v-451q0 -51 -6.5 -95t-25.5 -76.5t-53 -51.5t-89 -19q-28 0 -59.5 7t-58.5 19q-12 6 -8 16l8 26q3 11 17 5q52 -22 99 -22q38 0 60.5 14.5t34.5 38.5t15.5 56t3.5 68v46z
M322 378q-19 29 -44 46.5t-54 17.5t-50 -15t-35 -41.5t-20.5 -62.5t-6.5 -77q0 -33 4.5 -68t16 -64t32.5 -47.5t54 -18.5q28 0 56 17.5t47 45.5v267z" />
    <glyph glyph-name="hcircumflex" unicode="&#x125;" horiz-adv-x="460" 
d="M137 14q0 -14 -14 -14h-34q-14 0 -14 14v676q0 13 11 15l36 7q15 3 15 -11v-266q29 26 61 42t71 16q37 0 61 -14t37.5 -37.5t18.5 -54.5t5 -66v-307q0 -14 -14 -14h-34q-13 0 -13 14v293q0 22 -2 45t-10 42.5t-23.5 32t-43.5 12.5q-29 0 -58.5 -15t-55.5 -41v-369z
M30 736q-3 -3 -7 -4t-9 4l-14 14q-6 6 1 13l85 104q6 7 17 7h13q10 0 15 -6l83 -103q6 -8 1 -14l-14 -14q-7 -8 -16 1l-76 74z" />
    <glyph glyph-name="hbar" unicode="&#x127;" horiz-adv-x="460" 
d="M137 14q0 -14 -14 -14h-34q-14 0 -14 14v561h-37q-11 0 -11 9v25q0 9 11 9h37v72q0 12 11 15l37 7q14 3 14 -12v-82h110q11 0 11 -9v-25q0 -9 -11 -9h-110v-137q30 25 62 40t70 15q37 0 61 -13.5t37.5 -36.5t18.5 -54t5 -66v-309q0 -14 -14 -14h-34q-13 0 -13 14v294
q0 21 -2 44.5t-9.5 42.5t-23.5 31.5t-43 12.5q-30 0 -59.5 -14.5t-55.5 -40.5v-370z" />
    <glyph glyph-name="dotlessi" unicode="&#x131;" horiz-adv-x="210" 
d="M75 469q0 14 14 14h33q9 0 11.5 -3.5t2.5 -10.5v-455q0 -6 -2.5 -10t-10.5 -4h-34q-9 0 -11.5 4t-2.5 10v455z" />
    <glyph glyph-name="igrave" unicode="&#xec;" horiz-adv-x="203" 
d="M42 701q5 7 11.5 7.5t12.5 -6.5l105 -102q9 -9 3 -17l-11 -13q-5 -6 -9 -6.5t-12 4.5l-118 87q-12 7 -4 18zM75 469q0 14 14 14h33q9 0 11.5 -3.5t2.5 -10.5v-455q0 -6 -2.5 -10t-10.5 -4h-34q-9 0 -11.5 4t-2.5 10v455z" />
    <glyph glyph-name="iacute" unicode="&#xed;" horiz-adv-x="203" 
d="M140 701q13 13 24 -1l20 -26q9 -12 -7 -24l-112 -82q-7 -5 -11.5 -4.5t-9.5 6.5l-10 12q-8 10 5 22zM75 469q0 14 14 14h33q9 0 11.5 -3.5t2.5 -10.5v-455q0 -6 -2.5 -10t-10.5 -4h-34q-9 0 -11.5 4t-2.5 10v455z" />
    <glyph glyph-name="icircumflex" unicode="&#xee;" horiz-adv-x="203" 
d="M75 469q0 14 14 14h33q9 0 11.5 -3.5t2.5 -10.5v-455q0 -6 -2.5 -10t-10.5 -4h-34q-9 0 -11.5 4t-2.5 10v455zM25 568q-3 -3 -7 -4t-9 4l-14 14q-6 6 1 13l85 104q6 7 17 7h13q10 0 15 -6l83 -103q6 -8 1 -14l-14 -14q-7 -8 -16 1l-76 74z" />
    <glyph glyph-name="itilde" unicode="&#x129;" horiz-adv-x="210" 
d="M231 643q2 -3 3 -7.5t-3 -8.5q-13 -15 -34.5 -27.5t-43.5 -12.5q-17 0 -29 6t-22.5 12.5t-20 12.5t-21.5 6q-14 0 -25 -6.5t-24 -16.5q-10 -8 -15 2l-12 22q-4 7 2 13q12 11 31.5 22.5t44.5 11.5q16 0 28 -5.5t22 -12.5t19 -12.5t20 -5.5q16 0 28 7t22 18q10 10 17 1z
M75 469q0 14 14 14h33q9 0 11.5 -3.5t2.5 -10.5v-455q0 -6 -2.5 -10t-10.5 -4h-34q-9 0 -11.5 4t-2.5 10v455z" />
    <glyph glyph-name="idieresis" unicode="&#xef;" horiz-adv-x="210" 
d="M67 633q0 -17 -11.5 -27.5t-25.5 -10.5q-16 0 -27 9.5t-11 28.5q0 18 10.5 28t27.5 10q15 0 26 -10t11 -28zM215 633q0 -17 -11 -27.5t-26 -10.5q-16 0 -27 9.5t-11 28.5q0 18 10.5 28t27.5 10q15 0 26 -10t11 -28zM75 469q0 14 14 14h33q9 0 11.5 -3.5t2.5 -10.5v-455
q0 -6 -2.5 -10t-10.5 -4h-34q-9 0 -11.5 4t-2.5 10v455z" />
    <glyph glyph-name="imacron" unicode="&#x12b;" horiz-adv-x="210" 
d="M21 599q-9 0 -13 2.5t-4 12.5v20q0 9 4 11.5t13 2.5h174q8 0 11.5 -2.5t3.5 -11.5v-20q0 -10 -4 -12.5t-14 -2.5h-171zM75 469q0 14 14 14h33q9 0 11.5 -3.5t2.5 -10.5v-455q0 -6 -2.5 -10t-10.5 -4h-34q-9 0 -11.5 4t-2.5 10v455z" />
    <glyph glyph-name="ibreve" unicode="&#x12d;" horiz-adv-x="210" 
d="M106 575q-54 0 -81 29.5t-27 73.5q0 11 13 11h23q13 0 13 -11q1 -28 15.5 -44t44.5 -16t44 16t16 44q0 11 13 11h23q12 0 12 -11q0 -44 -27.5 -73.5t-81.5 -29.5zM75 469q0 14 14 14h33q9 0 11.5 -3.5t2.5 -10.5v-455q0 -6 -2.5 -10t-10.5 -4h-34q-9 0 -11.5 4t-2.5 10
v455z" />
    <glyph glyph-name="idotaccent" horiz-adv-x="210" 
d="M144 612q0 -18 -11.5 -28.5t-27.5 -10.5t-27.5 10t-11.5 29t11.5 29t27.5 10q17 0 28 -10.5t11 -28.5zM75 469q0 14 14 14h33q9 0 11.5 -3.5t2.5 -10.5v-455q0 -6 -2.5 -10t-10.5 -4h-34q-9 0 -11.5 4t-2.5 10v455z" />
    <glyph glyph-name="iogonek" unicode="&#x12f;" horiz-adv-x="210" 
d="M2 -123q0 22 6.5 40.5t17 33t23.5 26t26 20.5v472q0 14 14 14h33q9 0 11.5 -3.5t2.5 -10.5v-451q0 -8 -2.5 -12t-10.5 -9q-41 -26 -56 -53t-15 -56q0 -33 14.5 -45t31.5 -12q10 0 20.5 2t18.5 5q11 5 13 -4l3 -17q0 -2 -1.5 -4.5t-6.5 -4.5q-14 -6 -29 -8.5t-30 -2.5
q-42 0 -63 23.5t-21 56.5zM144 612q0 -18 -11.5 -28.5t-27.5 -10.5t-27.5 10t-11.5 29t11.5 29t27.5 10q17 0 28 -10.5t11 -28.5z" />
    <glyph glyph-name="ij" unicode="&#x133;" horiz-adv-x="406" 
d="M144 612q0 -18 -11.5 -28.5t-27.5 -10.5t-27.5 10t-11.5 29t11.5 29t27.5 10q17 0 28 -10.5t11 -28.5zM75 469q0 14 14 14h33q9 0 11.5 -3.5t2.5 -10.5v-455q0 -6 -2.5 -10t-10.5 -4h-34q-9 0 -11.5 4t-2.5 10v455zM346 612q0 -18 -11.5 -28.5t-27.5 -10.5q-15 0 -27 9.5
t-12 29.5q0 19 11.5 29t27.5 10t27.5 -10.5t11.5 -28.5zM276 469q0 14 13 14h34q14 0 14 -14v-455q0 -46 -4 -88.5t-19 -75t-43 -52t-76 -19.5q-9 0 -23 2t-22 5q-9 4 -8 13l5 26q2 12 13 9q16 -4 36 -4q29 0 45 16.5t24 42t9.5 56.5t1.5 60v464z" />
    <glyph glyph-name="jcircumflex" unicode="&#x135;" horiz-adv-x="220" 
d="M81 469q0 14 13 14h34q14 0 14 -14v-455q0 -46 -4 -88.5t-19 -75t-43 -52t-76 -19.5q-9 0 -22.5 1.5t-21.5 4.5q-9 4 -8 13l3 26q2 12 12 9q15 -3 38 -3q29 0 45 16.5t24 42t9.5 56.5t1.5 60v464zM33 568q-3 -3 -7 -4t-9 4l-14 14q-6 6 1 13l85 104q6 7 17 7h13
q10 0 15 -6l83 -103q6 -8 1 -14l-14 -14q-7 -8 -16 1l-76 74z" />
    <glyph glyph-name="kcommaaccent" unicode="&#x137;" horiz-adv-x="388" 
d="M75 689q0 13 11 15l36 7q15 3 15 -11v-427l144 202q4 5 7 6.5t11 1.5h34q16 0 8 -13l-134 -184l156 -271q5 -9 1 -12t-18 -3h-30q-11 0 -16.5 4.5t-8.5 10.5l-123 224l-31 -43v-182q0 -14 -14 -14h-34q-14 0 -14 14v675zM249 -96q0 -35 -16 -68.5t-42 -56.5q-7 -5 -14 0
l-6 7q-4 5 2 11q11 12 18.5 27t7.5 32q0 10 -4 18.5t-8.5 16t-8 15t-3.5 16.5q0 16 9.5 25t23.5 9q18 0 29.5 -15t11.5 -37z" />
    <glyph glyph-name="kgreenlandic" unicode="&#x138;" horiz-adv-x="388" 
d="M74 469q0 14 14 14h34q14 0 14 -14v-197l155 203q5 8 18 8h35q16 0 8 -13l-145 -186l166 -269q8 -15 -10 -15h-40q-13 0 -20 12t-14 23l-122 206l-31 -40v-187q0 -9 -4.5 -11.5t-16.5 -2.5h-27q-14 0 -14 14v455z" />
    <glyph glyph-name="lacute" unicode="&#x13a;" horiz-adv-x="211" 
d="M75 690q0 13 11 15l36 7q15 3 15 -11v-687q0 -6 -2.5 -10t-10.5 -4h-35q-9 0 -11.5 4t-2.5 10v676zM158 870q13 13 24 -1l20 -26q9 -12 -7 -24l-112 -82q-7 -5 -11.5 -4.5t-9.5 6.5l-10 12q-8 10 5 22z" />
    <glyph glyph-name="lcaron" unicode="&#x13e;" horiz-adv-x="264" 
d="M73 690q0 13 11 15l36 7q15 3 15 -11v-687q0 -6 -2.5 -10t-10.5 -4h-35q-9 0 -11.5 4t-2.5 10v676zM256 656q0 -35 -16 -68.5t-42 -56.5q-7 -5 -14 0l-6 7q-4 5 2 11q11 12 18.5 27t7.5 32q0 10 -4 18.5t-8.5 16t-8 15t-3.5 16.5q0 16 9.5 25t23.5 9q18 0 29.5 -15
t11.5 -37z" />
    <glyph glyph-name="lcommaaccent" unicode="&#x13c;" horiz-adv-x="211" 
d="M75 690q0 13 11 15l36 7q15 3 15 -11v-687q0 -6 -2.5 -10t-10.5 -4h-35q-9 0 -11.5 4t-2.5 10v676zM144 -96q0 -35 -16 -68.5t-42 -56.5q-7 -5 -14 0l-6 7q-4 5 2 11q11 12 18.5 27t7.5 32q0 10 -4 18.5t-8.5 16t-8 15t-3.5 16.5q0 16 9.5 25t23.5 9q18 0 29.5 -15
t11.5 -37z" />
    <glyph glyph-name="lslash" unicode="&#x142;" horiz-adv-x="228" 
d="M79 348l-65 -51q-12 -10 -12 3v37q0 6 1.5 9t7.5 8l68 54v282q0 12 11 15l37 7q14 3 14 -12v-250l74 58q6 5 10.5 3.5t4.5 -9.5v-30q0 -11 -11 -20l-78 -62v-376q0 -6 -2.5 -10t-10.5 -4h-35q-9 0 -11.5 4t-2.5 10v334z" />
    <glyph glyph-name="longs" unicode="&#x17f;" horiz-adv-x="260" 
d="M156 14q0 -14 -20 -14h-27q-9 0 -12 3.5t-3 10.5v425h-44q-13 0 -13 11v21q0 8 3.5 10t9.5 2h44v35q0 37 4.5 73.5t18 65.5t39 47t67.5 18q17 0 37 -3.5t31 -8.5q10 -5 8 -13l-5 -24q-3 -11 -15 -8q-11 3 -23 5t-23 2q-23 0 -38 -9.5t-23.5 -27.5t-12 -43t-3.5 -55v-523z
" />
    <glyph glyph-name="ldot" unicode="&#x140;" horiz-adv-x="274" 
d="M73 690q0 13 11 15l36 7q15 3 15 -11v-687q0 -6 -2.5 -10t-10.5 -4h-35q-9 0 -11.5 4t-2.5 10v676zM265 367q0 -20 -11 -31t-30 -11q-43 0 -43 42q0 43 43 43q41 0 41 -43z" />
    <glyph glyph-name="nacute" unicode="&#x144;" horiz-adv-x="460" 
d="M137 15q0 -15 -14 -15h-34q-14 0 -14 14v456q0 13 14 13h29q14 0 14 -14l2 -36q30 29 62.5 44.5t72.5 15.5q37 0 61 -13t37.5 -36t18.5 -54t5 -67v-309q0 -14 -14 -14h-34q-13 0 -13 14v294q0 22 -2 45.5t-9.5 42.5t-23 31t-43.5 12q-29 0 -59.5 -16t-55.5 -42v-366z
M266 701q13 13 24 -1l20 -26q9 -12 -7 -24l-112 -82q-7 -5 -11.5 -4.5t-9.5 6.5l-10 12q-8 10 5 22z" />
    <glyph glyph-name="ncaron" unicode="&#x148;" horiz-adv-x="460" 
d="M137 15q0 -15 -14 -15h-34q-14 0 -14 14v456q0 13 14 13h29q14 0 14 -14l2 -36q30 29 62.5 44.5t72.5 15.5q37 0 61 -13t37.5 -36t18.5 -54t5 -67v-309q0 -14 -14 -14h-34q-13 0 -13 14v294q0 22 -2 45.5t-9.5 42.5t-23 31t-43.5 12q-29 0 -59.5 -16t-55.5 -42v-366z
M304 702q3 4 7.5 5.5t9.5 -3.5l14 -14q7 -5 0 -14l-80 -103q-7 -7 -17 -7h-14q-11 0 -16 7l-78 102q-6 8 1 15l14 13q8 8 16 0l71 -74z" />
    <glyph glyph-name="ntilde" unicode="&#xf1;" horiz-adv-x="460" 
d="M137 15q0 -15 -14 -15h-34q-14 0 -14 14v456q0 13 14 13h29q14 0 14 -14l2 -36q30 29 62.5 44.5t72.5 15.5q37 0 61 -13t37.5 -36t18.5 -54t5 -67v-309q0 -14 -14 -14h-34q-13 0 -13 14v294q0 22 -2 45.5t-9.5 42.5t-23 31t-43.5 12q-29 0 -59.5 -16t-55.5 -42v-366z
M356 644q2 -3 3 -7.5t-3 -8.5q-13 -15 -34.5 -27.5t-43.5 -12.5q-17 0 -29 6t-22.5 12.5t-20 12.5t-21.5 6q-14 0 -25 -6.5t-24 -16.5q-10 -8 -15 2l-12 22q-4 7 2 13q12 11 31.5 22.5t44.5 11.5q16 0 28 -5.5t22 -12.5t19 -12.5t20 -5.5q16 0 28 7t22 18q10 10 17 1z" />
    <glyph glyph-name="ncommaaccent" unicode="&#x146;" horiz-adv-x="460" 
d="M137 15q0 -15 -14 -15h-34q-14 0 -14 14v456q0 13 14 13h29q14 0 14 -14l2 -36q30 29 62.5 44.5t72.5 15.5q37 0 61 -13t37.5 -36t18.5 -54t5 -67v-309q0 -14 -14 -14h-34q-13 0 -13 14v294q0 22 -2 45.5t-9.5 42.5t-23 31t-43.5 12q-29 0 -59.5 -16t-55.5 -42v-366z
M272 -96q0 -35 -16 -68.5t-42 -56.5q-7 -5 -14 0l-6 7q-4 5 2 11q11 12 18.5 27t7.5 32q0 10 -4 18.5t-8.5 16t-8 15t-3.5 16.5q0 16 9.5 25t23.5 9q18 0 29.5 -15t11.5 -37z" />
    <glyph glyph-name="napostrophe" unicode="&#x149;" horiz-adv-x="460" 
d="M137 15q0 -15 -14 -15h-34q-14 0 -14 14v456q0 13 14 13h29q14 0 14 -14l2 -36q30 29 62.5 44.5t72.5 15.5q37 0 61 -13t37.5 -36t18.5 -54t5 -67v-309q0 -14 -14 -14h-34q-13 0 -13 14v294q0 22 -2 45.5t-9.5 42.5t-23 31t-43.5 12q-29 0 -59.5 -16t-55.5 -42v-366z
M77 663q0 -35 -16 -68.5t-42 -56.5q-7 -5 -14 0l-6 7q-4 5 2 11q11 12 18.5 27t7.5 32q0 10 -4 18.5t-8.5 16t-8 15t-3.5 16.5q0 16 9.5 25t23.5 9q18 0 29.5 -15t11.5 -37z" />
    <glyph glyph-name="eng" unicode="&#x14b;" horiz-adv-x="460" 
d="M137 15q0 -15 -14 -15h-34q-14 0 -14 14v456q0 13 14 13h30q13 0 13 -11l2 -39q30 29 62.5 44.5t72.5 15.5q37 0 61 -13t37.5 -36t18.5 -54t5 -67v-278q0 -49 -5 -92t-19 -74.5t-38.5 -49.5t-62.5 -18q-15 0 -25.5 1.5t-20.5 3.5q-14 3 -12 15l4 25q1 9 12 9q5 0 14.5 -2
t18.5 -2q24 0 38 14t22 38t10.5 56t2.5 68v271q0 22 -2 45.5t-9.5 42.5t-23 31t-43.5 12q-29 0 -59.5 -16t-55.5 -42v-366z" />
    <glyph glyph-name="ograve" unicode="&#xf2;" horiz-adv-x="448" 
d="M112 245q0 -39 4.5 -76.5t17 -66t34 -46t55.5 -17.5q33 0 55 16.5t35.5 44.5t19 64.5t5.5 76.5q0 39 -5 76t-17.5 65t-34 45t-54.5 17q-34 0 -56.5 -16.5t-35.5 -44t-18 -63.5t-5 -75zM47 244q0 52 10.5 97.5t33 79.5t56 53t80.5 19q49 0 82.5 -19t54 -52.5t29.5 -79.5
t9 -100q0 -53 -10.5 -99t-32.5 -80t-56 -53.5t-81 -19.5q-49 0 -82.5 19.5t-54 54t-29.5 81t-9 99.5zM168 701q5 7 11.5 7.5t12.5 -6.5l105 -102q9 -9 3 -17l-11 -13q-5 -6 -9 -6.5t-12 4.5l-118 87q-12 7 -4 18z" />
    <glyph glyph-name="oacute" unicode="&#xf3;" horiz-adv-x="448" 
d="M112 245q0 -39 4.5 -76.5t17 -66t34 -46t55.5 -17.5q33 0 55 16.5t35.5 44.5t19 64.5t5.5 76.5q0 39 -5 76t-17.5 65t-34 45t-54.5 17q-34 0 -56.5 -16.5t-35.5 -44t-18 -63.5t-5 -75zM47 244q0 52 10.5 97.5t33 79.5t56 53t80.5 19q49 0 82.5 -19t54 -52.5t29.5 -79.5
t9 -100q0 -53 -10.5 -99t-32.5 -80t-56 -53.5t-81 -19.5q-49 0 -82.5 19.5t-54 54t-29.5 81t-9 99.5zM261 701q13 13 24 -1l20 -26q9 -12 -7 -24l-112 -82q-7 -5 -11.5 -4.5t-9.5 6.5l-10 12q-8 10 5 22z" />
    <glyph glyph-name="ocircumflex" unicode="&#xf4;" horiz-adv-x="448" 
d="M112 245q0 -39 4.5 -76.5t17 -66t34 -46t55.5 -17.5q33 0 55 16.5t35.5 44.5t19 64.5t5.5 76.5q0 39 -5 76t-17.5 65t-34 45t-54.5 17q-34 0 -56.5 -16.5t-35.5 -44t-18 -63.5t-5 -75zM47 244q0 52 10.5 97.5t33 79.5t56 53t80.5 19q49 0 82.5 -19t54 -52.5t29.5 -79.5
t9 -100q0 -53 -10.5 -99t-32.5 -80t-56 -53.5t-81 -19.5q-49 0 -82.5 19.5t-54 54t-29.5 81t-9 99.5zM146 568q-3 -3 -7 -4t-9 4l-14 14q-6 6 1 13l85 104q6 7 17 7h13q10 0 15 -6l83 -103q6 -8 1 -14l-14 -14q-7 -8 -16 1l-76 74z" />
    <glyph glyph-name="otilde" unicode="&#xf5;" horiz-adv-x="448" 
d="M112 245q0 -39 4.5 -76.5t17 -66t34 -46t55.5 -17.5q33 0 55 16.5t35.5 44.5t19 64.5t5.5 76.5q0 39 -5 76t-17.5 65t-34 45t-54.5 17q-34 0 -56.5 -16.5t-35.5 -44t-18 -63.5t-5 -75zM47 244q0 52 10.5 97.5t33 79.5t56 53t80.5 19q49 0 82.5 -19t54 -52.5t29.5 -79.5
t9 -100q0 -53 -10.5 -99t-32.5 -80t-56 -53.5t-81 -19.5q-49 0 -82.5 19.5t-54 54t-29.5 81t-9 99.5zM348 644q2 -3 3 -7.5t-3 -8.5q-13 -15 -34.5 -27.5t-43.5 -12.5q-17 0 -29 6t-22.5 12.5t-20 12.5t-21.5 6q-14 0 -25 -6.5t-24 -16.5q-10 -8 -15 2l-12 22q-4 7 2 13
q12 11 31.5 22.5t44.5 11.5q16 0 28 -5.5t22 -12.5t19 -12.5t20 -5.5q16 0 28 7t22 18q10 10 17 1z" />
    <glyph glyph-name="odieresis" unicode="&#xf6;" horiz-adv-x="448" 
d="M112 245q0 -39 4.5 -76.5t17 -66t34 -46t55.5 -17.5q33 0 55 16.5t35.5 44.5t19 64.5t5.5 76.5q0 39 -5 76t-17.5 65t-34 45t-54.5 17q-34 0 -56.5 -16.5t-35.5 -44t-18 -63.5t-5 -75zM47 244q0 52 10.5 97.5t33 79.5t56 53t80.5 19q49 0 82.5 -19t54 -52.5t29.5 -79.5
t9 -100q0 -53 -10.5 -99t-32.5 -80t-56 -53.5t-81 -19.5q-49 0 -82.5 19.5t-54 54t-29.5 81t-9 99.5zM185 635q0 -17 -11.5 -27.5t-25.5 -10.5q-16 0 -27 9.5t-11 28.5q0 18 10.5 28t27.5 10q15 0 26 -10t11 -28zM333 635q0 -17 -11 -27.5t-26 -10.5q-16 0 -27 9.5t-11 28.5
q0 18 10.5 28t27.5 10q15 0 26 -10t11 -28z" />
    <glyph glyph-name="omacron" unicode="&#x14d;" horiz-adv-x="448" 
d="M112 245q0 -39 4.5 -76.5t17 -66t34 -46t55.5 -17.5q33 0 55 16.5t35.5 44.5t19 64.5t5.5 76.5q0 39 -5 76t-17.5 65t-34 45t-54.5 17q-34 0 -56.5 -16.5t-35.5 -44t-18 -63.5t-5 -75zM47 244q0 52 10.5 97.5t33 79.5t56 53t80.5 19q49 0 82.5 -19t54 -52.5t29.5 -79.5
t9 -100q0 -53 -10.5 -99t-32.5 -80t-56 -53.5t-81 -19.5q-49 0 -82.5 19.5t-54 54t-29.5 81t-9 99.5zM139 600q-9 0 -13 2.5t-4 12.5v20q0 9 4 11.5t13 2.5h174q8 0 11.5 -2.5t3.5 -11.5v-20q0 -10 -4 -12.5t-14 -2.5h-171z" />
    <glyph glyph-name="obreve" unicode="&#x14f;" horiz-adv-x="448" 
d="M112 245q0 -39 4.5 -76.5t17 -66t34 -46t55.5 -17.5q33 0 55 16.5t35.5 44.5t19 64.5t5.5 76.5q0 39 -5 76t-17.5 65t-34 45t-54.5 17q-34 0 -56.5 -16.5t-35.5 -44t-18 -63.5t-5 -75zM47 244q0 52 10.5 97.5t33 79.5t56 53t80.5 19q49 0 82.5 -19t54 -52.5t29.5 -79.5
t9 -100q0 -53 -10.5 -99t-32.5 -80t-56 -53.5t-81 -19.5q-49 0 -82.5 19.5t-54 54t-29.5 81t-9 99.5zM223 576q-54 0 -81 29.5t-27 73.5q0 11 13 11h23q13 0 13 -11q1 -28 15.5 -44t44.5 -16t44 16t16 44q0 11 13 11h23q12 0 12 -11q0 -44 -27.5 -73.5t-81.5 -29.5z" />
    <glyph glyph-name="ohungarumlaut" unicode="&#x151;" horiz-adv-x="448" 
d="M112 245q0 -39 4.5 -76.5t17 -66t34 -46t55.5 -17.5q33 0 55 16.5t35.5 44.5t19 64.5t5.5 76.5q0 39 -5 76t-17.5 65t-34 45t-54.5 17q-34 0 -56.5 -16.5t-35.5 -44t-18 -63.5t-5 -75zM47 244q0 52 10.5 97.5t33 79.5t56 53t80.5 19q49 0 82.5 -19t54 -52.5t29.5 -79.5
t9 -100q0 -53 -10.5 -99t-32.5 -80t-56 -53.5t-81 -19.5q-49 0 -82.5 19.5t-54 54t-29.5 81t-9 99.5zM207 695q13 15 25 0l16 -22q7 -9 -2 -16l-104 -84q-13 -10 -21 1l-8 10q-5 6 3 16zM370 695q13 15 25 0l16 -22q7 -9 -2 -16l-104 -84q-13 -10 -21 1l-8 10q-5 6 3 16z
" />
    <glyph glyph-name="oslash" unicode="&#xf8;" horiz-adv-x="450" 
d="M48 244q0 52 10.5 97.5t32.5 79.5t56 53t81 19q59 0 96 -28l20 38q7 12 20 5l15 -9q7 -5 7 -8.5t-3 -9.5l-25 -49q24 -35 34.5 -84t10.5 -106q0 -53 -10.5 -99t-33 -80t-56.5 -53.5t-81 -19.5q-27 0 -49 6.5t-40 17.5l-20 -37q-3 -6 -8.5 -8.5t-12.5 2.5l-14 9
q-11 6 -4 19l24 47q-28 35 -39 86.5t-11 111.5zM338 241q0 33 -4.5 66t-15.5 59l-157 -304q25 -23 62 -23q33 0 55.5 16.5t35.5 44.5t18.5 64.5t5.5 76.5zM112 245q0 -36 5.5 -72t21.5 -62l155 304q-12 14 -28 21.5t-39 7.5q-34 0 -56 -16.5t-35 -44t-18.5 -63.5t-5.5 -75z
" />
    <glyph glyph-name="oslashacute" unicode="&#x1ff;" horiz-adv-x="450" 
d="M261 701q13 13 24 -1l20 -26q9 -12 -7 -24l-112 -82q-7 -5 -11.5 -4.5t-9.5 6.5l-10 12q-8 10 5 22zM48 244q0 52 10.5 97.5t32.5 79.5t56 53t81 19q59 0 96 -28l20 38q7 12 20 5l15 -9q7 -5 7 -8.5t-3 -9.5l-25 -49q24 -35 34.5 -84t10.5 -106q0 -53 -10.5 -99t-33 -80
t-56.5 -53.5t-81 -19.5q-27 0 -49 6.5t-40 17.5l-20 -37q-3 -6 -8.5 -8.5t-12.5 2.5l-14 9q-11 6 -4 19l24 47q-28 35 -39 86.5t-11 111.5zM338 241q0 33 -4.5 66t-15.5 59l-157 -304q25 -23 62 -23q33 0 55.5 16.5t35.5 44.5t18.5 64.5t5.5 76.5zM112 245q0 -36 5.5 -72
t21.5 -62l155 304q-12 14 -28 21.5t-39 7.5q-34 0 -56 -16.5t-35 -44t-18.5 -63.5t-5.5 -75z" />
    <glyph glyph-name="oe" unicode="&#x153;" horiz-adv-x="708" 
d="M539 42q21 0 42.5 4.5t39.5 12.5q4 2 8 1t6 -5l10 -26q2 -5 0 -8t-4 -5q-6 -5 -19 -9.5t-29 -8.5t-33.5 -6t-32.5 -2q-63 0 -100.5 29t-57.5 81q-20 -50 -55 -80t-92 -30q-48 0 -81.5 19.5t-54 53.5t-30 80.5t-9.5 100.5q0 40 7.5 83.5t27 80.5t54 61t88.5 24
q57 0 93 -28t55 -80q20 50 56 79t89 29q40 0 68 -17t46 -47.5t26 -71.5t8 -89v-16q0 -17 -21 -17h-243q0 -32 7.5 -66.5t23.5 -62.5t42 -46t65 -18zM111 245q0 -39 4.5 -76.5t17 -66.5t34 -46.5t55.5 -17.5q33 0 55 16.5t35.5 44.5t19.5 65t6 77t-5 77t-18 65.5t-35 45.5
t-55 17q-32 0 -54 -16.5t-35.5 -44.5t-19 -64t-5.5 -76zM606 279q0 33 -3.5 62.5t-13.5 52.5t-28 36.5t-46 13.5q-27 0 -47 -12.5t-33.5 -35t-21.5 -52.5t-11 -65h204z" />
    <glyph glyph-name="thorn" unicode="&#xfe;" horiz-adv-x="457" 
d="M73 689q0 13 13 16l35 7q14 3 14 -13v-262q24 27 55 41.5t63 14.5q41 0 71 -18.5t49 -51.5t28 -78t9 -98q0 -52 -9.5 -98.5t-29.5 -82t-51.5 -56t-75.5 -20.5q-35 0 -62 15t-47 41v-241q0 -15 -15 -15h-31q-16 0 -16 15v884zM238 442q-25 0 -54 -17t-49 -46v-270
q18 -29 44 -49.5t55 -20.5q31 0 52.5 16.5t34.5 44.5t18.5 64t5.5 75q0 42 -5 79t-17 64.5t-33 43.5t-52 16z" />
    <glyph glyph-name="racute" unicode="&#x155;" horiz-adv-x="286" 
d="M137 14q0 -14 -14 -14h-34q-14 0 -14 14v456q0 13 15 13h28q14 0 14 -12l2 -36q19 29 44 43.5t54 14.5h12.5t12.5 -2q9 -3 7 -13l-4 -34q-2 -7 -11 -7q-5 0 -9.5 1t-15.5 1q-26 0 -48.5 -18.5t-38.5 -46.5v-360zM209 701q13 13 24 -1l20 -26q9 -12 -7 -24l-112 -82
q-7 -5 -11.5 -4.5t-9.5 6.5l-10 12q-8 10 5 22z" />
    <glyph glyph-name="rcaron" unicode="&#x159;" horiz-adv-x="286" 
d="M137 14q0 -14 -14 -14h-34q-14 0 -14 14v456q0 13 15 13h28q14 0 14 -12l2 -36q19 29 44 43.5t54 14.5h12.5t12.5 -2q9 -3 7 -13l-4 -34q-2 -7 -11 -7q-5 0 -9.5 1t-15.5 1q-26 0 -48.5 -18.5t-38.5 -46.5v-360zM238 702q3 4 7.5 5.5t9.5 -3.5l14 -14q7 -5 0 -14
l-80 -103q-7 -7 -17 -7h-14q-11 0 -16 7l-78 102q-6 8 1 15l14 13q8 8 16 0l71 -74z" />
    <glyph glyph-name="rcommaaccent" unicode="&#x157;" horiz-adv-x="286" 
d="M137 14q0 -14 -14 -14h-34q-14 0 -14 14v456q0 13 15 13h28q14 0 14 -12l2 -36q19 29 44 43.5t54 14.5h12.5t12.5 -2q9 -3 7 -13l-4 -34q-2 -7 -11 -7q-5 0 -9.5 1t-15.5 1q-26 0 -48.5 -18.5t-38.5 -46.5v-360zM144 -96q0 -35 -16 -68.5t-42 -56.5q-7 -5 -14 0l-6 7
q-4 5 2 11q11 12 18.5 27t7.5 32q0 10 -4 18.5t-8.5 16t-8 15t-3.5 16.5q0 16 9.5 25t23.5 9q18 0 29.5 -15t11.5 -37z" />
    <glyph glyph-name="sacute" unicode="&#x15b;" horiz-adv-x="336" 
d="M125 246q-32 19 -54 48.5t-22 74.5q0 31 11 54.5t29.5 39t43.5 23t53 7.5q23 0 47 -5t43 -14q8 -4 5 -13l-8 -24q-3 -10 -13 -6q-17 8 -33.5 12t-34.5 4q-40 0 -61 -19t-21 -53q0 -32 15.5 -50.5t37.5 -31.5l49 -30q36 -21 60.5 -53t24.5 -78q0 -67 -41 -104.5
t-108 -37.5q-26 0 -54 6.5t-45 16.5q-11 6 -7 15l9 25q2 6 7 6.5t10 -1.5q20 -10 40.5 -15t37.5 -5q42 0 66.5 22.5t24.5 64.5q0 36 -18.5 57t-44.5 36zM214 701q13 13 24 -1l20 -26q9 -12 -7 -24l-112 -82q-7 -5 -11.5 -4.5t-9.5 6.5l-10 12q-8 10 5 22z" />
    <glyph glyph-name="scircumflex" unicode="&#x15d;" horiz-adv-x="336" 
d="M125 246q-32 19 -54 48.5t-22 74.5q0 31 11 54.5t29.5 39t43.5 23t53 7.5q23 0 47 -5t43 -14q8 -4 5 -13l-8 -24q-3 -10 -13 -6q-17 8 -33.5 12t-34.5 4q-40 0 -61 -19t-21 -53q0 -32 15.5 -50.5t37.5 -31.5l49 -30q36 -21 60.5 -53t24.5 -78q0 -67 -41 -104.5
t-108 -37.5q-26 0 -54 6.5t-45 16.5q-11 6 -7 15l9 25q2 6 7 6.5t10 -1.5q20 -10 40.5 -15t37.5 -5q42 0 66.5 22.5t24.5 64.5q0 36 -18.5 57t-44.5 36zM98 568q-3 -3 -7 -4t-9 4l-14 14q-6 6 1 13l85 104q6 7 17 7h13q10 0 15 -6l83 -103q6 -8 1 -14l-14 -14q-7 -8 -16 1
l-76 74z" />
    <glyph glyph-name="scaron" unicode="&#x161;" horiz-adv-x="336" 
d="M125 246q-32 19 -54 48.5t-22 74.5q0 31 11 54.5t29.5 39t43.5 23t53 7.5q23 0 47 -5t43 -14q8 -4 5 -13l-8 -24q-3 -10 -13 -6q-17 8 -33.5 12t-34.5 4q-40 0 -61 -19t-21 -53q0 -32 15.5 -50.5t37.5 -31.5l49 -30q36 -21 60.5 -53t24.5 -78q0 -67 -41 -104.5
t-108 -37.5q-26 0 -54 6.5t-45 16.5q-11 6 -7 15l9 25q2 6 7 6.5t10 -1.5q20 -10 40.5 -15t37.5 -5q42 0 66.5 22.5t24.5 64.5q0 36 -18.5 57t-44.5 36zM246 702q3 4 7.5 5.5t9.5 -3.5l14 -14q7 -5 0 -14l-80 -103q-7 -7 -17 -7h-14q-11 0 -16 7l-78 102q-6 8 1 15l14 13
q8 8 16 0l71 -74z" />
    <glyph glyph-name="scedilla" unicode="&#x15f;" horiz-adv-x="336" 
d="M251 -115q0 -33 -19 -57.5t-62 -24.5q-11 0 -28 2.5t-26 7.5q-8 5 -5 12l4 13q1 4 4.5 4.5t7.5 -1.5q8 -3 18.5 -4.5t18.5 -1.5q20 0 30.5 9.5t10.5 33.5q0 27 -15 34t-35 7h-18q-9 0 -11.5 4t-1.5 12l6 56q-23 2 -45 8t-36 14q-11 6 -7 15l9 25q2 6 7 6.5t10 -1.5
q20 -10 40.5 -15t37.5 -5q42 0 66.5 22.5t24.5 64.5q0 36 -18.5 57t-44.5 36l-49 28q-32 19 -54 48.5t-22 74.5q0 31 11 54.5t29.5 39t43.5 23t53 7.5q23 0 47 -5t43 -14q8 -4 5 -13l-8 -24q-3 -10 -13 -6q-17 8 -33.5 12t-34.5 4q-40 0 -61 -19t-21 -53q0 -32 15.5 -50.5
t37.5 -31.5l49 -30q36 -21 60.5 -53t24.5 -78q0 -61 -34.5 -97.5t-91.5 -42.5l-2 -41h13q27 -2 48 -16t21 -50z" />
    <glyph glyph-name="scommaaccent" unicode="&#x219;" horiz-adv-x="336" 
d="M125 246q-32 19 -54 48.5t-22 74.5q0 31 11 54.5t29.5 39t43.5 23t53 7.5q23 0 47 -5t43 -14q8 -4 5 -13l-8 -24q-3 -10 -13 -6q-17 8 -33.5 12t-34.5 4q-40 0 -61 -19t-21 -53q0 -32 15.5 -50.5t37.5 -31.5l49 -30q36 -21 60.5 -53t24.5 -78q0 -67 -41 -104.5
t-108 -37.5q-26 0 -54 6.5t-45 16.5q-11 6 -7 15l9 25q2 6 7 6.5t10 -1.5q20 -10 40.5 -15t37.5 -5q42 0 66.5 22.5t24.5 64.5q0 36 -18.5 57t-44.5 36zM204 -96q0 -35 -16 -68.5t-42 -56.5q-7 -5 -14 0l-6 7q-4 5 2 11q11 12 18.5 27t7.5 32q0 10 -4 18.5t-8.5 16t-8 15
t-3.5 16.5q0 16 9.5 25t23.5 9q18 0 29.5 -15t11.5 -37z" />
    <glyph glyph-name="germandbls" unicode="&#xdf;" horiz-adv-x="465" 
d="M427 202q0 -53 -13.5 -92.5t-37 -65.5t-55 -38.5t-67.5 -12.5q-26 0 -39 3q-15 3 -15 15v21q0 11 14 11q4 0 10 -1t16 -1q31 0 54.5 12.5t39 34.5t23 51.5t7.5 63.5q0 41 -11 70.5t-29 48t-41 27t-47 8.5h-23q-8 0 -10.5 2.5t-2.5 7.5v24q0 10 12 10q20 0 40.5 7.5t37 24
t27 44t10.5 67.5q0 69 -26.5 99t-68.5 30q-43 0 -71 -36.5t-28 -114.5v-602q0 -15 -14 -15h-32q-15 0 -15 14v594q0 108 42 158.5t116 50.5q33 0 62 -10t51 -31t34.5 -53t12.5 -77q0 -25 -6 -50.5t-18.5 -48t-30.5 -39.5t-42 -25q31 -5 55.5 -20.5t42 -40.5t27 -57t9.5 -68z
" />
    <glyph glyph-name="tcaron" unicode="&#x165;" horiz-adv-x="298" 
d="M148 150q0 -26 1.5 -46.5t8 -35t19.5 -22t35 -7.5q11 0 22 2t22 5q10 3 13 -6l5 -23q3 -9 -7 -14q-14 -6 -32.5 -9.5t-38.5 -3.5q-34 0 -55.5 10t-32.5 28q-14 22 -18 51.5t-4 73.5v287h-41q-14 0 -14 11v22q0 10 13 10h42v121q0 11 12 13l36 7q14 3 14 -12v-129h93
q12 0 12 -10v-22q0 -11 -12 -11h-93v-290zM300 659q0 -35 -16 -68.5t-42 -56.5q-7 -5 -14 0l-6 7q-4 5 2 11q11 12 18.5 27t7.5 32q0 10 -4 18.5t-8.5 16t-8 15t-3.5 16.5q0 16 9.5 25t23.5 9q18 0 29.5 -15t11.5 -37z" />
    <glyph glyph-name="tcommaaccent" unicode="&#x163;" horiz-adv-x="298" 
d="M148 150q0 -26 1.5 -46.5t8 -35t19.5 -22t35 -7.5q11 0 22 2t22 5q10 3 13 -6l5 -23q3 -9 -7 -14q-14 -6 -32.5 -9.5t-38.5 -3.5q-34 0 -55.5 10t-32.5 28q-14 22 -18 51.5t-4 73.5v287h-41q-14 0 -14 11v22q0 10 13 10h42v121q0 11 12 13l36 7q14 3 14 -12v-129h93
q12 0 12 -10v-22q0 -11 -12 -11h-93v-290zM219 -96q0 -35 -16 -68.5t-42 -56.5q-7 -5 -14 0l-6 7q-4 5 2 11q11 12 18.5 27t7.5 32q0 10 -4 18.5t-8.5 16t-8 15t-3.5 16.5q0 16 9.5 25t23.5 9q18 0 29.5 -15t11.5 -37z" />
    <glyph glyph-name="uni021B" unicode="&#x21b;" horiz-adv-x="298" 
d="M148 150q0 -26 1.5 -46.5t8 -35t19.5 -22t35 -7.5q11 0 22 2t22 5q10 3 13 -6l5 -23q3 -9 -7 -14q-14 -6 -32.5 -9.5t-38.5 -3.5q-34 0 -55.5 10t-32.5 28q-14 22 -18 51.5t-4 73.5v287h-41q-14 0 -14 11v22q0 10 13 10h42v121q0 11 12 13l36 7q14 3 14 -12v-129h93
q12 0 12 -10v-22q0 -11 -12 -11h-93v-290zM219 -96q0 -35 -16 -68.5t-42 -56.5q-7 -5 -14 0l-6 7q-4 5 2 11q11 12 18.5 27t7.5 32q0 10 -4 18.5t-8.5 16t-8 15t-3.5 16.5q0 16 9.5 25t23.5 9q18 0 29.5 -15t11.5 -37z" />
    <glyph glyph-name="tbar" unicode="&#x167;" horiz-adv-x="293" 
d="M145 271h84q7 0 9.5 -1.5t2.5 -8.5v-19q0 -11 -12 -11h-84v-81q0 -24 1.5 -44.5t8 -35.5t19.5 -23t35 -8q13 0 22.5 1.5t21.5 5.5q11 3 13 -6l5 -23q3 -9 -7 -14q-14 -6 -32.5 -9.5t-38.5 -3.5q-34 0 -55.5 10t-32.5 28q-14 22 -18 51.5t-4 73.5v78h-43q-8 0 -10 2t-2 9
v19q0 10 12 10h43v169h-41q-14 0 -14 11v22q0 10 13 10h42v121q0 11 12 13l36 7q14 3 14 -12v-129h93q12 0 12 -10v-22q0 -11 -12 -11h-93v-169z" />
    <glyph glyph-name="ugrave" unicode="&#xf9;" horiz-adv-x="454" 
d="M318 469q0 14 14 14h35q13 0 13 -14v-456q0 -13 -14 -13h-32q-10 0 -12 11v40q-26 -26 -58 -43.5t-74 -17.5q-37 0 -60 14t-36.5 37.5t-18.5 54.5t-5 65v309q0 13 13 13h34q14 0 14 -13v-295q0 -22 2 -45.5t9.5 -43t23.5 -32t43 -12.5q29 0 58 17t51 43v367zM158 701
q5 7 11.5 7.5t12.5 -6.5l105 -102q9 -9 3 -17l-11 -13q-5 -6 -9 -6.5t-12 4.5l-118 87q-12 7 -4 18z" />
    <glyph glyph-name="uacute" unicode="&#xfa;" horiz-adv-x="454" 
d="M318 469q0 14 14 14h35q13 0 13 -14v-456q0 -13 -14 -13h-32q-10 0 -12 11v40q-26 -26 -58 -43.5t-74 -17.5q-37 0 -60 14t-36.5 37.5t-18.5 54.5t-5 65v309q0 13 13 13h34q14 0 14 -13v-295q0 -22 2 -45.5t9.5 -43t23.5 -32t43 -12.5q29 0 58 17t51 43v367zM268 701
q13 13 24 -1l20 -26q9 -12 -7 -24l-112 -82q-7 -5 -11.5 -4.5t-9.5 6.5l-10 12q-8 10 5 22z" />
    <glyph glyph-name="ucircumflex" unicode="&#xfb;" horiz-adv-x="454" 
d="M318 469q0 14 14 14h35q13 0 13 -14v-456q0 -13 -14 -13h-32q-10 0 -12 11v40q-26 -26 -58 -43.5t-74 -17.5q-37 0 -60 14t-36.5 37.5t-18.5 54.5t-5 65v309q0 13 13 13h34q14 0 14 -13v-295q0 -22 2 -45.5t9.5 -43t23.5 -32t43 -12.5q29 0 58 17t51 43v367zM147 568
q-3 -3 -7 -4t-9 4l-14 14q-6 6 1 13l85 104q6 7 17 7h13q10 0 15 -6l83 -103q6 -8 1 -14l-14 -14q-7 -8 -16 1l-76 74z" />
    <glyph glyph-name="utilde" unicode="&#x169;" horiz-adv-x="454" 
d="M318 469q0 14 14 14h35q13 0 13 -14v-456q0 -13 -14 -13h-32q-10 0 -12 11v40q-26 -26 -58 -43.5t-74 -17.5q-37 0 -60 14t-36.5 37.5t-18.5 54.5t-5 65v309q0 13 13 13h34q14 0 14 -13v-295q0 -22 2 -45.5t9.5 -43t23.5 -32t43 -12.5q29 0 58 17t51 43v367zM350 644
q2 -3 3 -7.5t-3 -8.5q-13 -15 -34.5 -27.5t-43.5 -12.5q-17 0 -29 6t-22.5 12.5t-20 12.5t-21.5 6q-14 0 -25 -6.5t-24 -16.5q-10 -8 -15 2l-12 22q-4 7 2 13q12 11 31.5 22.5t44.5 11.5q16 0 28 -5.5t22 -12.5t19 -12.5t20 -5.5q16 0 28 7t22 18q10 10 17 1z" />
    <glyph glyph-name="udieresis" unicode="&#xfc;" horiz-adv-x="454" 
d="M318 469q0 14 14 14h35q13 0 13 -14v-456q0 -13 -14 -13h-32q-10 0 -12 11v40q-26 -26 -58 -43.5t-74 -17.5q-37 0 -60 14t-36.5 37.5t-18.5 54.5t-5 65v309q0 13 13 13h34q14 0 14 -13v-295q0 -22 2 -45.5t9.5 -43t23.5 -32t43 -12.5q29 0 58 17t51 43v367zM188 635
q0 -17 -11.5 -27.5t-25.5 -10.5q-16 0 -27 9.5t-11 28.5q0 18 10.5 28t27.5 10q15 0 26 -10t11 -28zM336 635q0 -17 -11 -27.5t-26 -10.5q-16 0 -27 9.5t-11 28.5q0 18 10.5 28t27.5 10q15 0 26 -10t11 -28z" />
    <glyph glyph-name="umacron" unicode="&#x16b;" horiz-adv-x="454" 
d="M318 469q0 14 14 14h35q13 0 13 -14v-456q0 -13 -14 -13h-32q-10 0 -12 11v40q-26 -26 -58 -43.5t-74 -17.5q-37 0 -60 14t-36.5 37.5t-18.5 54.5t-5 65v309q0 13 13 13h34q14 0 14 -13v-295q0 -22 2 -45.5t9.5 -43t23.5 -32t43 -12.5q29 0 58 17t51 43v367zM138 600
q-9 0 -13 2.5t-4 12.5v20q0 9 4 11.5t13 2.5h174q8 0 11.5 -2.5t3.5 -11.5v-20q0 -10 -4 -12.5t-14 -2.5h-171z" />
    <glyph glyph-name="ubreve" unicode="&#x16d;" horiz-adv-x="454" 
d="M318 469q0 14 14 14h35q13 0 13 -14v-456q0 -13 -14 -13h-32q-10 0 -12 11v40q-26 -26 -58 -43.5t-74 -17.5q-37 0 -60 14t-36.5 37.5t-18.5 54.5t-5 65v309q0 13 13 13h34q14 0 14 -13v-295q0 -22 2 -45.5t9.5 -43t23.5 -32t43 -12.5q29 0 58 17t51 43v367zM224 575
q-54 0 -81 29.5t-27 73.5q0 11 13 11h23q13 0 13 -11q1 -28 15.5 -44t44.5 -16t44 16t16 44q0 11 13 11h23q12 0 12 -11q0 -44 -27.5 -73.5t-81.5 -29.5z" />
    <glyph glyph-name="uring" unicode="&#x16f;" horiz-adv-x="454" 
d="M318 469q0 14 14 14h35q13 0 13 -14v-456q0 -13 -14 -13h-32q-10 0 -12 11v40q-26 -26 -58 -43.5t-74 -17.5q-37 0 -60 14t-36.5 37.5t-18.5 54.5t-5 65v309q0 13 13 13h34q14 0 14 -13v-295q0 -22 2 -45.5t9.5 -43t23.5 -32t43 -12.5q29 0 58 17t51 43v367zM301 626
q0 -36 -21 -60.5t-55 -24.5q-33 0 -54.5 24.5t-21.5 60.5q0 37 21.5 61.5t54.5 24.5q34 0 55 -24.5t21 -61.5zM263 628q0 20 -9.5 35t-27.5 15t-28.5 -15t-10.5 -35q0 -23 10.5 -37.5t28.5 -14.5t27.5 14.5t9.5 37.5z" />
    <glyph glyph-name="uhungarumlaut" unicode="&#x171;" horiz-adv-x="454" 
d="M318 469q0 14 14 14h35q13 0 13 -14v-456q0 -13 -14 -13h-32q-10 0 -12 11v40q-26 -26 -58 -43.5t-74 -17.5q-37 0 -60 14t-36.5 37.5t-18.5 54.5t-5 65v309q0 13 13 13h34q14 0 14 -13v-295q0 -22 2 -45.5t9.5 -43t23.5 -32t43 -12.5q29 0 58 17t51 43v367zM215 695
q13 15 25 0l16 -22q7 -9 -2 -16l-104 -84q-13 -10 -21 1l-8 10q-5 6 3 16zM378 695q13 15 25 0l16 -22q7 -9 -2 -16l-104 -84q-13 -10 -21 1l-8 10q-5 6 3 16z" />
    <glyph glyph-name="uogonek" unicode="&#x173;" horiz-adv-x="454" 
d="M403 -183q0 -2 -1.5 -4.5t-6.5 -4.5q-14 -6 -28.5 -8.5t-29.5 -2.5q-42 0 -63 23.5t-21 56.5q0 42 22 72.5t48 50.5l-1 51q-26 -26 -58.5 -43.5t-71.5 -17.5q-38 0 -61.5 14t-37 37.5t-18.5 54.5t-5 65v309q0 13 13 13h34q14 0 14 -13v-295q0 -22 2 -45.5t9.5 -43
t23.5 -32t44 -12.5q29 0 57.5 17t50.5 43v367q0 14 14 14h35q13 0 13 -14v-453q0 -7 -2 -10t-10 -8q-33 -21 -49 -50t-16 -60q0 -33 14.5 -45t31.5 -12q10 0 20.5 2t18.5 5q11 5 13 -4l2 -17v0z" />
    <glyph glyph-name="wgrave" unicode="&#x1e81;" horiz-adv-x="575" 
d="M404 58q8 46 18 96t21 99l46 218q2 5 4.5 8.5t10.5 3.5h33q7 0 8.5 -3.5t0.5 -8.5l-107 -459q-2 -12 -16 -12h-40q-9 0 -12 3t-5 9l-51 245q-9 42 -17 83t-13 77q-5 -36 -13 -77t-16 -83l-50 -246q-1 -11 -16 -11h-41q-8 0 -11 3t-5 9l-106 458q-4 13 11 13h36
q11 0 14 -12l46 -219q11 -49 19.5 -99.5t16.5 -96.5q14 90 35 196l45 220q2 11 15 11h42q13 0 15 -10l46 -221q10 -48 19 -98.5t17 -95.5zM214 701q5 7 11.5 7.5t12.5 -6.5l105 -102q9 -9 3 -17l-11 -13q-5 -6 -9 -6.5t-12 4.5l-118 87q-12 7 -4 18z" />
    <glyph glyph-name="wacute" unicode="&#x1e83;" horiz-adv-x="575" 
d="M404 58q8 46 18 96t21 99l46 218q2 5 4.5 8.5t10.5 3.5h33q7 0 8.5 -3.5t0.5 -8.5l-107 -459q-2 -12 -16 -12h-40q-9 0 -12 3t-5 9l-51 245q-9 42 -17 83t-13 77q-5 -36 -13 -77t-16 -83l-50 -246q-1 -11 -16 -11h-41q-8 0 -11 3t-5 9l-106 458q-4 13 11 13h36
q11 0 14 -12l46 -219q11 -49 19.5 -99.5t16.5 -96.5q14 90 35 196l45 220q2 11 15 11h42q13 0 15 -10l46 -221q10 -48 19 -98.5t17 -95.5zM346 701q13 13 24 -1l20 -26q9 -12 -7 -24l-112 -82q-7 -5 -11.5 -4.5t-9.5 6.5l-10 12q-8 10 5 22z" />
    <glyph glyph-name="wcircumflex" unicode="&#x175;" horiz-adv-x="575" 
d="M404 58q8 46 18 96t21 99l46 218q2 5 4.5 8.5t10.5 3.5h33q7 0 8.5 -3.5t0.5 -8.5l-107 -459q-2 -12 -16 -12h-40q-9 0 -12 3t-5 9l-51 245q-9 42 -17 83t-13 77q-5 -36 -13 -77t-16 -83l-50 -246q-1 -11 -16 -11h-41q-8 0 -11 3t-5 9l-106 458q-4 13 11 13h36
q11 0 14 -12l46 -219q11 -49 19.5 -99.5t16.5 -96.5q14 90 35 196l45 220q2 11 15 11h42q13 0 15 -10l46 -221q10 -48 19 -98.5t17 -95.5zM208 568q-3 -3 -7 -4t-9 4l-14 14q-6 6 1 13l85 104q6 7 17 7h13q10 0 15 -6l83 -103q6 -8 1 -14l-14 -14q-7 -8 -16 1l-76 74z" />
    <glyph glyph-name="wdieresis" unicode="&#x1e85;" horiz-adv-x="575" 
d="M404 58q8 46 18 96t21 99l46 218q2 5 4.5 8.5t10.5 3.5h33q7 0 8.5 -3.5t0.5 -8.5l-107 -459q-2 -12 -16 -12h-40q-9 0 -12 3t-5 9l-51 245q-9 42 -17 83t-13 77q-5 -36 -13 -77t-16 -83l-50 -246q-1 -11 -16 -11h-41q-8 0 -11 3t-5 9l-106 458q-4 13 11 13h36
q11 0 14 -12l46 -219q11 -49 19.5 -99.5t16.5 -96.5q14 90 35 196l45 220q2 11 15 11h42q13 0 15 -10l46 -221q10 -48 19 -98.5t17 -95.5zM251 634q0 -17 -11.5 -27.5t-25.5 -10.5q-16 0 -27 9.5t-11 28.5q0 18 10.5 28t27.5 10q15 0 26 -10t11 -28zM399 634
q0 -17 -11 -27.5t-26 -10.5q-16 0 -27 9.5t-11 28.5q0 18 10.5 28t27.5 10q15 0 26 -10t11 -28z" />
    <glyph glyph-name="ygrave" unicode="&#x1ef3;" horiz-adv-x="393" 
d="M33 468q-2 6 0 10.5t10 4.5h37q9 0 12 -3.5t5 -9.5l53 -196q14 -53 28 -109.5t26 -112.5q12 56 25.5 112t27.5 109l50 197q2 7 5.5 10t12.5 3h32q8 0 10.5 -4t0.5 -9l-147 -529q-12 -44 -27 -75t-34 -50.5t-43.5 -28t-56.5 -8.5q-9 0 -18.5 1.5t-15.5 3.5q-9 4 -8 14
l4 24q2 8 5 9.5t8 0.5q6 -1 13 -2t14 -1q31 0 56 19.5t38 64.5l19 66zM146 701q5 7 11.5 7.5t12.5 -6.5l105 -102q9 -9 3 -17l-11 -13q-5 -6 -9 -6.5t-12 4.5l-118 87q-12 7 -4 18z" />
    <glyph glyph-name="yacute" unicode="&#xfd;" horiz-adv-x="393" 
d="M33 468q-2 6 0 10.5t10 4.5h37q9 0 12 -3.5t5 -9.5l53 -196q14 -53 28 -109.5t26 -112.5q12 56 25.5 112t27.5 109l50 197q2 7 5.5 10t12.5 3h32q8 0 10.5 -4t0.5 -9l-147 -529q-12 -44 -27 -75t-34 -50.5t-43.5 -28t-56.5 -8.5q-9 0 -18.5 1.5t-15.5 3.5q-9 4 -8 14
l4 24q2 8 5 9.5t8 0.5q6 -1 13 -2t14 -1q31 0 56 19.5t38 64.5l19 66zM241 701q13 13 24 -1l20 -26q9 -12 -7 -24l-112 -82q-7 -5 -11.5 -4.5t-9.5 6.5l-10 12q-8 10 5 22z" />
    <glyph glyph-name="ycircumflex" unicode="&#x177;" horiz-adv-x="393" 
d="M33 468q-2 6 0 10.5t10 4.5h37q9 0 12 -3.5t5 -9.5l53 -196q14 -53 28 -109.5t26 -112.5q12 56 25.5 112t27.5 109l50 197q2 7 5.5 10t12.5 3h32q8 0 10.5 -4t0.5 -9l-147 -529q-12 -44 -27 -75t-34 -50.5t-43.5 -28t-56.5 -8.5q-9 0 -18.5 1.5t-15.5 3.5q-9 4 -8 14
l4 24q2 8 5 9.5t8 0.5q6 -1 13 -2t14 -1q31 0 56 19.5t38 64.5l19 66zM125 568q-3 -3 -7 -4t-9 4l-14 14q-6 6 1 13l85 104q6 7 17 7h13q10 0 15 -6l83 -103q6 -8 1 -14l-14 -14q-7 -8 -16 1l-76 74z" />
    <glyph glyph-name="ydieresis" unicode="&#xff;" horiz-adv-x="393" 
d="M33 468q-2 6 0 10.5t10 4.5h37q9 0 12 -3.5t5 -9.5l53 -196q14 -53 28 -109.5t26 -112.5q12 56 25.5 112t27.5 109l50 197q2 7 5.5 10t12.5 3h32q8 0 10.5 -4t0.5 -9l-147 -529q-12 -44 -27 -75t-34 -50.5t-43.5 -28t-56.5 -8.5q-9 0 -18.5 1.5t-15.5 3.5q-9 4 -8 14
l4 24q2 8 5 9.5t8 0.5q6 -1 13 -2t14 -1q31 0 56 19.5t38 64.5l19 66zM168 634q0 -17 -11.5 -27.5t-25.5 -10.5q-16 0 -27 9.5t-11 28.5q0 18 10.5 28t27.5 10q15 0 26 -10t11 -28zM316 634q0 -17 -11 -27.5t-26 -10.5q-16 0 -27 9.5t-11 28.5q0 18 10.5 28t27.5 10
q15 0 26 -10t11 -28z" />
    <glyph glyph-name="zacute" unicode="&#x17a;" horiz-adv-x="335" 
d="M292 43q11 0 11 -10v-23q0 -10 -11 -10h-245q-13 0 -13 11v11q0 14 7 28l189 390h-166q-8 0 -10 2.5t-2 8.5v21q0 11 12 11h225q8 0 10 -3t2 -7v-11q0 -11 -6 -23l-192 -396h189zM218 701q13 13 24 -1l20 -26q9 -12 -7 -24l-112 -82q-7 -5 -11.5 -4.5t-9.5 6.5l-10 12
q-8 10 5 22z" />
    <glyph glyph-name="zcaron" unicode="&#x17e;" horiz-adv-x="335" 
d="M292 43q11 0 11 -10v-23q0 -10 -11 -10h-245q-13 0 -13 11v11q0 14 7 28l189 390h-166q-8 0 -10 2.5t-2 8.5v21q0 11 12 11h225q8 0 10 -3t2 -7v-11q0 -11 -6 -23l-192 -396h189zM253 702q3 4 7.5 5.5t9.5 -3.5l14 -14q7 -5 0 -14l-80 -103q-7 -7 -17 -7h-14q-11 0 -16 7
l-78 102q-6 8 1 15l14 13q8 8 16 0l71 -74z" />
    <glyph glyph-name="zdotaccent" unicode="&#x17c;" horiz-adv-x="335" 
d="M292 43q11 0 11 -10v-23q0 -10 -11 -10h-245q-13 0 -13 11v11q0 14 7 28l189 390h-166q-8 0 -10 2.5t-2 8.5v21q0 11 12 11h225q8 0 10 -3t2 -7v-11q0 -11 -6 -23l-192 -396h189zM216 637q0 -20 -11 -31t-30 -11q-43 0 -43 42q0 43 43 43q41 0 41 -43z" />
    <glyph glyph-name="apple" unicode="&#xf8ff;" horiz-adv-x="606" 
d="M238 202v65h196v66h-196v195h261v-65h-196v-65h196v-196h-261zM173 594v-529h73v-65h-138v659h391v-65h-326z" />
    <glyph glyph-name="published" horiz-adv-x="810" 
d="M759 349q0 -73 -28 -137t-76 -112t-112 -75.5t-137 -27.5q-74 0 -138.5 27.5t-112.5 75.5t-75.5 112t-27.5 137t27.5 137.5t75.5 112.5t112.5 75.5t138.5 27.5q73 0 137 -27.5t112 -75.5t76 -112.5t28 -137.5zM710 349q0 64 -23.5 120t-65 97.5t-97 65.5t-118.5 24
q-64 0 -119.5 -24t-97 -65.5t-65 -97.5t-23.5 -120q0 -63 23.5 -119t65 -97.5t97 -65.5t119.5 -24q63 0 118.5 24t97 65.5t65 97.5t23.5 119zM359 154q0 -8 -7 -8h-28q-7 0 -7 8v381q0 9 9 9h80q63 0 99.5 -28t36.5 -90q0 -23 -7.5 -45t-24.5 -39t-43.5 -27.5t-63.5 -10.5
h-44v-150zM359 336h43q48 0 73.5 23t25.5 66q0 48 -26.5 67.5t-72.5 19.5h-43v-176z" />
	g2="o,eth,ograve,oacute,ocircumflex,otilde,odieresis,omacron,obreve,ohungarumlaut,oslash,oslashacute,oe"
	k="17" />
  </font>
</defs>
</svg>
